SplineFontDB: 3.0
FontName: zepto8
FullName: ZEPTO-8
FamilyName: zepto8
Weight: Book
Copyright: 
Version: 1.0
ItalicAngle: 0
UnderlinePosition: -200
UnderlineWidth: 200
Ascent: 1000
Descent: 0
InvalidEm: 0
sfntRevision: 0x00010000
LayerCount: 2
Layer: 0 1 "Back" 1
Layer: 1 1 "Fore" 0
XUID: [1021 982 998645423 14247482]
StyleMap: 0x0040
FSType: 4
OS2Version: 2
OS2_WeightWidthSlopeOnly: 0
OS2_UseTypoMetrics: 0
CreationTime: 1478729775
ModificationTime: 1548333977
PfmFamily: 81
TTFWeight: 400
TTFWidth: 5
LineGap: 0
VLineGap: 0
Panose: 0 0 4 0 0 0 0 0 0 0
OS2TypoAscent: 1000
OS2TypoAOffset: 0
OS2TypoDescent: 200
OS2TypoDOffset: 0
OS2TypoLinegap: 0
OS2WinAscent: 1000
OS2WinAOffset: 0
OS2WinDescent: 200
OS2WinDOffset: 0
HheadAscent: 1000
HheadAOffset: 0
HheadDescent: -200
HheadDOffset: 0
OS2SubXSize: 400
OS2SubYSize: 400
OS2SubXOff: 0
OS2SubYOff: 0
OS2SupXSize: 400
OS2SupYSize: 400
OS2SupXOff: 0
OS2SupYOff: 400
OS2StrikeYSize: 40
OS2StrikeYPos: 160
OS2CapHeight: 1000
OS2XHeight: 800
OS2Vendor: 'FSTR'
OS2CodePages: 00000011.00000000
OS2UnicodeRanges: 00000003.00000000.00000000.00000000
MarkAttachClasses: 1
DEI: 91125
ShortTable: maxp 16
  1
  0
  125
  72
  18
  0
  0
  2
  0
  0
  0
  0
  0
  0
  0
  0
EndShort
LangName: 1033 "" "" "Regular" "FontForge 2.0 : ZEPTO-8 : 24-1-2019"
GaspTable: 1 65535 2 0
Encoding: UnicodeBmp
UnicodeInterp: none
NameList: AGL For New Fonts
DisplaySize: -48
AntiAlias: 1
FitToEm: 0
WinInfo: 64 16 6
BeginPrivate: 0
EndPrivate
BeginChars: 65539 125

StartChar: .notdef
Encoding: 65536 -1 0
Width: 600
VWidth: 1200
Flags: W
LayerCount: 2
Fore
SplineSet
400 114 m 1,0,-1
 400 240 l 1,1,-1
 373 240 l 1,2,-1
 373 114 l 1,3,-1
 400 114 l 1,0,-1
627 263 m 1,4,-1
 627 389 l 1,5,-1
 373 389 l 1,6,-1
 373 263 l 1,7,-1
 627 263 l 1,4,-1
400 410 m 1,8,-1
 400 538 l 1,9,-1
 373 538 l 1,10,-1
 373 410 l 1,11,-1
 400 410 l 1,8,-1
627 559 m 1,12,-1
 627 686 l 1,13,-1
 400 686 l 2,14,15
 447 686 447 686 411 648 c 0,16,17
 373 610 373 610 373 559 c 1,18,-1
 627 559 l 1,12,-1
0 0 m 1,19,-1
 0 800 l 1,20,-1
 800 800 l 1,21,-1
 800 0 l 1,22,-1
 0 0 l 1,19,-1
EndSplineSet
EndChar

StartChar: u0010
Encoding: 16 16 3
Width: 800
VWidth: 1200
GlyphClass: 2
Flags: W
LayerCount: 2
Fore
SplineSet
0 1000 m 1,0,-1
 0 800 l 1,1,-1
 200 800 l 1,2,-1
 200 1000 l 1,3,-1
 0 1000 l 1,0,-1
0 800 m 1,0,-1
 0 600 l 1,1,-1
 200 600 l 1,2,-1
 200 800 l 1,3,-1
 0 800 l 1,0,-1
0 600 m 1,0,-1
 0 400 l 1,1,-1
 200 400 l 1,2,-1
 200 600 l 1,3,-1
 0 600 l 1,0,-1
0 400 m 1,0,-1
 0 200 l 1,1,-1
 200 200 l 1,2,-1
 200 400 l 1,3,-1
 0 400 l 1,0,-1
0 200 m 1,0,-1
 0 0 l 1,1,-1
 200 0 l 1,2,-1
 200 200 l 1,3,-1
 0 200 l 1,0,-1
200 1000 m 1,0,-1
 200 800 l 1,1,-1
 400 800 l 1,2,-1
 400 1000 l 1,3,-1
 200 1000 l 1,0,-1
200 800 m 1,0,-1
 200 600 l 1,1,-1
 400 600 l 1,2,-1
 400 800 l 1,3,-1
 200 800 l 1,0,-1
200 600 m 1,0,-1
 200 400 l 1,1,-1
 400 400 l 1,2,-1
 400 600 l 1,3,-1
 200 600 l 1,0,-1
200 400 m 1,0,-1
 200 200 l 1,1,-1
 400 200 l 1,2,-1
 400 400 l 1,3,-1
 200 400 l 1,0,-1
200 200 m 1,0,-1
 200 0 l 1,1,-1
 400 0 l 1,2,-1
 400 200 l 1,3,-1
 200 200 l 1,0,-1
400 1000 m 1,0,-1
 400 800 l 1,1,-1
 600 800 l 1,2,-1
 600 1000 l 1,3,-1
 400 1000 l 1,0,-1
400 800 m 1,0,-1
 400 600 l 1,1,-1
 600 600 l 1,2,-1
 600 800 l 1,3,-1
 400 800 l 1,0,-1
400 600 m 1,0,-1
 400 400 l 1,1,-1
 600 400 l 1,2,-1
 600 600 l 1,3,-1
 400 600 l 1,0,-1
400 400 m 1,0,-1
 400 200 l 1,1,-1
 600 200 l 1,2,-1
 600 400 l 1,3,-1
 400 400 l 1,0,-1
400 200 m 1,0,-1
 400 0 l 1,1,-1
 600 0 l 1,2,-1
 600 200 l 1,3,-1
 400 200 l 1,0,-1
EndSplineSet
EndChar

StartChar: u0011
Encoding: 17 17 4
Width: 800
VWidth: 1200
GlyphClass: 2
Flags: W
LayerCount: 2
Fore
SplineSet
0 800 m 1,0,-1
 0 600 l 1,1,-1
 200 600 l 1,2,-1
 200 800 l 1,3,-1
 0 800 l 1,0,-1
0 600 m 1,0,-1
 0 400 l 1,1,-1
 200 400 l 1,2,-1
 200 600 l 1,3,-1
 0 600 l 1,0,-1
0 400 m 1,0,-1
 0 200 l 1,1,-1
 200 200 l 1,2,-1
 200 400 l 1,3,-1
 0 400 l 1,0,-1
200 800 m 1,0,-1
 200 600 l 1,1,-1
 400 600 l 1,2,-1
 400 800 l 1,3,-1
 200 800 l 1,0,-1
200 600 m 1,0,-1
 200 400 l 1,1,-1
 400 400 l 1,2,-1
 400 600 l 1,3,-1
 200 600 l 1,0,-1
200 400 m 1,0,-1
 200 200 l 1,1,-1
 400 200 l 1,2,-1
 400 400 l 1,3,-1
 200 400 l 1,0,-1
400 800 m 1,0,-1
 400 600 l 1,1,-1
 600 600 l 1,2,-1
 600 800 l 1,3,-1
 400 800 l 1,0,-1
400 600 m 1,0,-1
 400 400 l 1,1,-1
 600 400 l 1,2,-1
 600 600 l 1,3,-1
 400 600 l 1,0,-1
400 400 m 1,0,-1
 400 200 l 1,1,-1
 600 200 l 1,2,-1
 600 400 l 1,3,-1
 400 400 l 1,0,-1
EndSplineSet
EndChar

StartChar: u0012
Encoding: 18 18 5
Width: 800
VWidth: 1200
GlyphClass: 2
Flags: W
LayerCount: 2
Fore
SplineSet
0 800 m 1,0,-1
 0 600 l 1,1,-1
 200 600 l 1,2,-1
 200 800 l 1,3,-1
 0 800 l 1,0,-1
0 600 m 1,0,-1
 0 400 l 1,1,-1
 200 400 l 1,2,-1
 200 600 l 1,3,-1
 0 600 l 1,0,-1
0 400 m 1,0,-1
 0 200 l 1,1,-1
 200 200 l 1,2,-1
 200 400 l 1,3,-1
 0 400 l 1,0,-1
200 800 m 1,0,-1
 200 600 l 1,1,-1
 400 600 l 1,2,-1
 400 800 l 1,3,-1
 200 800 l 1,0,-1
200 400 m 1,0,-1
 200 200 l 1,1,-1
 400 200 l 1,2,-1
 400 400 l 1,3,-1
 200 400 l 1,0,-1
400 800 m 1,0,-1
 400 600 l 1,1,-1
 600 600 l 1,2,-1
 600 800 l 1,3,-1
 400 800 l 1,0,-1
400 600 m 1,0,-1
 400 400 l 1,1,-1
 600 400 l 1,2,-1
 600 600 l 1,3,-1
 400 600 l 1,0,-1
400 400 m 1,0,-1
 400 200 l 1,1,-1
 600 200 l 1,2,-1
 600 400 l 1,3,-1
 400 400 l 1,0,-1
EndSplineSet
EndChar

StartChar: u0013
Encoding: 19 19 6
Width: 800
VWidth: 1200
GlyphClass: 2
Flags: W
LayerCount: 2
Fore
SplineSet
0 800 m 1,0,-1
 0 600 l 1,1,-1
 200 600 l 1,2,-1
 200 800 l 1,3,-1
 0 800 l 1,0,-1
0 400 m 1,0,-1
 0 200 l 1,1,-1
 200 200 l 1,2,-1
 200 400 l 1,3,-1
 0 400 l 1,0,-1
200 600 m 1,0,-1
 200 400 l 1,1,-1
 400 400 l 1,2,-1
 400 600 l 1,3,-1
 200 600 l 1,0,-1
400 800 m 1,0,-1
 400 600 l 1,1,-1
 600 600 l 1,2,-1
 600 800 l 1,3,-1
 400 800 l 1,0,-1
400 400 m 1,0,-1
 400 200 l 1,1,-1
 600 200 l 1,2,-1
 600 400 l 1,3,-1
 400 400 l 1,0,-1
EndSplineSet
EndChar

StartChar: u0014
Encoding: 20 20 7
Width: 800
VWidth: 1200
GlyphClass: 2
Flags: W
LayerCount: 2
Fore
SplineSet
0 800 m 1,0,-1
 0 600 l 1,1,-1
 200 600 l 1,2,-1
 200 800 l 1,3,-1
 0 800 l 1,0,-1
0 400 m 1,0,-1
 0 200 l 1,1,-1
 200 200 l 1,2,-1
 200 400 l 1,3,-1
 0 400 l 1,0,-1
400 800 m 1,0,-1
 400 600 l 1,1,-1
 600 600 l 1,2,-1
 600 800 l 1,3,-1
 400 800 l 1,0,-1
400 400 m 1,0,-1
 400 200 l 1,1,-1
 600 200 l 1,2,-1
 600 400 l 1,3,-1
 400 400 l 1,0,-1
EndSplineSet
EndChar

StartChar: u0015
Encoding: 21 21 8
Width: 800
VWidth: 1200
GlyphClass: 2
Flags: W
LayerCount: 2
Fore
SplineSet
0 800 m 1,0,-1
 0 600 l 1,1,-1
 200 600 l 1,2,-1
 200 800 l 1,3,-1
 0 800 l 1,0,-1
0 600 m 1,0,-1
 0 400 l 1,1,-1
 200 400 l 1,2,-1
 200 600 l 1,3,-1
 0 600 l 1,0,-1
0 400 m 1,0,-1
 0 200 l 1,1,-1
 200 200 l 1,2,-1
 200 400 l 1,3,-1
 0 400 l 1,0,-1
400 800 m 1,0,-1
 400 600 l 1,1,-1
 600 600 l 1,2,-1
 600 800 l 1,3,-1
 400 800 l 1,0,-1
400 600 m 1,0,-1
 400 400 l 1,1,-1
 600 400 l 1,2,-1
 600 600 l 1,3,-1
 400 600 l 1,0,-1
400 400 m 1,0,-1
 400 200 l 1,1,-1
 600 200 l 1,2,-1
 600 400 l 1,3,-1
 400 400 l 1,0,-1
EndSplineSet
EndChar

StartChar: u0016
Encoding: 22 22 9
Width: 800
VWidth: 1200
GlyphClass: 2
Flags: W
LayerCount: 2
Fore
SplineSet
0 600 m 1,0,-1
 0 400 l 1,1,-1
 200 400 l 1,2,-1
 200 600 l 1,3,-1
 0 600 l 1,0,-1
200 800 m 1,0,-1
 200 600 l 1,1,-1
 400 600 l 1,2,-1
 400 800 l 1,3,-1
 200 800 l 1,0,-1
200 600 m 1,0,-1
 200 400 l 1,1,-1
 400 400 l 1,2,-1
 400 600 l 1,3,-1
 200 600 l 1,0,-1
200 400 m 1,0,-1
 200 200 l 1,1,-1
 400 200 l 1,2,-1
 400 400 l 1,3,-1
 200 400 l 1,0,-1
400 1000 m 1,0,-1
 400 800 l 1,1,-1
 600 800 l 1,2,-1
 600 1000 l 1,3,-1
 400 1000 l 1,0,-1
400 800 m 1,0,-1
 400 600 l 1,1,-1
 600 600 l 1,2,-1
 600 800 l 1,3,-1
 400 800 l 1,0,-1
400 600 m 1,0,-1
 400 400 l 1,1,-1
 600 400 l 1,2,-1
 600 600 l 1,3,-1
 400 600 l 1,0,-1
400 400 m 1,0,-1
 400 200 l 1,1,-1
 600 200 l 1,2,-1
 600 400 l 1,3,-1
 400 400 l 1,0,-1
400 200 m 1,0,-1
 400 0 l 1,1,-1
 600 0 l 1,2,-1
 600 200 l 1,3,-1
 400 200 l 1,0,-1
EndSplineSet
EndChar

StartChar: u0017
Encoding: 23 23 10
Width: 800
VWidth: 1200
GlyphClass: 2
Flags: W
LayerCount: 2
Fore
SplineSet
0 1000 m 1,0,-1
 0 800 l 1,1,-1
 200 800 l 1,2,-1
 200 1000 l 1,3,-1
 0 1000 l 1,0,-1
0 800 m 1,0,-1
 0 600 l 1,1,-1
 200 600 l 1,2,-1
 200 800 l 1,3,-1
 0 800 l 1,0,-1
0 600 m 1,0,-1
 0 400 l 1,1,-1
 200 400 l 1,2,-1
 200 600 l 1,3,-1
 0 600 l 1,0,-1
0 400 m 1,0,-1
 0 200 l 1,1,-1
 200 200 l 1,2,-1
 200 400 l 1,3,-1
 0 400 l 1,0,-1
0 200 m 1,0,-1
 0 0 l 1,1,-1
 200 0 l 1,2,-1
 200 200 l 1,3,-1
 0 200 l 1,0,-1
200 800 m 1,0,-1
 200 600 l 1,1,-1
 400 600 l 1,2,-1
 400 800 l 1,3,-1
 200 800 l 1,0,-1
200 600 m 1,0,-1
 200 400 l 1,1,-1
 400 400 l 1,2,-1
 400 600 l 1,3,-1
 200 600 l 1,0,-1
200 400 m 1,0,-1
 200 200 l 1,1,-1
 400 200 l 1,2,-1
 400 400 l 1,3,-1
 200 400 l 1,0,-1
400 600 m 1,0,-1
 400 400 l 1,1,-1
 600 400 l 1,2,-1
 600 600 l 1,3,-1
 400 600 l 1,0,-1
EndSplineSet
EndChar

StartChar: u0018
Encoding: 24 24 11
Width: 800
VWidth: 1200
GlyphClass: 2
Flags: W
LayerCount: 2
Fore
SplineSet
0 1000 m 1,0,-1
 0 800 l 1,1,-1
 200 800 l 1,2,-1
 200 1000 l 1,3,-1
 0 1000 l 1,0,-1
0 800 m 1,0,-1
 0 600 l 1,1,-1
 200 600 l 1,2,-1
 200 800 l 1,3,-1
 0 800 l 1,0,-1
0 600 m 1,0,-1
 0 400 l 1,1,-1
 200 400 l 1,2,-1
 200 600 l 1,3,-1
 0 600 l 1,0,-1
0 400 m 1,0,-1
 0 200 l 1,1,-1
 200 200 l 1,2,-1
 200 400 l 1,3,-1
 0 400 l 1,0,-1
200 1000 m 1,0,-1
 200 800 l 1,1,-1
 400 800 l 1,2,-1
 400 1000 l 1,3,-1
 200 1000 l 1,0,-1
400 1000 m 1,0,-1
 400 800 l 1,1,-1
 600 800 l 1,2,-1
 600 1000 l 1,3,-1
 400 1000 l 1,0,-1
EndSplineSet
EndChar

StartChar: u0019
Encoding: 25 25 12
Width: 800
VWidth: 1200
GlyphClass: 2
Flags: W
LayerCount: 2
Fore
SplineSet
0 200 m 1,0,-1
 0 0 l 1,1,-1
 200 0 l 1,2,-1
 200 200 l 1,3,-1
 0 200 l 1,0,-1
200 200 m 1,0,-1
 200 0 l 1,1,-1
 400 0 l 1,2,-1
 400 200 l 1,3,-1
 200 200 l 1,0,-1
400 800 m 1,0,-1
 400 600 l 1,1,-1
 600 600 l 1,2,-1
 600 800 l 1,3,-1
 400 800 l 1,0,-1
400 600 m 1,0,-1
 400 400 l 1,1,-1
 600 400 l 1,2,-1
 600 600 l 1,3,-1
 400 600 l 1,0,-1
400 400 m 1,0,-1
 400 200 l 1,1,-1
 600 200 l 1,2,-1
 600 400 l 1,3,-1
 400 400 l 1,0,-1
400 200 m 1,0,-1
 400 0 l 1,1,-1
 600 0 l 1,2,-1
 600 200 l 1,3,-1
 400 200 l 1,0,-1
EndSplineSet
EndChar

StartChar: u001a
Encoding: 26 26 13
Width: 800
VWidth: 1200
GlyphClass: 2
Flags: W
LayerCount: 2
Fore
SplineSet
0 1000 m 1,0,-1
 0 800 l 1,1,-1
 200 800 l 1,2,-1
 200 1000 l 1,3,-1
 0 1000 l 1,0,-1
0 800 m 1,0,-1
 0 600 l 1,1,-1
 200 600 l 1,2,-1
 200 800 l 1,3,-1
 0 800 l 1,0,-1
0 400 m 1,0,-1
 0 200 l 1,1,-1
 200 200 l 1,2,-1
 200 400 l 1,3,-1
 0 400 l 1,0,-1
200 800 m 1,0,-1
 200 600 l 1,1,-1
 400 600 l 1,2,-1
 400 800 l 1,3,-1
 200 800 l 1,0,-1
200 600 m 1,0,-1
 200 400 l 1,1,-1
 400 400 l 1,2,-1
 400 600 l 1,3,-1
 200 600 l 1,0,-1
200 400 m 1,0,-1
 200 200 l 1,1,-1
 400 200 l 1,2,-1
 400 400 l 1,3,-1
 200 400 l 1,0,-1
200 200 m 1,0,-1
 200 0 l 1,1,-1
 400 0 l 1,2,-1
 400 200 l 1,3,-1
 200 200 l 1,0,-1
400 1000 m 1,0,-1
 400 800 l 1,1,-1
 600 800 l 1,2,-1
 600 1000 l 1,3,-1
 400 1000 l 1,0,-1
400 800 m 1,0,-1
 400 600 l 1,1,-1
 600 600 l 1,2,-1
 600 800 l 1,3,-1
 400 800 l 1,0,-1
400 400 m 1,0,-1
 400 200 l 1,1,-1
 600 200 l 1,2,-1
 600 400 l 1,3,-1
 400 400 l 1,0,-1
EndSplineSet
EndChar

StartChar: u001b
Encoding: 27 27 14
Width: 800
VWidth: 1200
GlyphClass: 2
Flags: W
LayerCount: 2
Fore
SplineSet
200 600 m 1,0,-1
 200 400 l 1,1,-1
 400 400 l 1,2,-1
 400 600 l 1,3,-1
 200 600 l 1,0,-1
EndSplineSet
EndChar

StartChar: u001c
Encoding: 28 28 15
Width: 800
VWidth: 1200
GlyphClass: 2
Flags: W
LayerCount: 2
Fore
SplineSet
0 400 m 1,0,-1
 0 200 l 1,1,-1
 200 200 l 1,2,-1
 200 400 l 1,3,-1
 0 400 l 1,0,-1
200 200 m 1,0,-1
 200 0 l 1,1,-1
 400 0 l 1,2,-1
 400 200 l 1,3,-1
 200 200 l 1,0,-1
EndSplineSet
EndChar

StartChar: u001d
Encoding: 29 29 16
Width: 800
VWidth: 1200
GlyphClass: 2
Flags: W
LayerCount: 2
Fore
SplineSet
0 400 m 1,0,-1
 0 200 l 1,1,-1
 200 200 l 1,2,-1
 200 400 l 1,3,-1
 0 400 l 1,0,-1
0 200 m 1,0,-1
 0 0 l 1,1,-1
 200 0 l 1,2,-1
 200 200 l 1,3,-1
 0 200 l 1,0,-1
200 400 m 1,0,-1
 200 200 l 1,1,-1
 400 200 l 1,2,-1
 400 400 l 1,3,-1
 200 400 l 1,0,-1
200 200 m 1,0,-1
 200 0 l 1,1,-1
 400 0 l 1,2,-1
 400 200 l 1,3,-1
 200 200 l 1,0,-1
EndSplineSet
EndChar

StartChar: u001e
Encoding: 30 30 17
Width: 800
VWidth: 1200
GlyphClass: 2
Flags: W
LayerCount: 2
Fore
SplineSet
0 1000 m 1,0,-1
 0 800 l 1,1,-1
 200 800 l 1,2,-1
 200 1000 l 1,3,-1
 0 1000 l 1,0,-1
0 800 m 1,0,-1
 0 600 l 1,1,-1
 200 600 l 1,2,-1
 200 800 l 1,3,-1
 0 800 l 1,0,-1
400 1000 m 1,0,-1
 400 800 l 1,1,-1
 600 800 l 1,2,-1
 600 1000 l 1,3,-1
 400 1000 l 1,0,-1
400 800 m 1,0,-1
 400 600 l 1,1,-1
 600 600 l 1,2,-1
 600 800 l 1,3,-1
 400 800 l 1,0,-1
EndSplineSet
EndChar

StartChar: u001f
Encoding: 31 31 18
Width: 800
VWidth: 1200
GlyphClass: 2
Flags: W
LayerCount: 2
Fore
SplineSet
0 800 m 1,0,-1
 0 600 l 1,1,-1
 200 600 l 1,2,-1
 200 800 l 1,3,-1
 0 800 l 1,0,-1
200 1000 m 1,0,-1
 200 800 l 1,1,-1
 400 800 l 1,2,-1
 400 1000 l 1,3,-1
 200 1000 l 1,0,-1
200 600 m 1,0,-1
 200 400 l 1,1,-1
 400 400 l 1,2,-1
 400 600 l 1,3,-1
 200 600 l 1,0,-1
400 800 m 1,0,-1
 400 600 l 1,1,-1
 600 600 l 1,2,-1
 600 800 l 1,3,-1
 400 800 l 1,0,-1
EndSplineSet
EndChar

StartChar: space
Encoding: 32 32 19
Width: 800
VWidth: 1200
GlyphClass: 2
Flags: W
LayerCount: 2
Fore
SplineSet
EndSplineSet
EndChar

StartChar: exclam
Encoding: 33 33 20
Width: 800
VWidth: 1200
GlyphClass: 2
Flags: W
LayerCount: 2
Fore
SplineSet
200 1000 m 1,0,-1
 200 800 l 1,1,-1
 400 800 l 1,2,-1
 400 1000 l 1,3,-1
 200 1000 l 1,0,-1
200 800 m 1,0,-1
 200 600 l 1,1,-1
 400 600 l 1,2,-1
 400 800 l 1,3,-1
 200 800 l 1,0,-1
200 600 m 1,0,-1
 200 400 l 1,1,-1
 400 400 l 1,2,-1
 400 600 l 1,3,-1
 200 600 l 1,0,-1
200 200 m 1,0,-1
 200 0 l 1,1,-1
 400 0 l 1,2,-1
 400 200 l 1,3,-1
 200 200 l 1,0,-1
EndSplineSet
EndChar

StartChar: quotedbl
Encoding: 34 34 21
Width: 800
VWidth: 1200
GlyphClass: 2
Flags: W
LayerCount: 2
Fore
SplineSet
0 1000 m 1,0,-1
 0 800 l 1,1,-1
 200 800 l 1,2,-1
 200 1000 l 1,3,-1
 0 1000 l 1,0,-1
0 800 m 1,0,-1
 0 600 l 1,1,-1
 200 600 l 1,2,-1
 200 800 l 1,3,-1
 0 800 l 1,0,-1
400 1000 m 1,0,-1
 400 800 l 1,1,-1
 600 800 l 1,2,-1
 600 1000 l 1,3,-1
 400 1000 l 1,0,-1
400 800 m 1,0,-1
 400 600 l 1,1,-1
 600 600 l 1,2,-1
 600 800 l 1,3,-1
 400 800 l 1,0,-1
EndSplineSet
EndChar

StartChar: numbersign
Encoding: 35 35 22
Width: 800
VWidth: 1200
GlyphClass: 2
Flags: W
LayerCount: 2
Fore
SplineSet
0 1000 m 1,0,-1
 0 800 l 1,1,-1
 200 800 l 1,2,-1
 200 1000 l 1,3,-1
 0 1000 l 1,0,-1
0 800 m 1,0,-1
 0 600 l 1,1,-1
 200 600 l 1,2,-1
 200 800 l 1,3,-1
 0 800 l 1,0,-1
0 600 m 1,0,-1
 0 400 l 1,1,-1
 200 400 l 1,2,-1
 200 600 l 1,3,-1
 0 600 l 1,0,-1
0 400 m 1,0,-1
 0 200 l 1,1,-1
 200 200 l 1,2,-1
 200 400 l 1,3,-1
 0 400 l 1,0,-1
0 200 m 1,0,-1
 0 0 l 1,1,-1
 200 0 l 1,2,-1
 200 200 l 1,3,-1
 0 200 l 1,0,-1
200 800 m 1,0,-1
 200 600 l 1,1,-1
 400 600 l 1,2,-1
 400 800 l 1,3,-1
 200 800 l 1,0,-1
200 400 m 1,0,-1
 200 200 l 1,1,-1
 400 200 l 1,2,-1
 400 400 l 1,3,-1
 200 400 l 1,0,-1
400 1000 m 1,0,-1
 400 800 l 1,1,-1
 600 800 l 1,2,-1
 600 1000 l 1,3,-1
 400 1000 l 1,0,-1
400 800 m 1,0,-1
 400 600 l 1,1,-1
 600 600 l 1,2,-1
 600 800 l 1,3,-1
 400 800 l 1,0,-1
400 600 m 1,0,-1
 400 400 l 1,1,-1
 600 400 l 1,2,-1
 600 600 l 1,3,-1
 400 600 l 1,0,-1
400 400 m 1,0,-1
 400 200 l 1,1,-1
 600 200 l 1,2,-1
 600 400 l 1,3,-1
 400 400 l 1,0,-1
400 200 m 1,0,-1
 400 0 l 1,1,-1
 600 0 l 1,2,-1
 600 200 l 1,3,-1
 400 200 l 1,0,-1
EndSplineSet
EndChar

StartChar: dollar
Encoding: 36 36 23
Width: 800
VWidth: 1200
GlyphClass: 2
Flags: W
LayerCount: 2
Fore
SplineSet
0 1000 m 1,0,-1
 0 800 l 1,1,-1
 200 800 l 1,2,-1
 200 1000 l 1,3,-1
 0 1000 l 1,0,-1
0 800 m 1,0,-1
 0 600 l 1,1,-1
 200 600 l 1,2,-1
 200 800 l 1,3,-1
 0 800 l 1,0,-1
0 400 m 1,0,-1
 0 200 l 1,1,-1
 200 200 l 1,2,-1
 200 400 l 1,3,-1
 0 400 l 1,0,-1
200 1000 m 1,0,-1
 200 800 l 1,1,-1
 400 800 l 1,2,-1
 400 1000 l 1,3,-1
 200 1000 l 1,0,-1
200 800 m 1,0,-1
 200 600 l 1,1,-1
 400 600 l 1,2,-1
 400 800 l 1,3,-1
 200 800 l 1,0,-1
200 600 m 1,0,-1
 200 400 l 1,1,-1
 400 400 l 1,2,-1
 400 600 l 1,3,-1
 200 600 l 1,0,-1
200 400 m 1,0,-1
 200 200 l 1,1,-1
 400 200 l 1,2,-1
 400 400 l 1,3,-1
 200 400 l 1,0,-1
200 200 m 1,0,-1
 200 0 l 1,1,-1
 400 0 l 1,2,-1
 400 200 l 1,3,-1
 200 200 l 1,0,-1
400 1000 m 1,0,-1
 400 800 l 1,1,-1
 600 800 l 1,2,-1
 600 1000 l 1,3,-1
 400 1000 l 1,0,-1
400 600 m 1,0,-1
 400 400 l 1,1,-1
 600 400 l 1,2,-1
 600 600 l 1,3,-1
 400 600 l 1,0,-1
400 400 m 1,0,-1
 400 200 l 1,1,-1
 600 200 l 1,2,-1
 600 400 l 1,3,-1
 400 400 l 1,0,-1
EndSplineSet
EndChar

StartChar: percent
Encoding: 37 37 24
Width: 800
VWidth: 1200
GlyphClass: 2
Flags: W
LayerCount: 2
Fore
SplineSet
0 1000 m 1,0,-1
 0 800 l 1,1,-1
 200 800 l 1,2,-1
 200 1000 l 1,3,-1
 0 1000 l 1,0,-1
0 400 m 1,0,-1
 0 200 l 1,1,-1
 200 200 l 1,2,-1
 200 400 l 1,3,-1
 0 400 l 1,0,-1
0 200 m 1,0,-1
 0 0 l 1,1,-1
 200 0 l 1,2,-1
 200 200 l 1,3,-1
 0 200 l 1,0,-1
200 600 m 1,0,-1
 200 400 l 1,1,-1
 400 400 l 1,2,-1
 400 600 l 1,3,-1
 200 600 l 1,0,-1
400 1000 m 1,0,-1
 400 800 l 1,1,-1
 600 800 l 1,2,-1
 600 1000 l 1,3,-1
 400 1000 l 1,0,-1
400 800 m 1,0,-1
 400 600 l 1,1,-1
 600 600 l 1,2,-1
 600 800 l 1,3,-1
 400 800 l 1,0,-1
400 200 m 1,0,-1
 400 0 l 1,1,-1
 600 0 l 1,2,-1
 600 200 l 1,3,-1
 400 200 l 1,0,-1
EndSplineSet
EndChar

StartChar: ampersand
Encoding: 38 38 25
Width: 800
VWidth: 1200
GlyphClass: 2
Flags: W
LayerCount: 2
Fore
SplineSet
0 1000 m 1,0,-1
 0 800 l 1,1,-1
 200 800 l 1,2,-1
 200 1000 l 1,3,-1
 0 1000 l 1,0,-1
0 800 m 1,0,-1
 0 600 l 1,1,-1
 200 600 l 1,2,-1
 200 800 l 1,3,-1
 0 800 l 1,0,-1
0 600 m 1,0,-1
 0 400 l 1,1,-1
 200 400 l 1,2,-1
 200 600 l 1,3,-1
 0 600 l 1,0,-1
0 400 m 1,0,-1
 0 200 l 1,1,-1
 200 200 l 1,2,-1
 200 400 l 1,3,-1
 0 400 l 1,0,-1
0 200 m 1,0,-1
 0 0 l 1,1,-1
 200 0 l 1,2,-1
 200 200 l 1,3,-1
 0 200 l 1,0,-1
200 1000 m 1,0,-1
 200 800 l 1,1,-1
 400 800 l 1,2,-1
 400 1000 l 1,3,-1
 200 1000 l 1,0,-1
200 800 m 1,0,-1
 200 600 l 1,1,-1
 400 600 l 1,2,-1
 400 800 l 1,3,-1
 200 800 l 1,0,-1
200 600 m 1,0,-1
 200 400 l 1,1,-1
 400 400 l 1,2,-1
 400 600 l 1,3,-1
 200 600 l 1,0,-1
200 200 m 1,0,-1
 200 0 l 1,1,-1
 400 0 l 1,2,-1
 400 200 l 1,3,-1
 200 200 l 1,0,-1
400 400 m 1,0,-1
 400 200 l 1,1,-1
 600 200 l 1,2,-1
 600 400 l 1,3,-1
 400 400 l 1,0,-1
400 200 m 1,0,-1
 400 0 l 1,1,-1
 600 0 l 1,2,-1
 600 200 l 1,3,-1
 400 200 l 1,0,-1
EndSplineSet
EndChar

StartChar: quotesingle
Encoding: 39 39 26
Width: 800
VWidth: 1200
GlyphClass: 2
Flags: W
LayerCount: 2
Fore
SplineSet
0 800 m 1,0,-1
 0 600 l 1,1,-1
 200 600 l 1,2,-1
 200 800 l 1,3,-1
 0 800 l 1,0,-1
200 1000 m 1,0,-1
 200 800 l 1,1,-1
 400 800 l 1,2,-1
 400 1000 l 1,3,-1
 200 1000 l 1,0,-1
EndSplineSet
EndChar

StartChar: parenleft
Encoding: 40 40 27
Width: 800
VWidth: 1200
GlyphClass: 2
Flags: W
LayerCount: 2
Fore
SplineSet
0 800 m 1,0,-1
 0 600 l 1,1,-1
 200 600 l 1,2,-1
 200 800 l 1,3,-1
 0 800 l 1,0,-1
0 600 m 1,0,-1
 0 400 l 1,1,-1
 200 400 l 1,2,-1
 200 600 l 1,3,-1
 0 600 l 1,0,-1
0 400 m 1,0,-1
 0 200 l 1,1,-1
 200 200 l 1,2,-1
 200 400 l 1,3,-1
 0 400 l 1,0,-1
200 1000 m 1,0,-1
 200 800 l 1,1,-1
 400 800 l 1,2,-1
 400 1000 l 1,3,-1
 200 1000 l 1,0,-1
200 200 m 1,0,-1
 200 0 l 1,1,-1
 400 0 l 1,2,-1
 400 200 l 1,3,-1
 200 200 l 1,0,-1
EndSplineSet
EndChar

StartChar: parenright
Encoding: 41 41 28
Width: 800
VWidth: 1200
GlyphClass: 2
Flags: W
LayerCount: 2
Fore
SplineSet
200 1000 m 1,0,-1
 200 800 l 1,1,-1
 400 800 l 1,2,-1
 400 1000 l 1,3,-1
 200 1000 l 1,0,-1
200 200 m 1,0,-1
 200 0 l 1,1,-1
 400 0 l 1,2,-1
 400 200 l 1,3,-1
 200 200 l 1,0,-1
400 800 m 1,0,-1
 400 600 l 1,1,-1
 600 600 l 1,2,-1
 600 800 l 1,3,-1
 400 800 l 1,0,-1
400 600 m 1,0,-1
 400 400 l 1,1,-1
 600 400 l 1,2,-1
 600 600 l 1,3,-1
 400 600 l 1,0,-1
400 400 m 1,0,-1
 400 200 l 1,1,-1
 600 200 l 1,2,-1
 600 400 l 1,3,-1
 400 400 l 1,0,-1
EndSplineSet
EndChar

StartChar: asterisk
Encoding: 42 42 29
Width: 800
VWidth: 1200
GlyphClass: 2
Flags: W
LayerCount: 2
Fore
SplineSet
0 1000 m 1,0,-1
 0 800 l 1,1,-1
 200 800 l 1,2,-1
 200 1000 l 1,3,-1
 0 1000 l 1,0,-1
0 600 m 1,0,-1
 0 400 l 1,1,-1
 200 400 l 1,2,-1
 200 600 l 1,3,-1
 0 600 l 1,0,-1
0 200 m 1,0,-1
 0 0 l 1,1,-1
 200 0 l 1,2,-1
 200 200 l 1,3,-1
 0 200 l 1,0,-1
200 800 m 1,0,-1
 200 600 l 1,1,-1
 400 600 l 1,2,-1
 400 800 l 1,3,-1
 200 800 l 1,0,-1
200 600 m 1,0,-1
 200 400 l 1,1,-1
 400 400 l 1,2,-1
 400 600 l 1,3,-1
 200 600 l 1,0,-1
200 400 m 1,0,-1
 200 200 l 1,1,-1
 400 200 l 1,2,-1
 400 400 l 1,3,-1
 200 400 l 1,0,-1
400 1000 m 1,0,-1
 400 800 l 1,1,-1
 600 800 l 1,2,-1
 600 1000 l 1,3,-1
 400 1000 l 1,0,-1
400 600 m 1,0,-1
 400 400 l 1,1,-1
 600 400 l 1,2,-1
 600 600 l 1,3,-1
 400 600 l 1,0,-1
400 200 m 1,0,-1
 400 0 l 1,1,-1
 600 0 l 1,2,-1
 600 200 l 1,3,-1
 400 200 l 1,0,-1
EndSplineSet
EndChar

StartChar: plus
Encoding: 43 43 30
Width: 800
VWidth: 1200
GlyphClass: 2
Flags: W
LayerCount: 2
Fore
SplineSet
0 600 m 1,0,-1
 0 400 l 1,1,-1
 200 400 l 1,2,-1
 200 600 l 1,3,-1
 0 600 l 1,0,-1
200 800 m 1,0,-1
 200 600 l 1,1,-1
 400 600 l 1,2,-1
 400 800 l 1,3,-1
 200 800 l 1,0,-1
200 600 m 1,0,-1
 200 400 l 1,1,-1
 400 400 l 1,2,-1
 400 600 l 1,3,-1
 200 600 l 1,0,-1
200 400 m 1,0,-1
 200 200 l 1,1,-1
 400 200 l 1,2,-1
 400 400 l 1,3,-1
 200 400 l 1,0,-1
400 600 m 1,0,-1
 400 400 l 1,1,-1
 600 400 l 1,2,-1
 600 600 l 1,3,-1
 400 600 l 1,0,-1
EndSplineSet
EndChar

StartChar: comma
Encoding: 44 44 31
Width: 800
VWidth: 1200
GlyphClass: 2
Flags: W
LayerCount: 2
Fore
SplineSet
0 200 m 1,0,-1
 0 0 l 1,1,-1
 200 0 l 1,2,-1
 200 200 l 1,3,-1
 0 200 l 1,0,-1
200 400 m 1,0,-1
 200 200 l 1,1,-1
 400 200 l 1,2,-1
 400 400 l 1,3,-1
 200 400 l 1,0,-1
EndSplineSet
EndChar

StartChar: hyphen
Encoding: 45 45 32
Width: 800
VWidth: 1200
GlyphClass: 2
Flags: W
LayerCount: 2
Fore
SplineSet
0 600 m 1,0,-1
 0 400 l 1,1,-1
 200 400 l 1,2,-1
 200 600 l 1,3,-1
 0 600 l 1,0,-1
200 600 m 1,0,-1
 200 400 l 1,1,-1
 400 400 l 1,2,-1
 400 600 l 1,3,-1
 200 600 l 1,0,-1
400 600 m 1,0,-1
 400 400 l 1,1,-1
 600 400 l 1,2,-1
 600 600 l 1,3,-1
 400 600 l 1,0,-1
EndSplineSet
EndChar

StartChar: period
Encoding: 46 46 33
Width: 800
VWidth: 1200
GlyphClass: 2
Flags: W
LayerCount: 2
Fore
SplineSet
200 200 m 1,0,-1
 200 0 l 1,1,-1
 400 0 l 1,2,-1
 400 200 l 1,3,-1
 200 200 l 1,0,-1
EndSplineSet
EndChar

StartChar: slash
Encoding: 47 47 34
Width: 800
VWidth: 1200
GlyphClass: 2
Flags: W
LayerCount: 2
Fore
SplineSet
0 200 m 1,0,-1
 0 0 l 1,1,-1
 200 0 l 1,2,-1
 200 200 l 1,3,-1
 0 200 l 1,0,-1
200 800 m 1,0,-1
 200 600 l 1,1,-1
 400 600 l 1,2,-1
 400 800 l 1,3,-1
 200 800 l 1,0,-1
200 600 m 1,0,-1
 200 400 l 1,1,-1
 400 400 l 1,2,-1
 400 600 l 1,3,-1
 200 600 l 1,0,-1
200 400 m 1,0,-1
 200 200 l 1,1,-1
 400 200 l 1,2,-1
 400 400 l 1,3,-1
 200 400 l 1,0,-1
400 1000 m 1,0,-1
 400 800 l 1,1,-1
 600 800 l 1,2,-1
 600 1000 l 1,3,-1
 400 1000 l 1,0,-1
EndSplineSet
EndChar

StartChar: zero
Encoding: 48 48 35
Width: 800
VWidth: 1200
GlyphClass: 2
Flags: W
LayerCount: 2
Fore
SplineSet
0 1000 m 1,0,-1
 0 800 l 1,1,-1
 200 800 l 1,2,-1
 200 1000 l 1,3,-1
 0 1000 l 1,0,-1
0 800 m 1,0,-1
 0 600 l 1,1,-1
 200 600 l 1,2,-1
 200 800 l 1,3,-1
 0 800 l 1,0,-1
0 600 m 1,0,-1
 0 400 l 1,1,-1
 200 400 l 1,2,-1
 200 600 l 1,3,-1
 0 600 l 1,0,-1
0 400 m 1,0,-1
 0 200 l 1,1,-1
 200 200 l 1,2,-1
 200 400 l 1,3,-1
 0 400 l 1,0,-1
0 200 m 1,0,-1
 0 0 l 1,1,-1
 200 0 l 1,2,-1
 200 200 l 1,3,-1
 0 200 l 1,0,-1
200 1000 m 1,0,-1
 200 800 l 1,1,-1
 400 800 l 1,2,-1
 400 1000 l 1,3,-1
 200 1000 l 1,0,-1
200 200 m 1,0,-1
 200 0 l 1,1,-1
 400 0 l 1,2,-1
 400 200 l 1,3,-1
 200 200 l 1,0,-1
400 1000 m 1,0,-1
 400 800 l 1,1,-1
 600 800 l 1,2,-1
 600 1000 l 1,3,-1
 400 1000 l 1,0,-1
400 800 m 1,0,-1
 400 600 l 1,1,-1
 600 600 l 1,2,-1
 600 800 l 1,3,-1
 400 800 l 1,0,-1
400 600 m 1,0,-1
 400 400 l 1,1,-1
 600 400 l 1,2,-1
 600 600 l 1,3,-1
 400 600 l 1,0,-1
400 400 m 1,0,-1
 400 200 l 1,1,-1
 600 200 l 1,2,-1
 600 400 l 1,3,-1
 400 400 l 1,0,-1
400 200 m 1,0,-1
 400 0 l 1,1,-1
 600 0 l 1,2,-1
 600 200 l 1,3,-1
 400 200 l 1,0,-1
EndSplineSet
EndChar

StartChar: one
Encoding: 49 49 36
Width: 800
VWidth: 1200
GlyphClass: 2
Flags: W
LayerCount: 2
Fore
SplineSet
0 1000 m 1,0,-1
 0 800 l 1,1,-1
 200 800 l 1,2,-1
 200 1000 l 1,3,-1
 0 1000 l 1,0,-1
0 200 m 1,0,-1
 0 0 l 1,1,-1
 200 0 l 1,2,-1
 200 200 l 1,3,-1
 0 200 l 1,0,-1
200 1000 m 1,0,-1
 200 800 l 1,1,-1
 400 800 l 1,2,-1
 400 1000 l 1,3,-1
 200 1000 l 1,0,-1
200 800 m 1,0,-1
 200 600 l 1,1,-1
 400 600 l 1,2,-1
 400 800 l 1,3,-1
 200 800 l 1,0,-1
200 600 m 1,0,-1
 200 400 l 1,1,-1
 400 400 l 1,2,-1
 400 600 l 1,3,-1
 200 600 l 1,0,-1
200 400 m 1,0,-1
 200 200 l 1,1,-1
 400 200 l 1,2,-1
 400 400 l 1,3,-1
 200 400 l 1,0,-1
200 200 m 1,0,-1
 200 0 l 1,1,-1
 400 0 l 1,2,-1
 400 200 l 1,3,-1
 200 200 l 1,0,-1
400 200 m 1,0,-1
 400 0 l 1,1,-1
 600 0 l 1,2,-1
 600 200 l 1,3,-1
 400 200 l 1,0,-1
EndSplineSet
EndChar

StartChar: two
Encoding: 50 50 37
Width: 800
VWidth: 1200
GlyphClass: 2
Flags: W
LayerCount: 2
Fore
SplineSet
0 1000 m 1,0,-1
 0 800 l 1,1,-1
 200 800 l 1,2,-1
 200 1000 l 1,3,-1
 0 1000 l 1,0,-1
0 600 m 1,0,-1
 0 400 l 1,1,-1
 200 400 l 1,2,-1
 200 600 l 1,3,-1
 0 600 l 1,0,-1
0 400 m 1,0,-1
 0 200 l 1,1,-1
 200 200 l 1,2,-1
 200 400 l 1,3,-1
 0 400 l 1,0,-1
0 200 m 1,0,-1
 0 0 l 1,1,-1
 200 0 l 1,2,-1
 200 200 l 1,3,-1
 0 200 l 1,0,-1
200 1000 m 1,0,-1
 200 800 l 1,1,-1
 400 800 l 1,2,-1
 400 1000 l 1,3,-1
 200 1000 l 1,0,-1
200 600 m 1,0,-1
 200 400 l 1,1,-1
 400 400 l 1,2,-1
 400 600 l 1,3,-1
 200 600 l 1,0,-1
200 200 m 1,0,-1
 200 0 l 1,1,-1
 400 0 l 1,2,-1
 400 200 l 1,3,-1
 200 200 l 1,0,-1
400 1000 m 1,0,-1
 400 800 l 1,1,-1
 600 800 l 1,2,-1
 600 1000 l 1,3,-1
 400 1000 l 1,0,-1
400 800 m 1,0,-1
 400 600 l 1,1,-1
 600 600 l 1,2,-1
 600 800 l 1,3,-1
 400 800 l 1,0,-1
400 600 m 1,0,-1
 400 400 l 1,1,-1
 600 400 l 1,2,-1
 600 600 l 1,3,-1
 400 600 l 1,0,-1
400 200 m 1,0,-1
 400 0 l 1,1,-1
 600 0 l 1,2,-1
 600 200 l 1,3,-1
 400 200 l 1,0,-1
EndSplineSet
EndChar

StartChar: three
Encoding: 51 51 38
Width: 800
VWidth: 1200
GlyphClass: 2
Flags: W
LayerCount: 2
Fore
SplineSet
0 1000 m 1,0,-1
 0 800 l 1,1,-1
 200 800 l 1,2,-1
 200 1000 l 1,3,-1
 0 1000 l 1,0,-1
0 200 m 1,0,-1
 0 0 l 1,1,-1
 200 0 l 1,2,-1
 200 200 l 1,3,-1
 0 200 l 1,0,-1
200 1000 m 1,0,-1
 200 800 l 1,1,-1
 400 800 l 1,2,-1
 400 1000 l 1,3,-1
 200 1000 l 1,0,-1
200 600 m 1,0,-1
 200 400 l 1,1,-1
 400 400 l 1,2,-1
 400 600 l 1,3,-1
 200 600 l 1,0,-1
200 200 m 1,0,-1
 200 0 l 1,1,-1
 400 0 l 1,2,-1
 400 200 l 1,3,-1
 200 200 l 1,0,-1
400 1000 m 1,0,-1
 400 800 l 1,1,-1
 600 800 l 1,2,-1
 600 1000 l 1,3,-1
 400 1000 l 1,0,-1
400 800 m 1,0,-1
 400 600 l 1,1,-1
 600 600 l 1,2,-1
 600 800 l 1,3,-1
 400 800 l 1,0,-1
400 600 m 1,0,-1
 400 400 l 1,1,-1
 600 400 l 1,2,-1
 600 600 l 1,3,-1
 400 600 l 1,0,-1
400 400 m 1,0,-1
 400 200 l 1,1,-1
 600 200 l 1,2,-1
 600 400 l 1,3,-1
 400 400 l 1,0,-1
400 200 m 1,0,-1
 400 0 l 1,1,-1
 600 0 l 1,2,-1
 600 200 l 1,3,-1
 400 200 l 1,0,-1
EndSplineSet
EndChar

StartChar: four
Encoding: 52 52 39
Width: 800
VWidth: 1200
GlyphClass: 2
Flags: W
LayerCount: 2
Fore
SplineSet
0 1000 m 1,0,-1
 0 800 l 1,1,-1
 200 800 l 1,2,-1
 200 1000 l 1,3,-1
 0 1000 l 1,0,-1
0 800 m 1,0,-1
 0 600 l 1,1,-1
 200 600 l 1,2,-1
 200 800 l 1,3,-1
 0 800 l 1,0,-1
0 600 m 1,0,-1
 0 400 l 1,1,-1
 200 400 l 1,2,-1
 200 600 l 1,3,-1
 0 600 l 1,0,-1
200 600 m 1,0,-1
 200 400 l 1,1,-1
 400 400 l 1,2,-1
 400 600 l 1,3,-1
 200 600 l 1,0,-1
400 1000 m 1,0,-1
 400 800 l 1,1,-1
 600 800 l 1,2,-1
 600 1000 l 1,3,-1
 400 1000 l 1,0,-1
400 800 m 1,0,-1
 400 600 l 1,1,-1
 600 600 l 1,2,-1
 600 800 l 1,3,-1
 400 800 l 1,0,-1
400 600 m 1,0,-1
 400 400 l 1,1,-1
 600 400 l 1,2,-1
 600 600 l 1,3,-1
 400 600 l 1,0,-1
400 400 m 1,0,-1
 400 200 l 1,1,-1
 600 200 l 1,2,-1
 600 400 l 1,3,-1
 400 400 l 1,0,-1
400 200 m 1,0,-1
 400 0 l 1,1,-1
 600 0 l 1,2,-1
 600 200 l 1,3,-1
 400 200 l 1,0,-1
EndSplineSet
EndChar

StartChar: five
Encoding: 53 53 40
Width: 800
VWidth: 1200
GlyphClass: 2
Flags: W
LayerCount: 2
Fore
SplineSet
0 1000 m 1,0,-1
 0 800 l 1,1,-1
 200 800 l 1,2,-1
 200 1000 l 1,3,-1
 0 1000 l 1,0,-1
0 800 m 1,0,-1
 0 600 l 1,1,-1
 200 600 l 1,2,-1
 200 800 l 1,3,-1
 0 800 l 1,0,-1
0 600 m 1,0,-1
 0 400 l 1,1,-1
 200 400 l 1,2,-1
 200 600 l 1,3,-1
 0 600 l 1,0,-1
0 200 m 1,0,-1
 0 0 l 1,1,-1
 200 0 l 1,2,-1
 200 200 l 1,3,-1
 0 200 l 1,0,-1
200 1000 m 1,0,-1
 200 800 l 1,1,-1
 400 800 l 1,2,-1
 400 1000 l 1,3,-1
 200 1000 l 1,0,-1
200 600 m 1,0,-1
 200 400 l 1,1,-1
 400 400 l 1,2,-1
 400 600 l 1,3,-1
 200 600 l 1,0,-1
200 200 m 1,0,-1
 200 0 l 1,1,-1
 400 0 l 1,2,-1
 400 200 l 1,3,-1
 200 200 l 1,0,-1
400 1000 m 1,0,-1
 400 800 l 1,1,-1
 600 800 l 1,2,-1
 600 1000 l 1,3,-1
 400 1000 l 1,0,-1
400 600 m 1,0,-1
 400 400 l 1,1,-1
 600 400 l 1,2,-1
 600 600 l 1,3,-1
 400 600 l 1,0,-1
400 400 m 1,0,-1
 400 200 l 1,1,-1
 600 200 l 1,2,-1
 600 400 l 1,3,-1
 400 400 l 1,0,-1
400 200 m 1,0,-1
 400 0 l 1,1,-1
 600 0 l 1,2,-1
 600 200 l 1,3,-1
 400 200 l 1,0,-1
EndSplineSet
EndChar

StartChar: six
Encoding: 54 54 41
Width: 800
VWidth: 1200
GlyphClass: 2
Flags: W
LayerCount: 2
Fore
SplineSet
0 1000 m 1,0,-1
 0 800 l 1,1,-1
 200 800 l 1,2,-1
 200 1000 l 1,3,-1
 0 1000 l 1,0,-1
0 800 m 1,0,-1
 0 600 l 1,1,-1
 200 600 l 1,2,-1
 200 800 l 1,3,-1
 0 800 l 1,0,-1
0 600 m 1,0,-1
 0 400 l 1,1,-1
 200 400 l 1,2,-1
 200 600 l 1,3,-1
 0 600 l 1,0,-1
0 400 m 1,0,-1
 0 200 l 1,1,-1
 200 200 l 1,2,-1
 200 400 l 1,3,-1
 0 400 l 1,0,-1
0 200 m 1,0,-1
 0 0 l 1,1,-1
 200 0 l 1,2,-1
 200 200 l 1,3,-1
 0 200 l 1,0,-1
200 600 m 1,0,-1
 200 400 l 1,1,-1
 400 400 l 1,2,-1
 400 600 l 1,3,-1
 200 600 l 1,0,-1
200 200 m 1,0,-1
 200 0 l 1,1,-1
 400 0 l 1,2,-1
 400 200 l 1,3,-1
 200 200 l 1,0,-1
400 600 m 1,0,-1
 400 400 l 1,1,-1
 600 400 l 1,2,-1
 600 600 l 1,3,-1
 400 600 l 1,0,-1
400 400 m 1,0,-1
 400 200 l 1,1,-1
 600 200 l 1,2,-1
 600 400 l 1,3,-1
 400 400 l 1,0,-1
400 200 m 1,0,-1
 400 0 l 1,1,-1
 600 0 l 1,2,-1
 600 200 l 1,3,-1
 400 200 l 1,0,-1
EndSplineSet
EndChar

StartChar: seven
Encoding: 55 55 42
Width: 800
VWidth: 1200
GlyphClass: 2
Flags: W
LayerCount: 2
Fore
SplineSet
0 1000 m 1,0,-1
 0 800 l 1,1,-1
 200 800 l 1,2,-1
 200 1000 l 1,3,-1
 0 1000 l 1,0,-1
200 1000 m 1,0,-1
 200 800 l 1,1,-1
 400 800 l 1,2,-1
 400 1000 l 1,3,-1
 200 1000 l 1,0,-1
400 1000 m 1,0,-1
 400 800 l 1,1,-1
 600 800 l 1,2,-1
 600 1000 l 1,3,-1
 400 1000 l 1,0,-1
400 800 m 1,0,-1
 400 600 l 1,1,-1
 600 600 l 1,2,-1
 600 800 l 1,3,-1
 400 800 l 1,0,-1
400 600 m 1,0,-1
 400 400 l 1,1,-1
 600 400 l 1,2,-1
 600 600 l 1,3,-1
 400 600 l 1,0,-1
400 400 m 1,0,-1
 400 200 l 1,1,-1
 600 200 l 1,2,-1
 600 400 l 1,3,-1
 400 400 l 1,0,-1
400 200 m 1,0,-1
 400 0 l 1,1,-1
 600 0 l 1,2,-1
 600 200 l 1,3,-1
 400 200 l 1,0,-1
EndSplineSet
EndChar

StartChar: eight
Encoding: 56 56 43
Width: 800
VWidth: 1200
GlyphClass: 2
Flags: W
LayerCount: 2
Fore
SplineSet
0 1000 m 1,0,-1
 0 800 l 1,1,-1
 200 800 l 1,2,-1
 200 1000 l 1,3,-1
 0 1000 l 1,0,-1
0 800 m 1,0,-1
 0 600 l 1,1,-1
 200 600 l 1,2,-1
 200 800 l 1,3,-1
 0 800 l 1,0,-1
0 600 m 1,0,-1
 0 400 l 1,1,-1
 200 400 l 1,2,-1
 200 600 l 1,3,-1
 0 600 l 1,0,-1
0 400 m 1,0,-1
 0 200 l 1,1,-1
 200 200 l 1,2,-1
 200 400 l 1,3,-1
 0 400 l 1,0,-1
0 200 m 1,0,-1
 0 0 l 1,1,-1
 200 0 l 1,2,-1
 200 200 l 1,3,-1
 0 200 l 1,0,-1
200 1000 m 1,0,-1
 200 800 l 1,1,-1
 400 800 l 1,2,-1
 400 1000 l 1,3,-1
 200 1000 l 1,0,-1
200 600 m 1,0,-1
 200 400 l 1,1,-1
 400 400 l 1,2,-1
 400 600 l 1,3,-1
 200 600 l 1,0,-1
200 200 m 1,0,-1
 200 0 l 1,1,-1
 400 0 l 1,2,-1
 400 200 l 1,3,-1
 200 200 l 1,0,-1
400 1000 m 1,0,-1
 400 800 l 1,1,-1
 600 800 l 1,2,-1
 600 1000 l 1,3,-1
 400 1000 l 1,0,-1
400 800 m 1,0,-1
 400 600 l 1,1,-1
 600 600 l 1,2,-1
 600 800 l 1,3,-1
 400 800 l 1,0,-1
400 600 m 1,0,-1
 400 400 l 1,1,-1
 600 400 l 1,2,-1
 600 600 l 1,3,-1
 400 600 l 1,0,-1
400 400 m 1,0,-1
 400 200 l 1,1,-1
 600 200 l 1,2,-1
 600 400 l 1,3,-1
 400 400 l 1,0,-1
400 200 m 1,0,-1
 400 0 l 1,1,-1
 600 0 l 1,2,-1
 600 200 l 1,3,-1
 400 200 l 1,0,-1
EndSplineSet
EndChar

StartChar: nine
Encoding: 57 57 44
Width: 800
VWidth: 1200
GlyphClass: 2
Flags: W
LayerCount: 2
Fore
SplineSet
0 1000 m 1,0,-1
 0 800 l 1,1,-1
 200 800 l 1,2,-1
 200 1000 l 1,3,-1
 0 1000 l 1,0,-1
0 800 m 1,0,-1
 0 600 l 1,1,-1
 200 600 l 1,2,-1
 200 800 l 1,3,-1
 0 800 l 1,0,-1
0 600 m 1,0,-1
 0 400 l 1,1,-1
 200 400 l 1,2,-1
 200 600 l 1,3,-1
 0 600 l 1,0,-1
200 1000 m 1,0,-1
 200 800 l 1,1,-1
 400 800 l 1,2,-1
 400 1000 l 1,3,-1
 200 1000 l 1,0,-1
200 600 m 1,0,-1
 200 400 l 1,1,-1
 400 400 l 1,2,-1
 400 600 l 1,3,-1
 200 600 l 1,0,-1
400 1000 m 1,0,-1
 400 800 l 1,1,-1
 600 800 l 1,2,-1
 600 1000 l 1,3,-1
 400 1000 l 1,0,-1
400 800 m 1,0,-1
 400 600 l 1,1,-1
 600 600 l 1,2,-1
 600 800 l 1,3,-1
 400 800 l 1,0,-1
400 600 m 1,0,-1
 400 400 l 1,1,-1
 600 400 l 1,2,-1
 600 600 l 1,3,-1
 400 600 l 1,0,-1
400 400 m 1,0,-1
 400 200 l 1,1,-1
 600 200 l 1,2,-1
 600 400 l 1,3,-1
 400 400 l 1,0,-1
400 200 m 1,0,-1
 400 0 l 1,1,-1
 600 0 l 1,2,-1
 600 200 l 1,3,-1
 400 200 l 1,0,-1
EndSplineSet
EndChar

StartChar: colon
Encoding: 58 58 45
Width: 800
VWidth: 1200
GlyphClass: 2
Flags: W
LayerCount: 2
Fore
SplineSet
200 800 m 1,0,-1
 200 600 l 1,1,-1
 400 600 l 1,2,-1
 400 800 l 1,3,-1
 200 800 l 1,0,-1
200 400 m 1,0,-1
 200 200 l 1,1,-1
 400 200 l 1,2,-1
 400 400 l 1,3,-1
 200 400 l 1,0,-1
EndSplineSet
EndChar

StartChar: semicolon
Encoding: 59 59 46
Width: 800
VWidth: 1200
GlyphClass: 2
Flags: W
LayerCount: 2
Fore
SplineSet
0 200 m 1,0,-1
 0 0 l 1,1,-1
 200 0 l 1,2,-1
 200 200 l 1,3,-1
 0 200 l 1,0,-1
200 800 m 1,0,-1
 200 600 l 1,1,-1
 400 600 l 1,2,-1
 400 800 l 1,3,-1
 200 800 l 1,0,-1
200 400 m 1,0,-1
 200 200 l 1,1,-1
 400 200 l 1,2,-1
 400 400 l 1,3,-1
 200 400 l 1,0,-1
EndSplineSet
EndChar

StartChar: less
Encoding: 60 60 47
Width: 800
VWidth: 1200
GlyphClass: 2
Flags: W
LayerCount: 2
Fore
SplineSet
0 600 m 1,0,-1
 0 400 l 1,1,-1
 200 400 l 1,2,-1
 200 600 l 1,3,-1
 0 600 l 1,0,-1
200 800 m 1,0,-1
 200 600 l 1,1,-1
 400 600 l 1,2,-1
 400 800 l 1,3,-1
 200 800 l 1,0,-1
200 400 m 1,0,-1
 200 200 l 1,1,-1
 400 200 l 1,2,-1
 400 400 l 1,3,-1
 200 400 l 1,0,-1
400 1000 m 1,0,-1
 400 800 l 1,1,-1
 600 800 l 1,2,-1
 600 1000 l 1,3,-1
 400 1000 l 1,0,-1
400 200 m 1,0,-1
 400 0 l 1,1,-1
 600 0 l 1,2,-1
 600 200 l 1,3,-1
 400 200 l 1,0,-1
EndSplineSet
EndChar

StartChar: equal
Encoding: 61 61 48
Width: 800
VWidth: 1200
GlyphClass: 2
Flags: W
LayerCount: 2
Fore
SplineSet
0 800 m 1,0,-1
 0 600 l 1,1,-1
 200 600 l 1,2,-1
 200 800 l 1,3,-1
 0 800 l 1,0,-1
0 400 m 1,0,-1
 0 200 l 1,1,-1
 200 200 l 1,2,-1
 200 400 l 1,3,-1
 0 400 l 1,0,-1
200 800 m 1,0,-1
 200 600 l 1,1,-1
 400 600 l 1,2,-1
 400 800 l 1,3,-1
 200 800 l 1,0,-1
200 400 m 1,0,-1
 200 200 l 1,1,-1
 400 200 l 1,2,-1
 400 400 l 1,3,-1
 200 400 l 1,0,-1
400 800 m 1,0,-1
 400 600 l 1,1,-1
 600 600 l 1,2,-1
 600 800 l 1,3,-1
 400 800 l 1,0,-1
400 400 m 1,0,-1
 400 200 l 1,1,-1
 600 200 l 1,2,-1
 600 400 l 1,3,-1
 400 400 l 1,0,-1
EndSplineSet
EndChar

StartChar: greater
Encoding: 62 62 49
Width: 800
VWidth: 1200
GlyphClass: 2
Flags: W
LayerCount: 2
Fore
SplineSet
0 1000 m 1,0,-1
 0 800 l 1,1,-1
 200 800 l 1,2,-1
 200 1000 l 1,3,-1
 0 1000 l 1,0,-1
0 200 m 1,0,-1
 0 0 l 1,1,-1
 200 0 l 1,2,-1
 200 200 l 1,3,-1
 0 200 l 1,0,-1
200 800 m 1,0,-1
 200 600 l 1,1,-1
 400 600 l 1,2,-1
 400 800 l 1,3,-1
 200 800 l 1,0,-1
200 400 m 1,0,-1
 200 200 l 1,1,-1
 400 200 l 1,2,-1
 400 400 l 1,3,-1
 200 400 l 1,0,-1
400 600 m 1,0,-1
 400 400 l 1,1,-1
 600 400 l 1,2,-1
 600 600 l 1,3,-1
 400 600 l 1,0,-1
EndSplineSet
EndChar

StartChar: question
Encoding: 63 63 50
Width: 800
VWidth: 1200
GlyphClass: 2
Flags: W
LayerCount: 2
Fore
SplineSet
0 1000 m 1,0,-1
 0 800 l 1,1,-1
 200 800 l 1,2,-1
 200 1000 l 1,3,-1
 0 1000 l 1,0,-1
200 1000 m 1,0,-1
 200 800 l 1,1,-1
 400 800 l 1,2,-1
 400 1000 l 1,3,-1
 200 1000 l 1,0,-1
200 600 m 1,0,-1
 200 400 l 1,1,-1
 400 400 l 1,2,-1
 400 600 l 1,3,-1
 200 600 l 1,0,-1
200 200 m 1,0,-1
 200 0 l 1,1,-1
 400 0 l 1,2,-1
 400 200 l 1,3,-1
 200 200 l 1,0,-1
400 1000 m 1,0,-1
 400 800 l 1,1,-1
 600 800 l 1,2,-1
 600 1000 l 1,3,-1
 400 1000 l 1,0,-1
400 800 m 1,0,-1
 400 600 l 1,1,-1
 600 600 l 1,2,-1
 600 800 l 1,3,-1
 400 800 l 1,0,-1
400 600 m 1,0,-1
 400 400 l 1,1,-1
 600 400 l 1,2,-1
 600 600 l 1,3,-1
 400 600 l 1,0,-1
EndSplineSet
EndChar

StartChar: at
Encoding: 64 64 51
Width: 800
VWidth: 1200
GlyphClass: 2
Flags: W
LayerCount: 2
Fore
SplineSet
0 800 m 1,0,-1
 0 600 l 1,1,-1
 200 600 l 1,2,-1
 200 800 l 1,3,-1
 0 800 l 1,0,-1
0 600 m 1,0,-1
 0 400 l 1,1,-1
 200 400 l 1,2,-1
 200 600 l 1,3,-1
 0 600 l 1,0,-1
0 400 m 1,0,-1
 0 200 l 1,1,-1
 200 200 l 1,2,-1
 200 400 l 1,3,-1
 0 400 l 1,0,-1
200 1000 m 1,0,-1
 200 800 l 1,1,-1
 400 800 l 1,2,-1
 400 1000 l 1,3,-1
 200 1000 l 1,0,-1
200 200 m 1,0,-1
 200 0 l 1,1,-1
 400 0 l 1,2,-1
 400 200 l 1,3,-1
 200 200 l 1,0,-1
400 800 m 1,0,-1
 400 600 l 1,1,-1
 600 600 l 1,2,-1
 600 800 l 1,3,-1
 400 800 l 1,0,-1
400 600 m 1,0,-1
 400 400 l 1,1,-1
 600 400 l 1,2,-1
 600 600 l 1,3,-1
 400 600 l 1,0,-1
400 200 m 1,0,-1
 400 0 l 1,1,-1
 600 0 l 1,2,-1
 600 200 l 1,3,-1
 400 200 l 1,0,-1
EndSplineSet
EndChar

StartChar: u0041
Encoding: 65 65 52
Width: 800
VWidth: 1200
GlyphClass: 2
Flags: W
LayerCount: 2
Fore
SplineSet
0 800 m 1,0,-1
 0 600 l 1,1,-1
 200 600 l 1,2,-1
 200 800 l 1,3,-1
 0 800 l 1,0,-1
0 600 m 1,0,-1
 0 400 l 1,1,-1
 200 400 l 1,2,-1
 200 600 l 1,3,-1
 0 600 l 1,0,-1
0 400 m 1,0,-1
 0 200 l 1,1,-1
 200 200 l 1,2,-1
 200 400 l 1,3,-1
 0 400 l 1,0,-1
0 200 m 1,0,-1
 0 0 l 1,1,-1
 200 0 l 1,2,-1
 200 200 l 1,3,-1
 0 200 l 1,0,-1
200 800 m 1,0,-1
 200 600 l 1,1,-1
 400 600 l 1,2,-1
 400 800 l 1,3,-1
 200 800 l 1,0,-1
200 400 m 1,0,-1
 200 200 l 1,1,-1
 400 200 l 1,2,-1
 400 400 l 1,3,-1
 200 400 l 1,0,-1
400 800 m 1,0,-1
 400 600 l 1,1,-1
 600 600 l 1,2,-1
 600 800 l 1,3,-1
 400 800 l 1,0,-1
400 600 m 1,0,-1
 400 400 l 1,1,-1
 600 400 l 1,2,-1
 600 600 l 1,3,-1
 400 600 l 1,0,-1
400 400 m 1,0,-1
 400 200 l 1,1,-1
 600 200 l 1,2,-1
 600 400 l 1,3,-1
 400 400 l 1,0,-1
400 200 m 1,0,-1
 400 0 l 1,1,-1
 600 0 l 1,2,-1
 600 200 l 1,3,-1
 400 200 l 1,0,-1
EndSplineSet
EndChar

StartChar: u0042
Encoding: 66 66 53
Width: 800
VWidth: 1200
GlyphClass: 2
Flags: W
LayerCount: 2
Fore
SplineSet
0 800 m 1,0,-1
 0 600 l 1,1,-1
 200 600 l 1,2,-1
 200 800 l 1,3,-1
 0 800 l 1,0,-1
0 600 m 1,0,-1
 0 400 l 1,1,-1
 200 400 l 1,2,-1
 200 600 l 1,3,-1
 0 600 l 1,0,-1
0 400 m 1,0,-1
 0 200 l 1,1,-1
 200 200 l 1,2,-1
 200 400 l 1,3,-1
 0 400 l 1,0,-1
0 200 m 1,0,-1
 0 0 l 1,1,-1
 200 0 l 1,2,-1
 200 200 l 1,3,-1
 0 200 l 1,0,-1
200 800 m 1,0,-1
 200 600 l 1,1,-1
 400 600 l 1,2,-1
 400 800 l 1,3,-1
 200 800 l 1,0,-1
200 600 m 1,0,-1
 200 400 l 1,1,-1
 400 400 l 1,2,-1
 400 600 l 1,3,-1
 200 600 l 1,0,-1
200 200 m 1,0,-1
 200 0 l 1,1,-1
 400 0 l 1,2,-1
 400 200 l 1,3,-1
 200 200 l 1,0,-1
400 400 m 1,0,-1
 400 200 l 1,1,-1
 600 200 l 1,2,-1
 600 400 l 1,3,-1
 400 400 l 1,0,-1
400 200 m 1,0,-1
 400 0 l 1,1,-1
 600 0 l 1,2,-1
 600 200 l 1,3,-1
 400 200 l 1,0,-1
EndSplineSet
EndChar

StartChar: u0043
Encoding: 67 67 54
Width: 800
VWidth: 1200
GlyphClass: 2
Flags: W
LayerCount: 2
Fore
SplineSet
0 800 m 1,0,-1
 0 600 l 1,1,-1
 200 600 l 1,2,-1
 200 800 l 1,3,-1
 0 800 l 1,0,-1
0 600 m 1,0,-1
 0 400 l 1,1,-1
 200 400 l 1,2,-1
 200 600 l 1,3,-1
 0 600 l 1,0,-1
0 400 m 1,0,-1
 0 200 l 1,1,-1
 200 200 l 1,2,-1
 200 400 l 1,3,-1
 0 400 l 1,0,-1
0 200 m 1,0,-1
 0 0 l 1,1,-1
 200 0 l 1,2,-1
 200 200 l 1,3,-1
 0 200 l 1,0,-1
200 800 m 1,0,-1
 200 600 l 1,1,-1
 400 600 l 1,2,-1
 400 800 l 1,3,-1
 200 800 l 1,0,-1
200 200 m 1,0,-1
 200 0 l 1,1,-1
 400 0 l 1,2,-1
 400 200 l 1,3,-1
 200 200 l 1,0,-1
400 800 m 1,0,-1
 400 600 l 1,1,-1
 600 600 l 1,2,-1
 600 800 l 1,3,-1
 400 800 l 1,0,-1
400 200 m 1,0,-1
 400 0 l 1,1,-1
 600 0 l 1,2,-1
 600 200 l 1,3,-1
 400 200 l 1,0,-1
EndSplineSet
EndChar

StartChar: u0044
Encoding: 68 68 55
Width: 800
VWidth: 1200
GlyphClass: 2
Flags: W
LayerCount: 2
Fore
SplineSet
0 800 m 1,0,-1
 0 600 l 1,1,-1
 200 600 l 1,2,-1
 200 800 l 1,3,-1
 0 800 l 1,0,-1
0 600 m 1,0,-1
 0 400 l 1,1,-1
 200 400 l 1,2,-1
 200 600 l 1,3,-1
 0 600 l 1,0,-1
0 400 m 1,0,-1
 0 200 l 1,1,-1
 200 200 l 1,2,-1
 200 400 l 1,3,-1
 0 400 l 1,0,-1
0 200 m 1,0,-1
 0 0 l 1,1,-1
 200 0 l 1,2,-1
 200 200 l 1,3,-1
 0 200 l 1,0,-1
200 800 m 1,0,-1
 200 600 l 1,1,-1
 400 600 l 1,2,-1
 400 800 l 1,3,-1
 200 800 l 1,0,-1
200 200 m 1,0,-1
 200 0 l 1,1,-1
 400 0 l 1,2,-1
 400 200 l 1,3,-1
 200 200 l 1,0,-1
400 600 m 1,0,-1
 400 400 l 1,1,-1
 600 400 l 1,2,-1
 600 600 l 1,3,-1
 400 600 l 1,0,-1
400 400 m 1,0,-1
 400 200 l 1,1,-1
 600 200 l 1,2,-1
 600 400 l 1,3,-1
 400 400 l 1,0,-1
EndSplineSet
EndChar

StartChar: u0045
Encoding: 69 69 56
Width: 800
VWidth: 1200
GlyphClass: 2
Flags: W
LayerCount: 2
Fore
SplineSet
0 800 m 1,0,-1
 0 600 l 1,1,-1
 200 600 l 1,2,-1
 200 800 l 1,3,-1
 0 800 l 1,0,-1
0 600 m 1,0,-1
 0 400 l 1,1,-1
 200 400 l 1,2,-1
 200 600 l 1,3,-1
 0 600 l 1,0,-1
0 400 m 1,0,-1
 0 200 l 1,1,-1
 200 200 l 1,2,-1
 200 400 l 1,3,-1
 0 400 l 1,0,-1
0 200 m 1,0,-1
 0 0 l 1,1,-1
 200 0 l 1,2,-1
 200 200 l 1,3,-1
 0 200 l 1,0,-1
200 800 m 1,0,-1
 200 600 l 1,1,-1
 400 600 l 1,2,-1
 400 800 l 1,3,-1
 200 800 l 1,0,-1
200 600 m 1,0,-1
 200 400 l 1,1,-1
 400 400 l 1,2,-1
 400 600 l 1,3,-1
 200 600 l 1,0,-1
200 200 m 1,0,-1
 200 0 l 1,1,-1
 400 0 l 1,2,-1
 400 200 l 1,3,-1
 200 200 l 1,0,-1
400 800 m 1,0,-1
 400 600 l 1,1,-1
 600 600 l 1,2,-1
 600 800 l 1,3,-1
 400 800 l 1,0,-1
400 200 m 1,0,-1
 400 0 l 1,1,-1
 600 0 l 1,2,-1
 600 200 l 1,3,-1
 400 200 l 1,0,-1
EndSplineSet
EndChar

StartChar: u0046
Encoding: 70 70 57
Width: 800
VWidth: 1200
GlyphClass: 2
Flags: W
LayerCount: 2
Fore
SplineSet
0 800 m 1,0,-1
 0 600 l 1,1,-1
 200 600 l 1,2,-1
 200 800 l 1,3,-1
 0 800 l 1,0,-1
0 600 m 1,0,-1
 0 400 l 1,1,-1
 200 400 l 1,2,-1
 200 600 l 1,3,-1
 0 600 l 1,0,-1
0 400 m 1,0,-1
 0 200 l 1,1,-1
 200 200 l 1,2,-1
 200 400 l 1,3,-1
 0 400 l 1,0,-1
0 200 m 1,0,-1
 0 0 l 1,1,-1
 200 0 l 1,2,-1
 200 200 l 1,3,-1
 0 200 l 1,0,-1
200 800 m 1,0,-1
 200 600 l 1,1,-1
 400 600 l 1,2,-1
 400 800 l 1,3,-1
 200 800 l 1,0,-1
200 600 m 1,0,-1
 200 400 l 1,1,-1
 400 400 l 1,2,-1
 400 600 l 1,3,-1
 200 600 l 1,0,-1
400 800 m 1,0,-1
 400 600 l 1,1,-1
 600 600 l 1,2,-1
 600 800 l 1,3,-1
 400 800 l 1,0,-1
EndSplineSet
EndChar

StartChar: u0047
Encoding: 71 71 58
Width: 800
VWidth: 1200
GlyphClass: 2
Flags: W
LayerCount: 2
Fore
SplineSet
0 800 m 1,0,-1
 0 600 l 1,1,-1
 200 600 l 1,2,-1
 200 800 l 1,3,-1
 0 800 l 1,0,-1
0 600 m 1,0,-1
 0 400 l 1,1,-1
 200 400 l 1,2,-1
 200 600 l 1,3,-1
 0 600 l 1,0,-1
0 400 m 1,0,-1
 0 200 l 1,1,-1
 200 200 l 1,2,-1
 200 400 l 1,3,-1
 0 400 l 1,0,-1
0 200 m 1,0,-1
 0 0 l 1,1,-1
 200 0 l 1,2,-1
 200 200 l 1,3,-1
 0 200 l 1,0,-1
200 800 m 1,0,-1
 200 600 l 1,1,-1
 400 600 l 1,2,-1
 400 800 l 1,3,-1
 200 800 l 1,0,-1
200 200 m 1,0,-1
 200 0 l 1,1,-1
 400 0 l 1,2,-1
 400 200 l 1,3,-1
 200 200 l 1,0,-1
400 800 m 1,0,-1
 400 600 l 1,1,-1
 600 600 l 1,2,-1
 600 800 l 1,3,-1
 400 800 l 1,0,-1
400 400 m 1,0,-1
 400 200 l 1,1,-1
 600 200 l 1,2,-1
 600 400 l 1,3,-1
 400 400 l 1,0,-1
400 200 m 1,0,-1
 400 0 l 1,1,-1
 600 0 l 1,2,-1
 600 200 l 1,3,-1
 400 200 l 1,0,-1
EndSplineSet
EndChar

StartChar: u0048
Encoding: 72 72 59
Width: 800
VWidth: 1200
GlyphClass: 2
Flags: W
LayerCount: 2
Fore
SplineSet
0 800 m 1,0,-1
 0 600 l 1,1,-1
 200 600 l 1,2,-1
 200 800 l 1,3,-1
 0 800 l 1,0,-1
0 600 m 1,0,-1
 0 400 l 1,1,-1
 200 400 l 1,2,-1
 200 600 l 1,3,-1
 0 600 l 1,0,-1
0 400 m 1,0,-1
 0 200 l 1,1,-1
 200 200 l 1,2,-1
 200 400 l 1,3,-1
 0 400 l 1,0,-1
0 200 m 1,0,-1
 0 0 l 1,1,-1
 200 0 l 1,2,-1
 200 200 l 1,3,-1
 0 200 l 1,0,-1
200 400 m 1,0,-1
 200 200 l 1,1,-1
 400 200 l 1,2,-1
 400 400 l 1,3,-1
 200 400 l 1,0,-1
400 800 m 1,0,-1
 400 600 l 1,1,-1
 600 600 l 1,2,-1
 600 800 l 1,3,-1
 400 800 l 1,0,-1
400 600 m 1,0,-1
 400 400 l 1,1,-1
 600 400 l 1,2,-1
 600 600 l 1,3,-1
 400 600 l 1,0,-1
400 400 m 1,0,-1
 400 200 l 1,1,-1
 600 200 l 1,2,-1
 600 400 l 1,3,-1
 400 400 l 1,0,-1
400 200 m 1,0,-1
 400 0 l 1,1,-1
 600 0 l 1,2,-1
 600 200 l 1,3,-1
 400 200 l 1,0,-1
EndSplineSet
EndChar

StartChar: u0049
Encoding: 73 73 60
Width: 800
VWidth: 1200
GlyphClass: 2
Flags: W
LayerCount: 2
Fore
SplineSet
0 800 m 1,0,-1
 0 600 l 1,1,-1
 200 600 l 1,2,-1
 200 800 l 1,3,-1
 0 800 l 1,0,-1
0 200 m 1,0,-1
 0 0 l 1,1,-1
 200 0 l 1,2,-1
 200 200 l 1,3,-1
 0 200 l 1,0,-1
200 800 m 1,0,-1
 200 600 l 1,1,-1
 400 600 l 1,2,-1
 400 800 l 1,3,-1
 200 800 l 1,0,-1
200 600 m 1,0,-1
 200 400 l 1,1,-1
 400 400 l 1,2,-1
 400 600 l 1,3,-1
 200 600 l 1,0,-1
200 400 m 1,0,-1
 200 200 l 1,1,-1
 400 200 l 1,2,-1
 400 400 l 1,3,-1
 200 400 l 1,0,-1
200 200 m 1,0,-1
 200 0 l 1,1,-1
 400 0 l 1,2,-1
 400 200 l 1,3,-1
 200 200 l 1,0,-1
400 800 m 1,0,-1
 400 600 l 1,1,-1
 600 600 l 1,2,-1
 600 800 l 1,3,-1
 400 800 l 1,0,-1
400 200 m 1,0,-1
 400 0 l 1,1,-1
 600 0 l 1,2,-1
 600 200 l 1,3,-1
 400 200 l 1,0,-1
EndSplineSet
EndChar

StartChar: u004a
Encoding: 74 74 61
Width: 800
VWidth: 1200
GlyphClass: 2
Flags: W
LayerCount: 2
Fore
SplineSet
0 800 m 1,0,-1
 0 600 l 1,1,-1
 200 600 l 1,2,-1
 200 800 l 1,3,-1
 0 800 l 1,0,-1
0 200 m 1,0,-1
 0 0 l 1,1,-1
 200 0 l 1,2,-1
 200 200 l 1,3,-1
 0 200 l 1,0,-1
200 800 m 1,0,-1
 200 600 l 1,1,-1
 400 600 l 1,2,-1
 400 800 l 1,3,-1
 200 800 l 1,0,-1
200 600 m 1,0,-1
 200 400 l 1,1,-1
 400 400 l 1,2,-1
 400 600 l 1,3,-1
 200 600 l 1,0,-1
200 400 m 1,0,-1
 200 200 l 1,1,-1
 400 200 l 1,2,-1
 400 400 l 1,3,-1
 200 400 l 1,0,-1
200 200 m 1,0,-1
 200 0 l 1,1,-1
 400 0 l 1,2,-1
 400 200 l 1,3,-1
 200 200 l 1,0,-1
400 800 m 1,0,-1
 400 600 l 1,1,-1
 600 600 l 1,2,-1
 600 800 l 1,3,-1
 400 800 l 1,0,-1
EndSplineSet
EndChar

StartChar: u004b
Encoding: 75 75 62
Width: 800
VWidth: 1200
GlyphClass: 2
Flags: W
LayerCount: 2
Fore
SplineSet
0 800 m 1,0,-1
 0 600 l 1,1,-1
 200 600 l 1,2,-1
 200 800 l 1,3,-1
 0 800 l 1,0,-1
0 600 m 1,0,-1
 0 400 l 1,1,-1
 200 400 l 1,2,-1
 200 600 l 1,3,-1
 0 600 l 1,0,-1
0 400 m 1,0,-1
 0 200 l 1,1,-1
 200 200 l 1,2,-1
 200 400 l 1,3,-1
 0 400 l 1,0,-1
0 200 m 1,0,-1
 0 0 l 1,1,-1
 200 0 l 1,2,-1
 200 200 l 1,3,-1
 0 200 l 1,0,-1
200 600 m 1,0,-1
 200 400 l 1,1,-1
 400 400 l 1,2,-1
 400 600 l 1,3,-1
 200 600 l 1,0,-1
400 800 m 1,0,-1
 400 600 l 1,1,-1
 600 600 l 1,2,-1
 600 800 l 1,3,-1
 400 800 l 1,0,-1
400 400 m 1,0,-1
 400 200 l 1,1,-1
 600 200 l 1,2,-1
 600 400 l 1,3,-1
 400 400 l 1,0,-1
400 200 m 1,0,-1
 400 0 l 1,1,-1
 600 0 l 1,2,-1
 600 200 l 1,3,-1
 400 200 l 1,0,-1
EndSplineSet
EndChar

StartChar: u004c
Encoding: 76 76 63
Width: 800
VWidth: 1200
GlyphClass: 2
Flags: W
LayerCount: 2
Fore
SplineSet
0 800 m 1,0,-1
 0 600 l 1,1,-1
 200 600 l 1,2,-1
 200 800 l 1,3,-1
 0 800 l 1,0,-1
0 600 m 1,0,-1
 0 400 l 1,1,-1
 200 400 l 1,2,-1
 200 600 l 1,3,-1
 0 600 l 1,0,-1
0 400 m 1,0,-1
 0 200 l 1,1,-1
 200 200 l 1,2,-1
 200 400 l 1,3,-1
 0 400 l 1,0,-1
0 200 m 1,0,-1
 0 0 l 1,1,-1
 200 0 l 1,2,-1
 200 200 l 1,3,-1
 0 200 l 1,0,-1
200 200 m 1,0,-1
 200 0 l 1,1,-1
 400 0 l 1,2,-1
 400 200 l 1,3,-1
 200 200 l 1,0,-1
400 200 m 1,0,-1
 400 0 l 1,1,-1
 600 0 l 1,2,-1
 600 200 l 1,3,-1
 400 200 l 1,0,-1
EndSplineSet
EndChar

StartChar: u004d
Encoding: 77 77 64
Width: 800
VWidth: 1200
GlyphClass: 2
Flags: W
LayerCount: 2
Fore
SplineSet
0 800 m 1,0,-1
 0 600 l 1,1,-1
 200 600 l 1,2,-1
 200 800 l 1,3,-1
 0 800 l 1,0,-1
0 600 m 1,0,-1
 0 400 l 1,1,-1
 200 400 l 1,2,-1
 200 600 l 1,3,-1
 0 600 l 1,0,-1
0 400 m 1,0,-1
 0 200 l 1,1,-1
 200 200 l 1,2,-1
 200 400 l 1,3,-1
 0 400 l 1,0,-1
0 200 m 1,0,-1
 0 0 l 1,1,-1
 200 0 l 1,2,-1
 200 200 l 1,3,-1
 0 200 l 1,0,-1
200 800 m 1,0,-1
 200 600 l 1,1,-1
 400 600 l 1,2,-1
 400 800 l 1,3,-1
 200 800 l 1,0,-1
200 600 m 1,0,-1
 200 400 l 1,1,-1
 400 400 l 1,2,-1
 400 600 l 1,3,-1
 200 600 l 1,0,-1
400 800 m 1,0,-1
 400 600 l 1,1,-1
 600 600 l 1,2,-1
 600 800 l 1,3,-1
 400 800 l 1,0,-1
400 600 m 1,0,-1
 400 400 l 1,1,-1
 600 400 l 1,2,-1
 600 600 l 1,3,-1
 400 600 l 1,0,-1
400 400 m 1,0,-1
 400 200 l 1,1,-1
 600 200 l 1,2,-1
 600 400 l 1,3,-1
 400 400 l 1,0,-1
400 200 m 1,0,-1
 400 0 l 1,1,-1
 600 0 l 1,2,-1
 600 200 l 1,3,-1
 400 200 l 1,0,-1
EndSplineSet
EndChar

StartChar: u004e
Encoding: 78 78 65
Width: 800
VWidth: 1200
GlyphClass: 2
Flags: W
LayerCount: 2
Fore
SplineSet
0 800 m 1,0,-1
 0 600 l 1,1,-1
 200 600 l 1,2,-1
 200 800 l 1,3,-1
 0 800 l 1,0,-1
0 600 m 1,0,-1
 0 400 l 1,1,-1
 200 400 l 1,2,-1
 200 600 l 1,3,-1
 0 600 l 1,0,-1
0 400 m 1,0,-1
 0 200 l 1,1,-1
 200 200 l 1,2,-1
 200 400 l 1,3,-1
 0 400 l 1,0,-1
0 200 m 1,0,-1
 0 0 l 1,1,-1
 200 0 l 1,2,-1
 200 200 l 1,3,-1
 0 200 l 1,0,-1
200 800 m 1,0,-1
 200 600 l 1,1,-1
 400 600 l 1,2,-1
 400 800 l 1,3,-1
 200 800 l 1,0,-1
400 600 m 1,0,-1
 400 400 l 1,1,-1
 600 400 l 1,2,-1
 600 600 l 1,3,-1
 400 600 l 1,0,-1
400 400 m 1,0,-1
 400 200 l 1,1,-1
 600 200 l 1,2,-1
 600 400 l 1,3,-1
 400 400 l 1,0,-1
400 200 m 1,0,-1
 400 0 l 1,1,-1
 600 0 l 1,2,-1
 600 200 l 1,3,-1
 400 200 l 1,0,-1
EndSplineSet
EndChar

StartChar: u004f
Encoding: 79 79 66
Width: 800
VWidth: 1200
GlyphClass: 2
Flags: W
LayerCount: 2
Fore
SplineSet
0 600 m 1,0,-1
 0 400 l 1,1,-1
 200 400 l 1,2,-1
 200 600 l 1,3,-1
 0 600 l 1,0,-1
0 400 m 1,0,-1
 0 200 l 1,1,-1
 200 200 l 1,2,-1
 200 400 l 1,3,-1
 0 400 l 1,0,-1
0 200 m 1,0,-1
 0 0 l 1,1,-1
 200 0 l 1,2,-1
 200 200 l 1,3,-1
 0 200 l 1,0,-1
200 800 m 1,0,-1
 200 600 l 1,1,-1
 400 600 l 1,2,-1
 400 800 l 1,3,-1
 200 800 l 1,0,-1
200 200 m 1,0,-1
 200 0 l 1,1,-1
 400 0 l 1,2,-1
 400 200 l 1,3,-1
 200 200 l 1,0,-1
400 800 m 1,0,-1
 400 600 l 1,1,-1
 600 600 l 1,2,-1
 600 800 l 1,3,-1
 400 800 l 1,0,-1
400 600 m 1,0,-1
 400 400 l 1,1,-1
 600 400 l 1,2,-1
 600 600 l 1,3,-1
 400 600 l 1,0,-1
400 400 m 1,0,-1
 400 200 l 1,1,-1
 600 200 l 1,2,-1
 600 400 l 1,3,-1
 400 400 l 1,0,-1
EndSplineSet
EndChar

StartChar: u0050
Encoding: 80 80 67
Width: 800
VWidth: 1200
GlyphClass: 2
Flags: W
LayerCount: 2
Fore
SplineSet
0 800 m 1,0,-1
 0 600 l 1,1,-1
 200 600 l 1,2,-1
 200 800 l 1,3,-1
 0 800 l 1,0,-1
0 600 m 1,0,-1
 0 400 l 1,1,-1
 200 400 l 1,2,-1
 200 600 l 1,3,-1
 0 600 l 1,0,-1
0 400 m 1,0,-1
 0 200 l 1,1,-1
 200 200 l 1,2,-1
 200 400 l 1,3,-1
 0 400 l 1,0,-1
0 200 m 1,0,-1
 0 0 l 1,1,-1
 200 0 l 1,2,-1
 200 200 l 1,3,-1
 0 200 l 1,0,-1
200 800 m 1,0,-1
 200 600 l 1,1,-1
 400 600 l 1,2,-1
 400 800 l 1,3,-1
 200 800 l 1,0,-1
200 400 m 1,0,-1
 200 200 l 1,1,-1
 400 200 l 1,2,-1
 400 400 l 1,3,-1
 200 400 l 1,0,-1
400 800 m 1,0,-1
 400 600 l 1,1,-1
 600 600 l 1,2,-1
 600 800 l 1,3,-1
 400 800 l 1,0,-1
400 600 m 1,0,-1
 400 400 l 1,1,-1
 600 400 l 1,2,-1
 600 600 l 1,3,-1
 400 600 l 1,0,-1
400 400 m 1,0,-1
 400 200 l 1,1,-1
 600 200 l 1,2,-1
 600 400 l 1,3,-1
 400 400 l 1,0,-1
EndSplineSet
EndChar

StartChar: u0051
Encoding: 81 81 68
Width: 800
VWidth: 1200
GlyphClass: 2
Flags: W
LayerCount: 2
Fore
SplineSet
0 600 m 1,0,-1
 0 400 l 1,1,-1
 200 400 l 1,2,-1
 200 600 l 1,3,-1
 0 600 l 1,0,-1
0 400 m 1,0,-1
 0 200 l 1,1,-1
 200 200 l 1,2,-1
 200 400 l 1,3,-1
 0 400 l 1,0,-1
200 800 m 1,0,-1
 200 600 l 1,1,-1
 400 600 l 1,2,-1
 400 800 l 1,3,-1
 200 800 l 1,0,-1
200 400 m 1,0,-1
 200 200 l 1,1,-1
 400 200 l 1,2,-1
 400 400 l 1,3,-1
 200 400 l 1,0,-1
200 200 m 1,0,-1
 200 0 l 1,1,-1
 400 0 l 1,2,-1
 400 200 l 1,3,-1
 200 200 l 1,0,-1
400 600 m 1,0,-1
 400 400 l 1,1,-1
 600 400 l 1,2,-1
 600 600 l 1,3,-1
 400 600 l 1,0,-1
400 200 m 1,0,-1
 400 0 l 1,1,-1
 600 0 l 1,2,-1
 600 200 l 1,3,-1
 400 200 l 1,0,-1
EndSplineSet
EndChar

StartChar: u0052
Encoding: 82 82 69
Width: 800
VWidth: 1200
GlyphClass: 2
Flags: W
LayerCount: 2
Fore
SplineSet
0 800 m 1,0,-1
 0 600 l 1,1,-1
 200 600 l 1,2,-1
 200 800 l 1,3,-1
 0 800 l 1,0,-1
0 600 m 1,0,-1
 0 400 l 1,1,-1
 200 400 l 1,2,-1
 200 600 l 1,3,-1
 0 600 l 1,0,-1
0 400 m 1,0,-1
 0 200 l 1,1,-1
 200 200 l 1,2,-1
 200 400 l 1,3,-1
 0 400 l 1,0,-1
0 200 m 1,0,-1
 0 0 l 1,1,-1
 200 0 l 1,2,-1
 200 200 l 1,3,-1
 0 200 l 1,0,-1
200 800 m 1,0,-1
 200 600 l 1,1,-1
 400 600 l 1,2,-1
 400 800 l 1,3,-1
 200 800 l 1,0,-1
200 400 m 1,0,-1
 200 200 l 1,1,-1
 400 200 l 1,2,-1
 400 400 l 1,3,-1
 200 400 l 1,0,-1
400 800 m 1,0,-1
 400 600 l 1,1,-1
 600 600 l 1,2,-1
 600 800 l 1,3,-1
 400 800 l 1,0,-1
400 600 m 1,0,-1
 400 400 l 1,1,-1
 600 400 l 1,2,-1
 600 600 l 1,3,-1
 400 600 l 1,0,-1
400 200 m 1,0,-1
 400 0 l 1,1,-1
 600 0 l 1,2,-1
 600 200 l 1,3,-1
 400 200 l 1,0,-1
EndSplineSet
EndChar

StartChar: u0053
Encoding: 83 83 70
Width: 800
VWidth: 1200
GlyphClass: 2
Flags: W
LayerCount: 2
Fore
SplineSet
0 600 m 1,0,-1
 0 400 l 1,1,-1
 200 400 l 1,2,-1
 200 600 l 1,3,-1
 0 600 l 1,0,-1
0 200 m 1,0,-1
 0 0 l 1,1,-1
 200 0 l 1,2,-1
 200 200 l 1,3,-1
 0 200 l 1,0,-1
200 800 m 1,0,-1
 200 600 l 1,1,-1
 400 600 l 1,2,-1
 400 800 l 1,3,-1
 200 800 l 1,0,-1
200 200 m 1,0,-1
 200 0 l 1,1,-1
 400 0 l 1,2,-1
 400 200 l 1,3,-1
 200 200 l 1,0,-1
400 800 m 1,0,-1
 400 600 l 1,1,-1
 600 600 l 1,2,-1
 600 800 l 1,3,-1
 400 800 l 1,0,-1
400 400 m 1,0,-1
 400 200 l 1,1,-1
 600 200 l 1,2,-1
 600 400 l 1,3,-1
 400 400 l 1,0,-1
EndSplineSet
EndChar

StartChar: u0054
Encoding: 84 84 71
Width: 800
VWidth: 1200
GlyphClass: 2
Flags: W
LayerCount: 2
Fore
SplineSet
0 800 m 1,0,-1
 0 600 l 1,1,-1
 200 600 l 1,2,-1
 200 800 l 1,3,-1
 0 800 l 1,0,-1
200 800 m 1,0,-1
 200 600 l 1,1,-1
 400 600 l 1,2,-1
 400 800 l 1,3,-1
 200 800 l 1,0,-1
200 600 m 1,0,-1
 200 400 l 1,1,-1
 400 400 l 1,2,-1
 400 600 l 1,3,-1
 200 600 l 1,0,-1
200 400 m 1,0,-1
 200 200 l 1,1,-1
 400 200 l 1,2,-1
 400 400 l 1,3,-1
 200 400 l 1,0,-1
200 200 m 1,0,-1
 200 0 l 1,1,-1
 400 0 l 1,2,-1
 400 200 l 1,3,-1
 200 200 l 1,0,-1
400 800 m 1,0,-1
 400 600 l 1,1,-1
 600 600 l 1,2,-1
 600 800 l 1,3,-1
 400 800 l 1,0,-1
EndSplineSet
EndChar

StartChar: u0055
Encoding: 85 85 72
Width: 800
VWidth: 1200
GlyphClass: 2
Flags: W
LayerCount: 2
Fore
SplineSet
0 800 m 1,0,-1
 0 600 l 1,1,-1
 200 600 l 1,2,-1
 200 800 l 1,3,-1
 0 800 l 1,0,-1
0 600 m 1,0,-1
 0 400 l 1,1,-1
 200 400 l 1,2,-1
 200 600 l 1,3,-1
 0 600 l 1,0,-1
0 400 m 1,0,-1
 0 200 l 1,1,-1
 200 200 l 1,2,-1
 200 400 l 1,3,-1
 0 400 l 1,0,-1
200 200 m 1,0,-1
 200 0 l 1,1,-1
 400 0 l 1,2,-1
 400 200 l 1,3,-1
 200 200 l 1,0,-1
400 800 m 1,0,-1
 400 600 l 1,1,-1
 600 600 l 1,2,-1
 600 800 l 1,3,-1
 400 800 l 1,0,-1
400 600 m 1,0,-1
 400 400 l 1,1,-1
 600 400 l 1,2,-1
 600 600 l 1,3,-1
 400 600 l 1,0,-1
400 400 m 1,0,-1
 400 200 l 1,1,-1
 600 200 l 1,2,-1
 600 400 l 1,3,-1
 400 400 l 1,0,-1
400 200 m 1,0,-1
 400 0 l 1,1,-1
 600 0 l 1,2,-1
 600 200 l 1,3,-1
 400 200 l 1,0,-1
EndSplineSet
EndChar

StartChar: u0056
Encoding: 86 86 73
Width: 800
VWidth: 1200
GlyphClass: 2
Flags: W
LayerCount: 2
Fore
SplineSet
0 800 m 1,0,-1
 0 600 l 1,1,-1
 200 600 l 1,2,-1
 200 800 l 1,3,-1
 0 800 l 1,0,-1
0 600 m 1,0,-1
 0 400 l 1,1,-1
 200 400 l 1,2,-1
 200 600 l 1,3,-1
 0 600 l 1,0,-1
0 400 m 1,0,-1
 0 200 l 1,1,-1
 200 200 l 1,2,-1
 200 400 l 1,3,-1
 0 400 l 1,0,-1
200 400 m 1,0,-1
 200 200 l 1,1,-1
 400 200 l 1,2,-1
 400 400 l 1,3,-1
 200 400 l 1,0,-1
200 200 m 1,0,-1
 200 0 l 1,1,-1
 400 0 l 1,2,-1
 400 200 l 1,3,-1
 200 200 l 1,0,-1
400 800 m 1,0,-1
 400 600 l 1,1,-1
 600 600 l 1,2,-1
 600 800 l 1,3,-1
 400 800 l 1,0,-1
400 600 m 1,0,-1
 400 400 l 1,1,-1
 600 400 l 1,2,-1
 600 600 l 1,3,-1
 400 600 l 1,0,-1
400 400 m 1,0,-1
 400 200 l 1,1,-1
 600 200 l 1,2,-1
 600 400 l 1,3,-1
 400 400 l 1,0,-1
EndSplineSet
EndChar

StartChar: u0057
Encoding: 87 87 74
Width: 800
VWidth: 1200
GlyphClass: 2
Flags: W
LayerCount: 2
Fore
SplineSet
0 800 m 1,0,-1
 0 600 l 1,1,-1
 200 600 l 1,2,-1
 200 800 l 1,3,-1
 0 800 l 1,0,-1
0 600 m 1,0,-1
 0 400 l 1,1,-1
 200 400 l 1,2,-1
 200 600 l 1,3,-1
 0 600 l 1,0,-1
0 400 m 1,0,-1
 0 200 l 1,1,-1
 200 200 l 1,2,-1
 200 400 l 1,3,-1
 0 400 l 1,0,-1
0 200 m 1,0,-1
 0 0 l 1,1,-1
 200 0 l 1,2,-1
 200 200 l 1,3,-1
 0 200 l 1,0,-1
200 400 m 1,0,-1
 200 200 l 1,1,-1
 400 200 l 1,2,-1
 400 400 l 1,3,-1
 200 400 l 1,0,-1
200 200 m 1,0,-1
 200 0 l 1,1,-1
 400 0 l 1,2,-1
 400 200 l 1,3,-1
 200 200 l 1,0,-1
400 800 m 1,0,-1
 400 600 l 1,1,-1
 600 600 l 1,2,-1
 600 800 l 1,3,-1
 400 800 l 1,0,-1
400 600 m 1,0,-1
 400 400 l 1,1,-1
 600 400 l 1,2,-1
 600 600 l 1,3,-1
 400 600 l 1,0,-1
400 400 m 1,0,-1
 400 200 l 1,1,-1
 600 200 l 1,2,-1
 600 400 l 1,3,-1
 400 400 l 1,0,-1
400 200 m 1,0,-1
 400 0 l 1,1,-1
 600 0 l 1,2,-1
 600 200 l 1,3,-1
 400 200 l 1,0,-1
EndSplineSet
EndChar

StartChar: u0058
Encoding: 88 88 75
Width: 800
VWidth: 1200
GlyphClass: 2
Flags: W
LayerCount: 2
Fore
SplineSet
0 800 m 1,0,-1
 0 600 l 1,1,-1
 200 600 l 1,2,-1
 200 800 l 1,3,-1
 0 800 l 1,0,-1
0 400 m 1,0,-1
 0 200 l 1,1,-1
 200 200 l 1,2,-1
 200 400 l 1,3,-1
 0 400 l 1,0,-1
0 200 m 1,0,-1
 0 0 l 1,1,-1
 200 0 l 1,2,-1
 200 200 l 1,3,-1
 0 200 l 1,0,-1
200 600 m 1,0,-1
 200 400 l 1,1,-1
 400 400 l 1,2,-1
 400 600 l 1,3,-1
 200 600 l 1,0,-1
400 800 m 1,0,-1
 400 600 l 1,1,-1
 600 600 l 1,2,-1
 600 800 l 1,3,-1
 400 800 l 1,0,-1
400 400 m 1,0,-1
 400 200 l 1,1,-1
 600 200 l 1,2,-1
 600 400 l 1,3,-1
 400 400 l 1,0,-1
400 200 m 1,0,-1
 400 0 l 1,1,-1
 600 0 l 1,2,-1
 600 200 l 1,3,-1
 400 200 l 1,0,-1
EndSplineSet
EndChar

StartChar: u0059
Encoding: 89 89 76
Width: 800
VWidth: 1200
GlyphClass: 2
Flags: W
LayerCount: 2
Fore
SplineSet
0 800 m 1,0,-1
 0 600 l 1,1,-1
 200 600 l 1,2,-1
 200 800 l 1,3,-1
 0 800 l 1,0,-1
0 600 m 1,0,-1
 0 400 l 1,1,-1
 200 400 l 1,2,-1
 200 600 l 1,3,-1
 0 600 l 1,0,-1
0 200 m 1,0,-1
 0 0 l 1,1,-1
 200 0 l 1,2,-1
 200 200 l 1,3,-1
 0 200 l 1,0,-1
200 600 m 1,0,-1
 200 400 l 1,1,-1
 400 400 l 1,2,-1
 400 600 l 1,3,-1
 200 600 l 1,0,-1
200 200 m 1,0,-1
 200 0 l 1,1,-1
 400 0 l 1,2,-1
 400 200 l 1,3,-1
 200 200 l 1,0,-1
400 800 m 1,0,-1
 400 600 l 1,1,-1
 600 600 l 1,2,-1
 600 800 l 1,3,-1
 400 800 l 1,0,-1
400 600 m 1,0,-1
 400 400 l 1,1,-1
 600 400 l 1,2,-1
 600 600 l 1,3,-1
 400 600 l 1,0,-1
400 400 m 1,0,-1
 400 200 l 1,1,-1
 600 200 l 1,2,-1
 600 400 l 1,3,-1
 400 400 l 1,0,-1
400 200 m 1,0,-1
 400 0 l 1,1,-1
 600 0 l 1,2,-1
 600 200 l 1,3,-1
 400 200 l 1,0,-1
EndSplineSet
EndChar

StartChar: u005a
Encoding: 90 90 77
Width: 800
VWidth: 1200
GlyphClass: 2
Flags: W
LayerCount: 2
Fore
SplineSet
0 800 m 1,0,-1
 0 600 l 1,1,-1
 200 600 l 1,2,-1
 200 800 l 1,3,-1
 0 800 l 1,0,-1
0 400 m 1,0,-1
 0 200 l 1,1,-1
 200 200 l 1,2,-1
 200 400 l 1,3,-1
 0 400 l 1,0,-1
0 200 m 1,0,-1
 0 0 l 1,1,-1
 200 0 l 1,2,-1
 200 200 l 1,3,-1
 0 200 l 1,0,-1
200 800 m 1,0,-1
 200 600 l 1,1,-1
 400 600 l 1,2,-1
 400 800 l 1,3,-1
 200 800 l 1,0,-1
200 200 m 1,0,-1
 200 0 l 1,1,-1
 400 0 l 1,2,-1
 400 200 l 1,3,-1
 200 200 l 1,0,-1
400 800 m 1,0,-1
 400 600 l 1,1,-1
 600 600 l 1,2,-1
 600 800 l 1,3,-1
 400 800 l 1,0,-1
400 600 m 1,0,-1
 400 400 l 1,1,-1
 600 400 l 1,2,-1
 600 600 l 1,3,-1
 400 600 l 1,0,-1
400 200 m 1,0,-1
 400 0 l 1,1,-1
 600 0 l 1,2,-1
 600 200 l 1,3,-1
 400 200 l 1,0,-1
EndSplineSet
EndChar

StartChar: bracketleft
Encoding: 91 91 78
Width: 800
VWidth: 1200
GlyphClass: 2
Flags: W
LayerCount: 2
Fore
SplineSet
0 1000 m 1,0,-1
 0 800 l 1,1,-1
 200 800 l 1,2,-1
 200 1000 l 1,3,-1
 0 1000 l 1,0,-1
0 800 m 1,0,-1
 0 600 l 1,1,-1
 200 600 l 1,2,-1
 200 800 l 1,3,-1
 0 800 l 1,0,-1
0 600 m 1,0,-1
 0 400 l 1,1,-1
 200 400 l 1,2,-1
 200 600 l 1,3,-1
 0 600 l 1,0,-1
0 400 m 1,0,-1
 0 200 l 1,1,-1
 200 200 l 1,2,-1
 200 400 l 1,3,-1
 0 400 l 1,0,-1
0 200 m 1,0,-1
 0 0 l 1,1,-1
 200 0 l 1,2,-1
 200 200 l 1,3,-1
 0 200 l 1,0,-1
200 1000 m 1,0,-1
 200 800 l 1,1,-1
 400 800 l 1,2,-1
 400 1000 l 1,3,-1
 200 1000 l 1,0,-1
200 200 m 1,0,-1
 200 0 l 1,1,-1
 400 0 l 1,2,-1
 400 200 l 1,3,-1
 200 200 l 1,0,-1
EndSplineSet
EndChar

StartChar: backslash
Encoding: 92 92 79
Width: 800
VWidth: 1200
GlyphClass: 2
Flags: W
LayerCount: 2
Fore
SplineSet
0 1000 m 1,0,-1
 0 800 l 1,1,-1
 200 800 l 1,2,-1
 200 1000 l 1,3,-1
 0 1000 l 1,0,-1
200 800 m 1,0,-1
 200 600 l 1,1,-1
 400 600 l 1,2,-1
 400 800 l 1,3,-1
 200 800 l 1,0,-1
200 600 m 1,0,-1
 200 400 l 1,1,-1
 400 400 l 1,2,-1
 400 600 l 1,3,-1
 200 600 l 1,0,-1
200 400 m 1,0,-1
 200 200 l 1,1,-1
 400 200 l 1,2,-1
 400 400 l 1,3,-1
 200 400 l 1,0,-1
400 200 m 1,0,-1
 400 0 l 1,1,-1
 600 0 l 1,2,-1
 600 200 l 1,3,-1
 400 200 l 1,0,-1
EndSplineSet
EndChar

StartChar: bracketright
Encoding: 93 93 80
Width: 800
VWidth: 1200
GlyphClass: 2
Flags: W
LayerCount: 2
Fore
SplineSet
200 1000 m 1,0,-1
 200 800 l 1,1,-1
 400 800 l 1,2,-1
 400 1000 l 1,3,-1
 200 1000 l 1,0,-1
200 200 m 1,0,-1
 200 0 l 1,1,-1
 400 0 l 1,2,-1
 400 200 l 1,3,-1
 200 200 l 1,0,-1
400 1000 m 1,0,-1
 400 800 l 1,1,-1
 600 800 l 1,2,-1
 600 1000 l 1,3,-1
 400 1000 l 1,0,-1
400 800 m 1,0,-1
 400 600 l 1,1,-1
 600 600 l 1,2,-1
 600 800 l 1,3,-1
 400 800 l 1,0,-1
400 600 m 1,0,-1
 400 400 l 1,1,-1
 600 400 l 1,2,-1
 600 600 l 1,3,-1
 400 600 l 1,0,-1
400 400 m 1,0,-1
 400 200 l 1,1,-1
 600 200 l 1,2,-1
 600 400 l 1,3,-1
 400 400 l 1,0,-1
400 200 m 1,0,-1
 400 0 l 1,1,-1
 600 0 l 1,2,-1
 600 200 l 1,3,-1
 400 200 l 1,0,-1
EndSplineSet
EndChar

StartChar: asciicircum
Encoding: 94 94 81
Width: 800
VWidth: 1200
GlyphClass: 2
Flags: W
LayerCount: 2
Fore
SplineSet
0 800 m 1,0,-1
 0 600 l 1,1,-1
 200 600 l 1,2,-1
 200 800 l 1,3,-1
 0 800 l 1,0,-1
200 1000 m 1,0,-1
 200 800 l 1,1,-1
 400 800 l 1,2,-1
 400 1000 l 1,3,-1
 200 1000 l 1,0,-1
400 800 m 1,0,-1
 400 600 l 1,1,-1
 600 600 l 1,2,-1
 600 800 l 1,3,-1
 400 800 l 1,0,-1
EndSplineSet
EndChar

StartChar: underscore
Encoding: 95 95 82
Width: 800
VWidth: 1200
GlyphClass: 2
Flags: W
LayerCount: 2
Fore
SplineSet
0 200 m 1,0,-1
 0 0 l 1,1,-1
 200 0 l 1,2,-1
 200 200 l 1,3,-1
 0 200 l 1,0,-1
200 200 m 1,0,-1
 200 0 l 1,1,-1
 400 0 l 1,2,-1
 400 200 l 1,3,-1
 200 200 l 1,0,-1
400 200 m 1,0,-1
 400 0 l 1,1,-1
 600 0 l 1,2,-1
 600 200 l 1,3,-1
 400 200 l 1,0,-1
EndSplineSet
EndChar

StartChar: grave
Encoding: 96 96 83
Width: 800
VWidth: 1200
GlyphClass: 2
Flags: W
LayerCount: 2
Fore
SplineSet
200 1000 m 1,0,-1
 200 800 l 1,1,-1
 400 800 l 1,2,-1
 400 1000 l 1,3,-1
 200 1000 l 1,0,-1
400 800 m 1,0,-1
 400 600 l 1,1,-1
 600 600 l 1,2,-1
 600 800 l 1,3,-1
 400 800 l 1,0,-1
EndSplineSet
EndChar

StartChar: u0061
Encoding: 97 97 84
Width: 800
VWidth: 1200
GlyphClass: 2
Flags: W
LayerCount: 2
Fore
SplineSet
0 1000 m 1,0,-1
 0 800 l 1,1,-1
 200 800 l 1,2,-1
 200 1000 l 1,3,-1
 0 1000 l 1,0,-1
0 800 m 1,0,-1
 0 600 l 1,1,-1
 200 600 l 1,2,-1
 200 800 l 1,3,-1
 0 800 l 1,0,-1
0 600 m 1,0,-1
 0 400 l 1,1,-1
 200 400 l 1,2,-1
 200 600 l 1,3,-1
 0 600 l 1,0,-1
0 400 m 1,0,-1
 0 200 l 1,1,-1
 200 200 l 1,2,-1
 200 400 l 1,3,-1
 0 400 l 1,0,-1
0 200 m 1,0,-1
 0 0 l 1,1,-1
 200 0 l 1,2,-1
 200 200 l 1,3,-1
 0 200 l 1,0,-1
200 1000 m 1,0,-1
 200 800 l 1,1,-1
 400 800 l 1,2,-1
 400 1000 l 1,3,-1
 200 1000 l 1,0,-1
200 600 m 1,0,-1
 200 400 l 1,1,-1
 400 400 l 1,2,-1
 400 600 l 1,3,-1
 200 600 l 1,0,-1
400 1000 m 1,0,-1
 400 800 l 1,1,-1
 600 800 l 1,2,-1
 600 1000 l 1,3,-1
 400 1000 l 1,0,-1
400 800 m 1,0,-1
 400 600 l 1,1,-1
 600 600 l 1,2,-1
 600 800 l 1,3,-1
 400 800 l 1,0,-1
400 600 m 1,0,-1
 400 400 l 1,1,-1
 600 400 l 1,2,-1
 600 600 l 1,3,-1
 400 600 l 1,0,-1
400 400 m 1,0,-1
 400 200 l 1,1,-1
 600 200 l 1,2,-1
 600 400 l 1,3,-1
 400 400 l 1,0,-1
400 200 m 1,0,-1
 400 0 l 1,1,-1
 600 0 l 1,2,-1
 600 200 l 1,3,-1
 400 200 l 1,0,-1
EndSplineSet
EndChar

StartChar: u0062
Encoding: 98 98 85
Width: 800
VWidth: 1200
GlyphClass: 2
Flags: W
LayerCount: 2
Fore
SplineSet
0 1000 m 1,0,-1
 0 800 l 1,1,-1
 200 800 l 1,2,-1
 200 1000 l 1,3,-1
 0 1000 l 1,0,-1
0 800 m 1,0,-1
 0 600 l 1,1,-1
 200 600 l 1,2,-1
 200 800 l 1,3,-1
 0 800 l 1,0,-1
0 600 m 1,0,-1
 0 400 l 1,1,-1
 200 400 l 1,2,-1
 200 600 l 1,3,-1
 0 600 l 1,0,-1
0 400 m 1,0,-1
 0 200 l 1,1,-1
 200 200 l 1,2,-1
 200 400 l 1,3,-1
 0 400 l 1,0,-1
0 200 m 1,0,-1
 0 0 l 1,1,-1
 200 0 l 1,2,-1
 200 200 l 1,3,-1
 0 200 l 1,0,-1
200 1000 m 1,0,-1
 200 800 l 1,1,-1
 400 800 l 1,2,-1
 400 1000 l 1,3,-1
 200 1000 l 1,0,-1
200 600 m 1,0,-1
 200 400 l 1,1,-1
 400 400 l 1,2,-1
 400 600 l 1,3,-1
 200 600 l 1,0,-1
200 200 m 1,0,-1
 200 0 l 1,1,-1
 400 0 l 1,2,-1
 400 200 l 1,3,-1
 200 200 l 1,0,-1
400 1000 m 1,0,-1
 400 800 l 1,1,-1
 600 800 l 1,2,-1
 600 1000 l 1,3,-1
 400 1000 l 1,0,-1
400 800 m 1,0,-1
 400 600 l 1,1,-1
 600 600 l 1,2,-1
 600 800 l 1,3,-1
 400 800 l 1,0,-1
400 400 m 1,0,-1
 400 200 l 1,1,-1
 600 200 l 1,2,-1
 600 400 l 1,3,-1
 400 400 l 1,0,-1
400 200 m 1,0,-1
 400 0 l 1,1,-1
 600 0 l 1,2,-1
 600 200 l 1,3,-1
 400 200 l 1,0,-1
EndSplineSet
EndChar

StartChar: u0063
Encoding: 99 99 86
Width: 800
VWidth: 1200
GlyphClass: 2
Flags: W
LayerCount: 2
Fore
SplineSet
0 800 m 1,0,-1
 0 600 l 1,1,-1
 200 600 l 1,2,-1
 200 800 l 1,3,-1
 0 800 l 1,0,-1
0 600 m 1,0,-1
 0 400 l 1,1,-1
 200 400 l 1,2,-1
 200 600 l 1,3,-1
 0 600 l 1,0,-1
0 400 m 1,0,-1
 0 200 l 1,1,-1
 200 200 l 1,2,-1
 200 400 l 1,3,-1
 0 400 l 1,0,-1
200 1000 m 1,0,-1
 200 800 l 1,1,-1
 400 800 l 1,2,-1
 400 1000 l 1,3,-1
 200 1000 l 1,0,-1
200 200 m 1,0,-1
 200 0 l 1,1,-1
 400 0 l 1,2,-1
 400 200 l 1,3,-1
 200 200 l 1,0,-1
400 1000 m 1,0,-1
 400 800 l 1,1,-1
 600 800 l 1,2,-1
 600 1000 l 1,3,-1
 400 1000 l 1,0,-1
400 200 m 1,0,-1
 400 0 l 1,1,-1
 600 0 l 1,2,-1
 600 200 l 1,3,-1
 400 200 l 1,0,-1
EndSplineSet
EndChar

StartChar: u0064
Encoding: 100 100 87
Width: 800
VWidth: 1200
GlyphClass: 2
Flags: W
LayerCount: 2
Fore
SplineSet
0 1000 m 1,0,-1
 0 800 l 1,1,-1
 200 800 l 1,2,-1
 200 1000 l 1,3,-1
 0 1000 l 1,0,-1
0 800 m 1,0,-1
 0 600 l 1,1,-1
 200 600 l 1,2,-1
 200 800 l 1,3,-1
 0 800 l 1,0,-1
0 600 m 1,0,-1
 0 400 l 1,1,-1
 200 400 l 1,2,-1
 200 600 l 1,3,-1
 0 600 l 1,0,-1
0 400 m 1,0,-1
 0 200 l 1,1,-1
 200 200 l 1,2,-1
 200 400 l 1,3,-1
 0 400 l 1,0,-1
0 200 m 1,0,-1
 0 0 l 1,1,-1
 200 0 l 1,2,-1
 200 200 l 1,3,-1
 0 200 l 1,0,-1
200 1000 m 1,0,-1
 200 800 l 1,1,-1
 400 800 l 1,2,-1
 400 1000 l 1,3,-1
 200 1000 l 1,0,-1
200 200 m 1,0,-1
 200 0 l 1,1,-1
 400 0 l 1,2,-1
 400 200 l 1,3,-1
 200 200 l 1,0,-1
400 800 m 1,0,-1
 400 600 l 1,1,-1
 600 600 l 1,2,-1
 600 800 l 1,3,-1
 400 800 l 1,0,-1
400 600 m 1,0,-1
 400 400 l 1,1,-1
 600 400 l 1,2,-1
 600 600 l 1,3,-1
 400 600 l 1,0,-1
400 400 m 1,0,-1
 400 200 l 1,1,-1
 600 200 l 1,2,-1
 600 400 l 1,3,-1
 400 400 l 1,0,-1
400 200 m 1,0,-1
 400 0 l 1,1,-1
 600 0 l 1,2,-1
 600 200 l 1,3,-1
 400 200 l 1,0,-1
EndSplineSet
EndChar

StartChar: u0065
Encoding: 101 101 88
Width: 800
VWidth: 1200
GlyphClass: 2
Flags: W
LayerCount: 2
Fore
SplineSet
0 1000 m 1,0,-1
 0 800 l 1,1,-1
 200 800 l 1,2,-1
 200 1000 l 1,3,-1
 0 1000 l 1,0,-1
0 800 m 1,0,-1
 0 600 l 1,1,-1
 200 600 l 1,2,-1
 200 800 l 1,3,-1
 0 800 l 1,0,-1
0 600 m 1,0,-1
 0 400 l 1,1,-1
 200 400 l 1,2,-1
 200 600 l 1,3,-1
 0 600 l 1,0,-1
0 400 m 1,0,-1
 0 200 l 1,1,-1
 200 200 l 1,2,-1
 200 400 l 1,3,-1
 0 400 l 1,0,-1
0 200 m 1,0,-1
 0 0 l 1,1,-1
 200 0 l 1,2,-1
 200 200 l 1,3,-1
 0 200 l 1,0,-1
200 1000 m 1,0,-1
 200 800 l 1,1,-1
 400 800 l 1,2,-1
 400 1000 l 1,3,-1
 200 1000 l 1,0,-1
200 600 m 1,0,-1
 200 400 l 1,1,-1
 400 400 l 1,2,-1
 400 600 l 1,3,-1
 200 600 l 1,0,-1
200 200 m 1,0,-1
 200 0 l 1,1,-1
 400 0 l 1,2,-1
 400 200 l 1,3,-1
 200 200 l 1,0,-1
400 1000 m 1,0,-1
 400 800 l 1,1,-1
 600 800 l 1,2,-1
 600 1000 l 1,3,-1
 400 1000 l 1,0,-1
400 200 m 1,0,-1
 400 0 l 1,1,-1
 600 0 l 1,2,-1
 600 200 l 1,3,-1
 400 200 l 1,0,-1
EndSplineSet
EndChar

StartChar: u0066
Encoding: 102 102 89
Width: 800
VWidth: 1200
GlyphClass: 2
Flags: W
LayerCount: 2
Fore
SplineSet
0 1000 m 1,0,-1
 0 800 l 1,1,-1
 200 800 l 1,2,-1
 200 1000 l 1,3,-1
 0 1000 l 1,0,-1
0 800 m 1,0,-1
 0 600 l 1,1,-1
 200 600 l 1,2,-1
 200 800 l 1,3,-1
 0 800 l 1,0,-1
0 600 m 1,0,-1
 0 400 l 1,1,-1
 200 400 l 1,2,-1
 200 600 l 1,3,-1
 0 600 l 1,0,-1
0 400 m 1,0,-1
 0 200 l 1,1,-1
 200 200 l 1,2,-1
 200 400 l 1,3,-1
 0 400 l 1,0,-1
0 200 m 1,0,-1
 0 0 l 1,1,-1
 200 0 l 1,2,-1
 200 200 l 1,3,-1
 0 200 l 1,0,-1
200 1000 m 1,0,-1
 200 800 l 1,1,-1
 400 800 l 1,2,-1
 400 1000 l 1,3,-1
 200 1000 l 1,0,-1
200 600 m 1,0,-1
 200 400 l 1,1,-1
 400 400 l 1,2,-1
 400 600 l 1,3,-1
 200 600 l 1,0,-1
400 1000 m 1,0,-1
 400 800 l 1,1,-1
 600 800 l 1,2,-1
 600 1000 l 1,3,-1
 400 1000 l 1,0,-1
EndSplineSet
EndChar

StartChar: u0067
Encoding: 103 103 90
Width: 800
VWidth: 1200
GlyphClass: 2
Flags: W
LayerCount: 2
Fore
SplineSet
0 800 m 1,0,-1
 0 600 l 1,1,-1
 200 600 l 1,2,-1
 200 800 l 1,3,-1
 0 800 l 1,0,-1
0 600 m 1,0,-1
 0 400 l 1,1,-1
 200 400 l 1,2,-1
 200 600 l 1,3,-1
 0 600 l 1,0,-1
0 400 m 1,0,-1
 0 200 l 1,1,-1
 200 200 l 1,2,-1
 200 400 l 1,3,-1
 0 400 l 1,0,-1
0 200 m 1,0,-1
 0 0 l 1,1,-1
 200 0 l 1,2,-1
 200 200 l 1,3,-1
 0 200 l 1,0,-1
200 1000 m 1,0,-1
 200 800 l 1,1,-1
 400 800 l 1,2,-1
 400 1000 l 1,3,-1
 200 1000 l 1,0,-1
200 200 m 1,0,-1
 200 0 l 1,1,-1
 400 0 l 1,2,-1
 400 200 l 1,3,-1
 200 200 l 1,0,-1
400 1000 m 1,0,-1
 400 800 l 1,1,-1
 600 800 l 1,2,-1
 600 1000 l 1,3,-1
 400 1000 l 1,0,-1
400 400 m 1,0,-1
 400 200 l 1,1,-1
 600 200 l 1,2,-1
 600 400 l 1,3,-1
 400 400 l 1,0,-1
400 200 m 1,0,-1
 400 0 l 1,1,-1
 600 0 l 1,2,-1
 600 200 l 1,3,-1
 400 200 l 1,0,-1
EndSplineSet
EndChar

StartChar: u0068
Encoding: 104 104 91
Width: 800
VWidth: 1200
GlyphClass: 2
Flags: W
LayerCount: 2
Fore
SplineSet
0 1000 m 1,0,-1
 0 800 l 1,1,-1
 200 800 l 1,2,-1
 200 1000 l 1,3,-1
 0 1000 l 1,0,-1
0 800 m 1,0,-1
 0 600 l 1,1,-1
 200 600 l 1,2,-1
 200 800 l 1,3,-1
 0 800 l 1,0,-1
0 600 m 1,0,-1
 0 400 l 1,1,-1
 200 400 l 1,2,-1
 200 600 l 1,3,-1
 0 600 l 1,0,-1
0 400 m 1,0,-1
 0 200 l 1,1,-1
 200 200 l 1,2,-1
 200 400 l 1,3,-1
 0 400 l 1,0,-1
0 200 m 1,0,-1
 0 0 l 1,1,-1
 200 0 l 1,2,-1
 200 200 l 1,3,-1
 0 200 l 1,0,-1
200 600 m 1,0,-1
 200 400 l 1,1,-1
 400 400 l 1,2,-1
 400 600 l 1,3,-1
 200 600 l 1,0,-1
400 1000 m 1,0,-1
 400 800 l 1,1,-1
 600 800 l 1,2,-1
 600 1000 l 1,3,-1
 400 1000 l 1,0,-1
400 800 m 1,0,-1
 400 600 l 1,1,-1
 600 600 l 1,2,-1
 600 800 l 1,3,-1
 400 800 l 1,0,-1
400 600 m 1,0,-1
 400 400 l 1,1,-1
 600 400 l 1,2,-1
 600 600 l 1,3,-1
 400 600 l 1,0,-1
400 400 m 1,0,-1
 400 200 l 1,1,-1
 600 200 l 1,2,-1
 600 400 l 1,3,-1
 400 400 l 1,0,-1
400 200 m 1,0,-1
 400 0 l 1,1,-1
 600 0 l 1,2,-1
 600 200 l 1,3,-1
 400 200 l 1,0,-1
EndSplineSet
EndChar

StartChar: u0069
Encoding: 105 105 92
Width: 800
VWidth: 1200
GlyphClass: 2
Flags: W
LayerCount: 2
Fore
SplineSet
0 1000 m 1,0,-1
 0 800 l 1,1,-1
 200 800 l 1,2,-1
 200 1000 l 1,3,-1
 0 1000 l 1,0,-1
0 200 m 1,0,-1
 0 0 l 1,1,-1
 200 0 l 1,2,-1
 200 200 l 1,3,-1
 0 200 l 1,0,-1
200 1000 m 1,0,-1
 200 800 l 1,1,-1
 400 800 l 1,2,-1
 400 1000 l 1,3,-1
 200 1000 l 1,0,-1
200 800 m 1,0,-1
 200 600 l 1,1,-1
 400 600 l 1,2,-1
 400 800 l 1,3,-1
 200 800 l 1,0,-1
200 600 m 1,0,-1
 200 400 l 1,1,-1
 400 400 l 1,2,-1
 400 600 l 1,3,-1
 200 600 l 1,0,-1
200 400 m 1,0,-1
 200 200 l 1,1,-1
 400 200 l 1,2,-1
 400 400 l 1,3,-1
 200 400 l 1,0,-1
200 200 m 1,0,-1
 200 0 l 1,1,-1
 400 0 l 1,2,-1
 400 200 l 1,3,-1
 200 200 l 1,0,-1
400 1000 m 1,0,-1
 400 800 l 1,1,-1
 600 800 l 1,2,-1
 600 1000 l 1,3,-1
 400 1000 l 1,0,-1
400 200 m 1,0,-1
 400 0 l 1,1,-1
 600 0 l 1,2,-1
 600 200 l 1,3,-1
 400 200 l 1,0,-1
EndSplineSet
EndChar

StartChar: u006a
Encoding: 106 106 93
Width: 800
VWidth: 1200
GlyphClass: 2
Flags: W
LayerCount: 2
Fore
SplineSet
0 1000 m 1,0,-1
 0 800 l 1,1,-1
 200 800 l 1,2,-1
 200 1000 l 1,3,-1
 0 1000 l 1,0,-1
0 200 m 1,0,-1
 0 0 l 1,1,-1
 200 0 l 1,2,-1
 200 200 l 1,3,-1
 0 200 l 1,0,-1
200 1000 m 1,0,-1
 200 800 l 1,1,-1
 400 800 l 1,2,-1
 400 1000 l 1,3,-1
 200 1000 l 1,0,-1
200 800 m 1,0,-1
 200 600 l 1,1,-1
 400 600 l 1,2,-1
 400 800 l 1,3,-1
 200 800 l 1,0,-1
200 600 m 1,0,-1
 200 400 l 1,1,-1
 400 400 l 1,2,-1
 400 600 l 1,3,-1
 200 600 l 1,0,-1
200 400 m 1,0,-1
 200 200 l 1,1,-1
 400 200 l 1,2,-1
 400 400 l 1,3,-1
 200 400 l 1,0,-1
200 200 m 1,0,-1
 200 0 l 1,1,-1
 400 0 l 1,2,-1
 400 200 l 1,3,-1
 200 200 l 1,0,-1
400 1000 m 1,0,-1
 400 800 l 1,1,-1
 600 800 l 1,2,-1
 600 1000 l 1,3,-1
 400 1000 l 1,0,-1
EndSplineSet
EndChar

StartChar: u006b
Encoding: 107 107 94
Width: 800
VWidth: 1200
GlyphClass: 2
Flags: W
LayerCount: 2
Fore
SplineSet
0 1000 m 1,0,-1
 0 800 l 1,1,-1
 200 800 l 1,2,-1
 200 1000 l 1,3,-1
 0 1000 l 1,0,-1
0 800 m 1,0,-1
 0 600 l 1,1,-1
 200 600 l 1,2,-1
 200 800 l 1,3,-1
 0 800 l 1,0,-1
0 600 m 1,0,-1
 0 400 l 1,1,-1
 200 400 l 1,2,-1
 200 600 l 1,3,-1
 0 600 l 1,0,-1
0 400 m 1,0,-1
 0 200 l 1,1,-1
 200 200 l 1,2,-1
 200 400 l 1,3,-1
 0 400 l 1,0,-1
0 200 m 1,0,-1
 0 0 l 1,1,-1
 200 0 l 1,2,-1
 200 200 l 1,3,-1
 0 200 l 1,0,-1
200 600 m 1,0,-1
 200 400 l 1,1,-1
 400 400 l 1,2,-1
 400 600 l 1,3,-1
 200 600 l 1,0,-1
400 1000 m 1,0,-1
 400 800 l 1,1,-1
 600 800 l 1,2,-1
 600 1000 l 1,3,-1
 400 1000 l 1,0,-1
400 800 m 1,0,-1
 400 600 l 1,1,-1
 600 600 l 1,2,-1
 600 800 l 1,3,-1
 400 800 l 1,0,-1
400 400 m 1,0,-1
 400 200 l 1,1,-1
 600 200 l 1,2,-1
 600 400 l 1,3,-1
 400 400 l 1,0,-1
400 200 m 1,0,-1
 400 0 l 1,1,-1
 600 0 l 1,2,-1
 600 200 l 1,3,-1
 400 200 l 1,0,-1
EndSplineSet
EndChar

StartChar: u006c
Encoding: 108 108 95
Width: 800
VWidth: 1200
GlyphClass: 2
Flags: W
LayerCount: 2
Fore
SplineSet
0 1000 m 1,0,-1
 0 800 l 1,1,-1
 200 800 l 1,2,-1
 200 1000 l 1,3,-1
 0 1000 l 1,0,-1
0 800 m 1,0,-1
 0 600 l 1,1,-1
 200 600 l 1,2,-1
 200 800 l 1,3,-1
 0 800 l 1,0,-1
0 600 m 1,0,-1
 0 400 l 1,1,-1
 200 400 l 1,2,-1
 200 600 l 1,3,-1
 0 600 l 1,0,-1
0 400 m 1,0,-1
 0 200 l 1,1,-1
 200 200 l 1,2,-1
 200 400 l 1,3,-1
 0 400 l 1,0,-1
0 200 m 1,0,-1
 0 0 l 1,1,-1
 200 0 l 1,2,-1
 200 200 l 1,3,-1
 0 200 l 1,0,-1
200 200 m 1,0,-1
 200 0 l 1,1,-1
 400 0 l 1,2,-1
 400 200 l 1,3,-1
 200 200 l 1,0,-1
400 200 m 1,0,-1
 400 0 l 1,1,-1
 600 0 l 1,2,-1
 600 200 l 1,3,-1
 400 200 l 1,0,-1
EndSplineSet
EndChar

StartChar: u006d
Encoding: 109 109 96
Width: 800
VWidth: 1200
GlyphClass: 2
Flags: W
LayerCount: 2
Fore
SplineSet
0 1000 m 1,0,-1
 0 800 l 1,1,-1
 200 800 l 1,2,-1
 200 1000 l 1,3,-1
 0 1000 l 1,0,-1
0 800 m 1,0,-1
 0 600 l 1,1,-1
 200 600 l 1,2,-1
 200 800 l 1,3,-1
 0 800 l 1,0,-1
0 600 m 1,0,-1
 0 400 l 1,1,-1
 200 400 l 1,2,-1
 200 600 l 1,3,-1
 0 600 l 1,0,-1
0 400 m 1,0,-1
 0 200 l 1,1,-1
 200 200 l 1,2,-1
 200 400 l 1,3,-1
 0 400 l 1,0,-1
0 200 m 1,0,-1
 0 0 l 1,1,-1
 200 0 l 1,2,-1
 200 200 l 1,3,-1
 0 200 l 1,0,-1
200 1000 m 1,0,-1
 200 800 l 1,1,-1
 400 800 l 1,2,-1
 400 1000 l 1,3,-1
 200 1000 l 1,0,-1
200 800 m 1,0,-1
 200 600 l 1,1,-1
 400 600 l 1,2,-1
 400 800 l 1,3,-1
 200 800 l 1,0,-1
400 1000 m 1,0,-1
 400 800 l 1,1,-1
 600 800 l 1,2,-1
 600 1000 l 1,3,-1
 400 1000 l 1,0,-1
400 800 m 1,0,-1
 400 600 l 1,1,-1
 600 600 l 1,2,-1
 600 800 l 1,3,-1
 400 800 l 1,0,-1
400 600 m 1,0,-1
 400 400 l 1,1,-1
 600 400 l 1,2,-1
 600 600 l 1,3,-1
 400 600 l 1,0,-1
400 400 m 1,0,-1
 400 200 l 1,1,-1
 600 200 l 1,2,-1
 600 400 l 1,3,-1
 400 400 l 1,0,-1
400 200 m 1,0,-1
 400 0 l 1,1,-1
 600 0 l 1,2,-1
 600 200 l 1,3,-1
 400 200 l 1,0,-1
EndSplineSet
EndChar

StartChar: u006e
Encoding: 110 110 97
Width: 800
VWidth: 1200
GlyphClass: 2
Flags: W
LayerCount: 2
Fore
SplineSet
0 1000 m 1,0,-1
 0 800 l 1,1,-1
 200 800 l 1,2,-1
 200 1000 l 1,3,-1
 0 1000 l 1,0,-1
0 800 m 1,0,-1
 0 600 l 1,1,-1
 200 600 l 1,2,-1
 200 800 l 1,3,-1
 0 800 l 1,0,-1
0 600 m 1,0,-1
 0 400 l 1,1,-1
 200 400 l 1,2,-1
 200 600 l 1,3,-1
 0 600 l 1,0,-1
0 400 m 1,0,-1
 0 200 l 1,1,-1
 200 200 l 1,2,-1
 200 400 l 1,3,-1
 0 400 l 1,0,-1
0 200 m 1,0,-1
 0 0 l 1,1,-1
 200 0 l 1,2,-1
 200 200 l 1,3,-1
 0 200 l 1,0,-1
200 1000 m 1,0,-1
 200 800 l 1,1,-1
 400 800 l 1,2,-1
 400 1000 l 1,3,-1
 200 1000 l 1,0,-1
400 800 m 1,0,-1
 400 600 l 1,1,-1
 600 600 l 1,2,-1
 600 800 l 1,3,-1
 400 800 l 1,0,-1
400 600 m 1,0,-1
 400 400 l 1,1,-1
 600 400 l 1,2,-1
 600 600 l 1,3,-1
 400 600 l 1,0,-1
400 400 m 1,0,-1
 400 200 l 1,1,-1
 600 200 l 1,2,-1
 600 400 l 1,3,-1
 400 400 l 1,0,-1
400 200 m 1,0,-1
 400 0 l 1,1,-1
 600 0 l 1,2,-1
 600 200 l 1,3,-1
 400 200 l 1,0,-1
EndSplineSet
EndChar

StartChar: u006f
Encoding: 111 111 98
Width: 800
VWidth: 1200
GlyphClass: 2
Flags: W
LayerCount: 2
Fore
SplineSet
0 800 m 1,0,-1
 0 600 l 1,1,-1
 200 600 l 1,2,-1
 200 800 l 1,3,-1
 0 800 l 1,0,-1
0 600 m 1,0,-1
 0 400 l 1,1,-1
 200 400 l 1,2,-1
 200 600 l 1,3,-1
 0 600 l 1,0,-1
0 400 m 1,0,-1
 0 200 l 1,1,-1
 200 200 l 1,2,-1
 200 400 l 1,3,-1
 0 400 l 1,0,-1
0 200 m 1,0,-1
 0 0 l 1,1,-1
 200 0 l 1,2,-1
 200 200 l 1,3,-1
 0 200 l 1,0,-1
200 1000 m 1,0,-1
 200 800 l 1,1,-1
 400 800 l 1,2,-1
 400 1000 l 1,3,-1
 200 1000 l 1,0,-1
200 200 m 1,0,-1
 200 0 l 1,1,-1
 400 0 l 1,2,-1
 400 200 l 1,3,-1
 200 200 l 1,0,-1
400 1000 m 1,0,-1
 400 800 l 1,1,-1
 600 800 l 1,2,-1
 600 1000 l 1,3,-1
 400 1000 l 1,0,-1
400 800 m 1,0,-1
 400 600 l 1,1,-1
 600 600 l 1,2,-1
 600 800 l 1,3,-1
 400 800 l 1,0,-1
400 600 m 1,0,-1
 400 400 l 1,1,-1
 600 400 l 1,2,-1
 600 600 l 1,3,-1
 400 600 l 1,0,-1
400 400 m 1,0,-1
 400 200 l 1,1,-1
 600 200 l 1,2,-1
 600 400 l 1,3,-1
 400 400 l 1,0,-1
EndSplineSet
EndChar

StartChar: u0070
Encoding: 112 112 99
Width: 800
VWidth: 1200
GlyphClass: 2
Flags: W
LayerCount: 2
Fore
SplineSet
0 1000 m 1,0,-1
 0 800 l 1,1,-1
 200 800 l 1,2,-1
 200 1000 l 1,3,-1
 0 1000 l 1,0,-1
0 800 m 1,0,-1
 0 600 l 1,1,-1
 200 600 l 1,2,-1
 200 800 l 1,3,-1
 0 800 l 1,0,-1
0 600 m 1,0,-1
 0 400 l 1,1,-1
 200 400 l 1,2,-1
 200 600 l 1,3,-1
 0 600 l 1,0,-1
0 400 m 1,0,-1
 0 200 l 1,1,-1
 200 200 l 1,2,-1
 200 400 l 1,3,-1
 0 400 l 1,0,-1
0 200 m 1,0,-1
 0 0 l 1,1,-1
 200 0 l 1,2,-1
 200 200 l 1,3,-1
 0 200 l 1,0,-1
200 1000 m 1,0,-1
 200 800 l 1,1,-1
 400 800 l 1,2,-1
 400 1000 l 1,3,-1
 200 1000 l 1,0,-1
200 600 m 1,0,-1
 200 400 l 1,1,-1
 400 400 l 1,2,-1
 400 600 l 1,3,-1
 200 600 l 1,0,-1
400 1000 m 1,0,-1
 400 800 l 1,1,-1
 600 800 l 1,2,-1
 600 1000 l 1,3,-1
 400 1000 l 1,0,-1
400 800 m 1,0,-1
 400 600 l 1,1,-1
 600 600 l 1,2,-1
 600 800 l 1,3,-1
 400 800 l 1,0,-1
400 600 m 1,0,-1
 400 400 l 1,1,-1
 600 400 l 1,2,-1
 600 600 l 1,3,-1
 400 600 l 1,0,-1
EndSplineSet
EndChar

StartChar: u0071
Encoding: 113 113 100
Width: 800
VWidth: 1200
GlyphClass: 2
Flags: W
LayerCount: 2
Fore
SplineSet
0 800 m 1,0,-1
 0 600 l 1,1,-1
 200 600 l 1,2,-1
 200 800 l 1,3,-1
 0 800 l 1,0,-1
0 600 m 1,0,-1
 0 400 l 1,1,-1
 200 400 l 1,2,-1
 200 600 l 1,3,-1
 0 600 l 1,0,-1
0 400 m 1,0,-1
 0 200 l 1,1,-1
 200 200 l 1,2,-1
 200 400 l 1,3,-1
 0 400 l 1,0,-1
200 1000 m 1,0,-1
 200 800 l 1,1,-1
 400 800 l 1,2,-1
 400 1000 l 1,3,-1
 200 1000 l 1,0,-1
200 400 m 1,0,-1
 200 200 l 1,1,-1
 400 200 l 1,2,-1
 400 400 l 1,3,-1
 200 400 l 1,0,-1
200 200 m 1,0,-1
 200 0 l 1,1,-1
 400 0 l 1,2,-1
 400 200 l 1,3,-1
 200 200 l 1,0,-1
400 800 m 1,0,-1
 400 600 l 1,1,-1
 600 600 l 1,2,-1
 600 800 l 1,3,-1
 400 800 l 1,0,-1
400 600 m 1,0,-1
 400 400 l 1,1,-1
 600 400 l 1,2,-1
 600 600 l 1,3,-1
 400 600 l 1,0,-1
400 200 m 1,0,-1
 400 0 l 1,1,-1
 600 0 l 1,2,-1
 600 200 l 1,3,-1
 400 200 l 1,0,-1
EndSplineSet
EndChar

StartChar: u0072
Encoding: 114 114 101
Width: 800
VWidth: 1200
GlyphClass: 2
Flags: W
LayerCount: 2
Fore
SplineSet
0 1000 m 1,0,-1
 0 800 l 1,1,-1
 200 800 l 1,2,-1
 200 1000 l 1,3,-1
 0 1000 l 1,0,-1
0 800 m 1,0,-1
 0 600 l 1,1,-1
 200 600 l 1,2,-1
 200 800 l 1,3,-1
 0 800 l 1,0,-1
0 600 m 1,0,-1
 0 400 l 1,1,-1
 200 400 l 1,2,-1
 200 600 l 1,3,-1
 0 600 l 1,0,-1
0 400 m 1,0,-1
 0 200 l 1,1,-1
 200 200 l 1,2,-1
 200 400 l 1,3,-1
 0 400 l 1,0,-1
0 200 m 1,0,-1
 0 0 l 1,1,-1
 200 0 l 1,2,-1
 200 200 l 1,3,-1
 0 200 l 1,0,-1
200 1000 m 1,0,-1
 200 800 l 1,1,-1
 400 800 l 1,2,-1
 400 1000 l 1,3,-1
 200 1000 l 1,0,-1
200 600 m 1,0,-1
 200 400 l 1,1,-1
 400 400 l 1,2,-1
 400 600 l 1,3,-1
 200 600 l 1,0,-1
400 1000 m 1,0,-1
 400 800 l 1,1,-1
 600 800 l 1,2,-1
 600 1000 l 1,3,-1
 400 1000 l 1,0,-1
400 800 m 1,0,-1
 400 600 l 1,1,-1
 600 600 l 1,2,-1
 600 800 l 1,3,-1
 400 800 l 1,0,-1
400 400 m 1,0,-1
 400 200 l 1,1,-1
 600 200 l 1,2,-1
 600 400 l 1,3,-1
 400 400 l 1,0,-1
400 200 m 1,0,-1
 400 0 l 1,1,-1
 600 0 l 1,2,-1
 600 200 l 1,3,-1
 400 200 l 1,0,-1
EndSplineSet
EndChar

StartChar: u0073
Encoding: 115 115 102
Width: 800
VWidth: 1200
GlyphClass: 2
Flags: W
LayerCount: 2
Fore
SplineSet
0 800 m 1,0,-1
 0 600 l 1,1,-1
 200 600 l 1,2,-1
 200 800 l 1,3,-1
 0 800 l 1,0,-1
0 600 m 1,0,-1
 0 400 l 1,1,-1
 200 400 l 1,2,-1
 200 600 l 1,3,-1
 0 600 l 1,0,-1
0 200 m 1,0,-1
 0 0 l 1,1,-1
 200 0 l 1,2,-1
 200 200 l 1,3,-1
 0 200 l 1,0,-1
200 1000 m 1,0,-1
 200 800 l 1,1,-1
 400 800 l 1,2,-1
 400 1000 l 1,3,-1
 200 1000 l 1,0,-1
200 600 m 1,0,-1
 200 400 l 1,1,-1
 400 400 l 1,2,-1
 400 600 l 1,3,-1
 200 600 l 1,0,-1
200 200 m 1,0,-1
 200 0 l 1,1,-1
 400 0 l 1,2,-1
 400 200 l 1,3,-1
 200 200 l 1,0,-1
400 1000 m 1,0,-1
 400 800 l 1,1,-1
 600 800 l 1,2,-1
 600 1000 l 1,3,-1
 400 1000 l 1,0,-1
400 600 m 1,0,-1
 400 400 l 1,1,-1
 600 400 l 1,2,-1
 600 600 l 1,3,-1
 400 600 l 1,0,-1
400 400 m 1,0,-1
 400 200 l 1,1,-1
 600 200 l 1,2,-1
 600 400 l 1,3,-1
 400 400 l 1,0,-1
EndSplineSet
EndChar

StartChar: u0074
Encoding: 116 116 103
Width: 800
VWidth: 1200
GlyphClass: 2
Flags: W
LayerCount: 2
Fore
SplineSet
0 1000 m 1,0,-1
 0 800 l 1,1,-1
 200 800 l 1,2,-1
 200 1000 l 1,3,-1
 0 1000 l 1,0,-1
200 1000 m 1,0,-1
 200 800 l 1,1,-1
 400 800 l 1,2,-1
 400 1000 l 1,3,-1
 200 1000 l 1,0,-1
200 800 m 1,0,-1
 200 600 l 1,1,-1
 400 600 l 1,2,-1
 400 800 l 1,3,-1
 200 800 l 1,0,-1
200 600 m 1,0,-1
 200 400 l 1,1,-1
 400 400 l 1,2,-1
 400 600 l 1,3,-1
 200 600 l 1,0,-1
200 400 m 1,0,-1
 200 200 l 1,1,-1
 400 200 l 1,2,-1
 400 400 l 1,3,-1
 200 400 l 1,0,-1
200 200 m 1,0,-1
 200 0 l 1,1,-1
 400 0 l 1,2,-1
 400 200 l 1,3,-1
 200 200 l 1,0,-1
400 1000 m 1,0,-1
 400 800 l 1,1,-1
 600 800 l 1,2,-1
 600 1000 l 1,3,-1
 400 1000 l 1,0,-1
EndSplineSet
EndChar

StartChar: u0075
Encoding: 117 117 104
Width: 800
VWidth: 1200
GlyphClass: 2
Flags: W
LayerCount: 2
Fore
SplineSet
0 1000 m 1,0,-1
 0 800 l 1,1,-1
 200 800 l 1,2,-1
 200 1000 l 1,3,-1
 0 1000 l 1,0,-1
0 800 m 1,0,-1
 0 600 l 1,1,-1
 200 600 l 1,2,-1
 200 800 l 1,3,-1
 0 800 l 1,0,-1
0 600 m 1,0,-1
 0 400 l 1,1,-1
 200 400 l 1,2,-1
 200 600 l 1,3,-1
 0 600 l 1,0,-1
0 400 m 1,0,-1
 0 200 l 1,1,-1
 200 200 l 1,2,-1
 200 400 l 1,3,-1
 0 400 l 1,0,-1
200 200 m 1,0,-1
 200 0 l 1,1,-1
 400 0 l 1,2,-1
 400 200 l 1,3,-1
 200 200 l 1,0,-1
400 1000 m 1,0,-1
 400 800 l 1,1,-1
 600 800 l 1,2,-1
 600 1000 l 1,3,-1
 400 1000 l 1,0,-1
400 800 m 1,0,-1
 400 600 l 1,1,-1
 600 600 l 1,2,-1
 600 800 l 1,3,-1
 400 800 l 1,0,-1
400 600 m 1,0,-1
 400 400 l 1,1,-1
 600 400 l 1,2,-1
 600 600 l 1,3,-1
 400 600 l 1,0,-1
400 400 m 1,0,-1
 400 200 l 1,1,-1
 600 200 l 1,2,-1
 600 400 l 1,3,-1
 400 400 l 1,0,-1
400 200 m 1,0,-1
 400 0 l 1,1,-1
 600 0 l 1,2,-1
 600 200 l 1,3,-1
 400 200 l 1,0,-1
EndSplineSet
EndChar

StartChar: u0076
Encoding: 118 118 105
Width: 800
VWidth: 1200
GlyphClass: 2
Flags: W
LayerCount: 2
Fore
SplineSet
0 1000 m 1,0,-1
 0 800 l 1,1,-1
 200 800 l 1,2,-1
 200 1000 l 1,3,-1
 0 1000 l 1,0,-1
0 800 m 1,0,-1
 0 600 l 1,1,-1
 200 600 l 1,2,-1
 200 800 l 1,3,-1
 0 800 l 1,0,-1
0 600 m 1,0,-1
 0 400 l 1,1,-1
 200 400 l 1,2,-1
 200 600 l 1,3,-1
 0 600 l 1,0,-1
0 400 m 1,0,-1
 0 200 l 1,1,-1
 200 200 l 1,2,-1
 200 400 l 1,3,-1
 0 400 l 1,0,-1
200 400 m 1,0,-1
 200 200 l 1,1,-1
 400 200 l 1,2,-1
 400 400 l 1,3,-1
 200 400 l 1,0,-1
200 200 m 1,0,-1
 200 0 l 1,1,-1
 400 0 l 1,2,-1
 400 200 l 1,3,-1
 200 200 l 1,0,-1
400 1000 m 1,0,-1
 400 800 l 1,1,-1
 600 800 l 1,2,-1
 600 1000 l 1,3,-1
 400 1000 l 1,0,-1
400 800 m 1,0,-1
 400 600 l 1,1,-1
 600 600 l 1,2,-1
 600 800 l 1,3,-1
 400 800 l 1,0,-1
400 600 m 1,0,-1
 400 400 l 1,1,-1
 600 400 l 1,2,-1
 600 600 l 1,3,-1
 400 600 l 1,0,-1
400 400 m 1,0,-1
 400 200 l 1,1,-1
 600 200 l 1,2,-1
 600 400 l 1,3,-1
 400 400 l 1,0,-1
EndSplineSet
EndChar

StartChar: u0077
Encoding: 119 119 106
Width: 800
VWidth: 1200
GlyphClass: 2
Flags: W
LayerCount: 2
Fore
SplineSet
0 1000 m 1,0,-1
 0 800 l 1,1,-1
 200 800 l 1,2,-1
 200 1000 l 1,3,-1
 0 1000 l 1,0,-1
0 800 m 1,0,-1
 0 600 l 1,1,-1
 200 600 l 1,2,-1
 200 800 l 1,3,-1
 0 800 l 1,0,-1
0 600 m 1,0,-1
 0 400 l 1,1,-1
 200 400 l 1,2,-1
 200 600 l 1,3,-1
 0 600 l 1,0,-1
0 400 m 1,0,-1
 0 200 l 1,1,-1
 200 200 l 1,2,-1
 200 400 l 1,3,-1
 0 400 l 1,0,-1
0 200 m 1,0,-1
 0 0 l 1,1,-1
 200 0 l 1,2,-1
 200 200 l 1,3,-1
 0 200 l 1,0,-1
200 400 m 1,0,-1
 200 200 l 1,1,-1
 400 200 l 1,2,-1
 400 400 l 1,3,-1
 200 400 l 1,0,-1
200 200 m 1,0,-1
 200 0 l 1,1,-1
 400 0 l 1,2,-1
 400 200 l 1,3,-1
 200 200 l 1,0,-1
400 1000 m 1,0,-1
 400 800 l 1,1,-1
 600 800 l 1,2,-1
 600 1000 l 1,3,-1
 400 1000 l 1,0,-1
400 800 m 1,0,-1
 400 600 l 1,1,-1
 600 600 l 1,2,-1
 600 800 l 1,3,-1
 400 800 l 1,0,-1
400 600 m 1,0,-1
 400 400 l 1,1,-1
 600 400 l 1,2,-1
 600 600 l 1,3,-1
 400 600 l 1,0,-1
400 400 m 1,0,-1
 400 200 l 1,1,-1
 600 200 l 1,2,-1
 600 400 l 1,3,-1
 400 400 l 1,0,-1
400 200 m 1,0,-1
 400 0 l 1,1,-1
 600 0 l 1,2,-1
 600 200 l 1,3,-1
 400 200 l 1,0,-1
EndSplineSet
EndChar

StartChar: u0078
Encoding: 120 120 107
Width: 800
VWidth: 1200
GlyphClass: 2
Flags: W
LayerCount: 2
Fore
SplineSet
0 1000 m 1,0,-1
 0 800 l 1,1,-1
 200 800 l 1,2,-1
 200 1000 l 1,3,-1
 0 1000 l 1,0,-1
0 800 m 1,0,-1
 0 600 l 1,1,-1
 200 600 l 1,2,-1
 200 800 l 1,3,-1
 0 800 l 1,0,-1
0 400 m 1,0,-1
 0 200 l 1,1,-1
 200 200 l 1,2,-1
 200 400 l 1,3,-1
 0 400 l 1,0,-1
0 200 m 1,0,-1
 0 0 l 1,1,-1
 200 0 l 1,2,-1
 200 200 l 1,3,-1
 0 200 l 1,0,-1
200 600 m 1,0,-1
 200 400 l 1,1,-1
 400 400 l 1,2,-1
 400 600 l 1,3,-1
 200 600 l 1,0,-1
400 1000 m 1,0,-1
 400 800 l 1,1,-1
 600 800 l 1,2,-1
 600 1000 l 1,3,-1
 400 1000 l 1,0,-1
400 800 m 1,0,-1
 400 600 l 1,1,-1
 600 600 l 1,2,-1
 600 800 l 1,3,-1
 400 800 l 1,0,-1
400 400 m 1,0,-1
 400 200 l 1,1,-1
 600 200 l 1,2,-1
 600 400 l 1,3,-1
 400 400 l 1,0,-1
400 200 m 1,0,-1
 400 0 l 1,1,-1
 600 0 l 1,2,-1
 600 200 l 1,3,-1
 400 200 l 1,0,-1
EndSplineSet
EndChar

StartChar: u0079
Encoding: 121 121 108
Width: 800
VWidth: 1200
GlyphClass: 2
Flags: W
LayerCount: 2
Fore
SplineSet
0 1000 m 1,0,-1
 0 800 l 1,1,-1
 200 800 l 1,2,-1
 200 1000 l 1,3,-1
 0 1000 l 1,0,-1
0 800 m 1,0,-1
 0 600 l 1,1,-1
 200 600 l 1,2,-1
 200 800 l 1,3,-1
 0 800 l 1,0,-1
0 600 m 1,0,-1
 0 400 l 1,1,-1
 200 400 l 1,2,-1
 200 600 l 1,3,-1
 0 600 l 1,0,-1
0 200 m 1,0,-1
 0 0 l 1,1,-1
 200 0 l 1,2,-1
 200 200 l 1,3,-1
 0 200 l 1,0,-1
200 600 m 1,0,-1
 200 400 l 1,1,-1
 400 400 l 1,2,-1
 400 600 l 1,3,-1
 200 600 l 1,0,-1
200 200 m 1,0,-1
 200 0 l 1,1,-1
 400 0 l 1,2,-1
 400 200 l 1,3,-1
 200 200 l 1,0,-1
400 1000 m 1,0,-1
 400 800 l 1,1,-1
 600 800 l 1,2,-1
 600 1000 l 1,3,-1
 400 1000 l 1,0,-1
400 800 m 1,0,-1
 400 600 l 1,1,-1
 600 600 l 1,2,-1
 600 800 l 1,3,-1
 400 800 l 1,0,-1
400 600 m 1,0,-1
 400 400 l 1,1,-1
 600 400 l 1,2,-1
 600 600 l 1,3,-1
 400 600 l 1,0,-1
400 400 m 1,0,-1
 400 200 l 1,1,-1
 600 200 l 1,2,-1
 600 400 l 1,3,-1
 400 400 l 1,0,-1
400 200 m 1,0,-1
 400 0 l 1,1,-1
 600 0 l 1,2,-1
 600 200 l 1,3,-1
 400 200 l 1,0,-1
EndSplineSet
EndChar

StartChar: u007a
Encoding: 122 122 109
Width: 800
VWidth: 1200
GlyphClass: 2
Flags: W
LayerCount: 2
Fore
SplineSet
0 1000 m 1,0,-1
 0 800 l 1,1,-1
 200 800 l 1,2,-1
 200 1000 l 1,3,-1
 0 1000 l 1,0,-1
0 400 m 1,0,-1
 0 200 l 1,1,-1
 200 200 l 1,2,-1
 200 400 l 1,3,-1
 0 400 l 1,0,-1
0 200 m 1,0,-1
 0 0 l 1,1,-1
 200 0 l 1,2,-1
 200 200 l 1,3,-1
 0 200 l 1,0,-1
200 1000 m 1,0,-1
 200 800 l 1,1,-1
 400 800 l 1,2,-1
 400 1000 l 1,3,-1
 200 1000 l 1,0,-1
200 600 m 1,0,-1
 200 400 l 1,1,-1
 400 400 l 1,2,-1
 400 600 l 1,3,-1
 200 600 l 1,0,-1
200 200 m 1,0,-1
 200 0 l 1,1,-1
 400 0 l 1,2,-1
 400 200 l 1,3,-1
 200 200 l 1,0,-1
400 1000 m 1,0,-1
 400 800 l 1,1,-1
 600 800 l 1,2,-1
 600 1000 l 1,3,-1
 400 1000 l 1,0,-1
400 800 m 1,0,-1
 400 600 l 1,1,-1
 600 600 l 1,2,-1
 600 800 l 1,3,-1
 400 800 l 1,0,-1
400 200 m 1,0,-1
 400 0 l 1,1,-1
 600 0 l 1,2,-1
 600 200 l 1,3,-1
 400 200 l 1,0,-1
EndSplineSet
EndChar

StartChar: braceleft
Encoding: 123 123 110
Width: 800
VWidth: 1200
GlyphClass: 2
Flags: W
LayerCount: 2
Fore
SplineSet
0 600 m 1,0,-1
 0 400 l 1,1,-1
 200 400 l 1,2,-1
 200 600 l 1,3,-1
 0 600 l 1,0,-1
200 1000 m 1,0,-1
 200 800 l 1,1,-1
 400 800 l 1,2,-1
 400 1000 l 1,3,-1
 200 1000 l 1,0,-1
200 800 m 1,0,-1
 200 600 l 1,1,-1
 400 600 l 1,2,-1
 400 800 l 1,3,-1
 200 800 l 1,0,-1
200 600 m 1,0,-1
 200 400 l 1,1,-1
 400 400 l 1,2,-1
 400 600 l 1,3,-1
 200 600 l 1,0,-1
200 400 m 1,0,-1
 200 200 l 1,1,-1
 400 200 l 1,2,-1
 400 400 l 1,3,-1
 200 400 l 1,0,-1
200 200 m 1,0,-1
 200 0 l 1,1,-1
 400 0 l 1,2,-1
 400 200 l 1,3,-1
 200 200 l 1,0,-1
400 1000 m 1,0,-1
 400 800 l 1,1,-1
 600 800 l 1,2,-1
 600 1000 l 1,3,-1
 400 1000 l 1,0,-1
400 200 m 1,0,-1
 400 0 l 1,1,-1
 600 0 l 1,2,-1
 600 200 l 1,3,-1
 400 200 l 1,0,-1
EndSplineSet
EndChar

StartChar: bar
Encoding: 124 124 111
Width: 800
VWidth: 1200
GlyphClass: 2
Flags: W
LayerCount: 2
Fore
SplineSet
200 1000 m 1,0,-1
 200 800 l 1,1,-1
 400 800 l 1,2,-1
 400 1000 l 1,3,-1
 200 1000 l 1,0,-1
200 800 m 1,0,-1
 200 600 l 1,1,-1
 400 600 l 1,2,-1
 400 800 l 1,3,-1
 200 800 l 1,0,-1
200 600 m 1,0,-1
 200 400 l 1,1,-1
 400 400 l 1,2,-1
 400 600 l 1,3,-1
 200 600 l 1,0,-1
200 400 m 1,0,-1
 200 200 l 1,1,-1
 400 200 l 1,2,-1
 400 400 l 1,3,-1
 200 400 l 1,0,-1
200 200 m 1,0,-1
 200 0 l 1,1,-1
 400 0 l 1,2,-1
 400 200 l 1,3,-1
 200 200 l 1,0,-1
EndSplineSet
EndChar

StartChar: braceright
Encoding: 125 125 112
Width: 800
VWidth: 1200
GlyphClass: 2
Flags: W
LayerCount: 2
Fore
SplineSet
0 1000 m 1,0,-1
 0 800 l 1,1,-1
 200 800 l 1,2,-1
 200 1000 l 1,3,-1
 0 1000 l 1,0,-1
0 200 m 1,0,-1
 0 0 l 1,1,-1
 200 0 l 1,2,-1
 200 200 l 1,3,-1
 0 200 l 1,0,-1
200 1000 m 1,0,-1
 200 800 l 1,1,-1
 400 800 l 1,2,-1
 400 1000 l 1,3,-1
 200 1000 l 1,0,-1
200 800 m 1,0,-1
 200 600 l 1,1,-1
 400 600 l 1,2,-1
 400 800 l 1,3,-1
 200 800 l 1,0,-1
200 600 m 1,0,-1
 200 400 l 1,1,-1
 400 400 l 1,2,-1
 400 600 l 1,3,-1
 200 600 l 1,0,-1
200 400 m 1,0,-1
 200 200 l 1,1,-1
 400 200 l 1,2,-1
 400 400 l 1,3,-1
 200 400 l 1,0,-1
200 200 m 1,0,-1
 200 0 l 1,1,-1
 400 0 l 1,2,-1
 400 200 l 1,3,-1
 200 200 l 1,0,-1
400 600 m 1,0,-1
 400 400 l 1,1,-1
 600 400 l 1,2,-1
 600 600 l 1,3,-1
 400 600 l 1,0,-1
EndSplineSet
EndChar

StartChar: asciitilde
Encoding: 126 126 113
Width: 800
VWidth: 1200
GlyphClass: 2
Flags: W
LayerCount: 2
Fore
SplineSet
0 600 m 1,0,-1
 0 400 l 1,1,-1
 200 400 l 1,2,-1
 200 600 l 1,3,-1
 0 600 l 1,0,-1
0 400 m 1,0,-1
 0 200 l 1,1,-1
 200 200 l 1,2,-1
 200 400 l 1,3,-1
 0 400 l 1,0,-1
200 600 m 1,0,-1
 200 400 l 1,1,-1
 400 400 l 1,2,-1
 400 600 l 1,3,-1
 200 600 l 1,0,-1
400 800 m 1,0,-1
 400 600 l 1,1,-1
 600 600 l 1,2,-1
 600 800 l 1,3,-1
 400 800 l 1,0,-1
400 600 m 1,0,-1
 400 400 l 1,1,-1
 600 400 l 1,2,-1
 600 600 l 1,3,-1
 400 600 l 1,0,-1
EndSplineSet
EndChar

StartChar: u007f
Encoding: 127 127 114
Width: 800
VWidth: 1200
GlyphClass: 2
Flags: W
LayerCount: 2
Fore
SplineSet
0 600 m 1,0,-1
 0 400 l 1,1,-1
 200 400 l 1,2,-1
 200 600 l 1,3,-1
 0 600 l 1,0,-1
0 400 m 1,0,-1
 0 200 l 1,1,-1
 200 200 l 1,2,-1
 200 400 l 1,3,-1
 0 400 l 1,0,-1
0 200 m 1,0,-1
 0 0 l 1,1,-1
 200 0 l 1,2,-1
 200 200 l 1,3,-1
 0 200 l 1,0,-1
200 800 m 1,0,-1
 200 600 l 1,1,-1
 400 600 l 1,2,-1
 400 800 l 1,3,-1
 200 800 l 1,0,-1
200 200 m 1,0,-1
 200 0 l 1,1,-1
 400 0 l 1,2,-1
 400 200 l 1,3,-1
 200 200 l 1,0,-1
400 600 m 1,0,-1
 400 400 l 1,1,-1
 600 400 l 1,2,-1
 600 600 l 1,3,-1
 400 600 l 1,0,-1
400 400 m 1,0,-1
 400 200 l 1,1,-1
 600 200 l 1,2,-1
 600 400 l 1,3,-1
 400 400 l 1,0,-1
400 200 m 1,0,-1
 400 0 l 1,1,-1
 600 0 l 1,2,-1
 600 200 l 1,3,-1
 400 200 l 1,0,-1
EndSplineSet
EndChar

StartChar: u0080
Encoding: 128 128 115
Width: 1600
VWidth: 1200
GlyphClass: 2
Flags: W
LayerCount: 2
Fore
SplineSet
0 1000 m 1,0,-1
 0 800 l 1,1,-1
 200 800 l 1,2,-1
 200 1000 l 1,3,-1
 0 1000 l 1,0,-1
0 800 m 1,0,-1
 0 600 l 1,1,-1
 200 600 l 1,2,-1
 200 800 l 1,3,-1
 0 800 l 1,0,-1
0 600 m 1,0,-1
 0 400 l 1,1,-1
 200 400 l 1,2,-1
 200 600 l 1,3,-1
 0 600 l 1,0,-1
0 400 m 1,0,-1
 0 200 l 1,1,-1
 200 200 l 1,2,-1
 200 400 l 1,3,-1
 0 400 l 1,0,-1
0 200 m 1,0,-1
 0 0 l 1,1,-1
 200 0 l 1,2,-1
 200 200 l 1,3,-1
 0 200 l 1,0,-1
200 1000 m 1,0,-1
 200 800 l 1,1,-1
 400 800 l 1,2,-1
 400 1000 l 1,3,-1
 200 1000 l 1,0,-1
200 800 m 1,0,-1
 200 600 l 1,1,-1
 400 600 l 1,2,-1
 400 800 l 1,3,-1
 200 800 l 1,0,-1
200 600 m 1,0,-1
 200 400 l 1,1,-1
 400 400 l 1,2,-1
 400 600 l 1,3,-1
 200 600 l 1,0,-1
200 400 m 1,0,-1
 200 200 l 1,1,-1
 400 200 l 1,2,-1
 400 400 l 1,3,-1
 200 400 l 1,0,-1
200 200 m 1,0,-1
 200 0 l 1,1,-1
 400 0 l 1,2,-1
 400 200 l 1,3,-1
 200 200 l 1,0,-1
400 1000 m 1,0,-1
 400 800 l 1,1,-1
 600 800 l 1,2,-1
 600 1000 l 1,3,-1
 400 1000 l 1,0,-1
400 800 m 1,0,-1
 400 600 l 1,1,-1
 600 600 l 1,2,-1
 600 800 l 1,3,-1
 400 800 l 1,0,-1
400 600 m 1,0,-1
 400 400 l 1,1,-1
 600 400 l 1,2,-1
 600 600 l 1,3,-1
 400 600 l 1,0,-1
400 400 m 1,0,-1
 400 200 l 1,1,-1
 600 200 l 1,2,-1
 600 400 l 1,3,-1
 400 400 l 1,0,-1
400 200 m 1,0,-1
 400 0 l 1,1,-1
 600 0 l 1,2,-1
 600 200 l 1,3,-1
 400 200 l 1,0,-1
600 1000 m 1,0,-1
 600 800 l 1,1,-1
 800 800 l 1,2,-1
 800 1000 l 1,3,-1
 600 1000 l 1,0,-1
600 800 m 1,0,-1
 600 600 l 1,1,-1
 800 600 l 1,2,-1
 800 800 l 1,3,-1
 600 800 l 1,0,-1
600 600 m 1,0,-1
 600 400 l 1,1,-1
 800 400 l 1,2,-1
 800 600 l 1,3,-1
 600 600 l 1,0,-1
600 400 m 1,0,-1
 600 200 l 1,1,-1
 800 200 l 1,2,-1
 800 400 l 1,3,-1
 600 400 l 1,0,-1
600 200 m 1,0,-1
 600 0 l 1,1,-1
 800 0 l 1,2,-1
 800 200 l 1,3,-1
 600 200 l 1,0,-1
800 1000 m 1,0,-1
 800 800 l 1,1,-1
 1000 800 l 1,2,-1
 1000 1000 l 1,3,-1
 800 1000 l 1,0,-1
800 800 m 1,0,-1
 800 600 l 1,1,-1
 1000 600 l 1,2,-1
 1000 800 l 1,3,-1
 800 800 l 1,0,-1
800 600 m 1,0,-1
 800 400 l 1,1,-1
 1000 400 l 1,2,-1
 1000 600 l 1,3,-1
 800 600 l 1,0,-1
800 400 m 1,0,-1
 800 200 l 1,1,-1
 1000 200 l 1,2,-1
 1000 400 l 1,3,-1
 800 400 l 1,0,-1
800 200 m 1,0,-1
 800 0 l 1,1,-1
 1000 0 l 1,2,-1
 1000 200 l 1,3,-1
 800 200 l 1,0,-1
1000 1000 m 1,0,-1
 1000 800 l 1,1,-1
 1200 800 l 1,2,-1
 1200 1000 l 1,3,-1
 1000 1000 l 1,0,-1
1000 800 m 1,0,-1
 1000 600 l 1,1,-1
 1200 600 l 1,2,-1
 1200 800 l 1,3,-1
 1000 800 l 1,0,-1
1000 600 m 1,0,-1
 1000 400 l 1,1,-1
 1200 400 l 1,2,-1
 1200 600 l 1,3,-1
 1000 600 l 1,0,-1
1000 400 m 1,0,-1
 1000 200 l 1,1,-1
 1200 200 l 1,2,-1
 1200 400 l 1,3,-1
 1000 400 l 1,0,-1
1000 200 m 1,0,-1
 1000 0 l 1,1,-1
 1200 0 l 1,2,-1
 1200 200 l 1,3,-1
 1000 200 l 1,0,-1
1200 1000 m 1,0,-1
 1200 800 l 1,1,-1
 1400 800 l 1,2,-1
 1400 1000 l 1,3,-1
 1200 1000 l 1,0,-1
1200 800 m 1,0,-1
 1200 600 l 1,1,-1
 1400 600 l 1,2,-1
 1400 800 l 1,3,-1
 1200 800 l 1,0,-1
1200 600 m 1,0,-1
 1200 400 l 1,1,-1
 1400 400 l 1,2,-1
 1400 600 l 1,3,-1
 1200 600 l 1,0,-1
1200 400 m 1,0,-1
 1200 200 l 1,1,-1
 1400 200 l 1,2,-1
 1400 400 l 1,3,-1
 1200 400 l 1,0,-1
1200 200 m 1,0,-1
 1200 0 l 1,1,-1
 1400 0 l 1,2,-1
 1400 200 l 1,3,-1
 1200 200 l 1,0,-1
EndSplineSet
EndChar

StartChar: u0081
Encoding: 129 129 116
Width: 1600
VWidth: 1200
GlyphClass: 2
Flags: W
LayerCount: 2
Fore
SplineSet
0 1000 m 1,0,-1
 0 800 l 1,1,-1
 200 800 l 1,2,-1
 200 1000 l 1,3,-1
 0 1000 l 1,0,-1
0 600 m 1,0,-1
 0 400 l 1,1,-1
 200 400 l 1,2,-1
 200 600 l 1,3,-1
 0 600 l 1,0,-1
0 200 m 1,0,-1
 0 0 l 1,1,-1
 200 0 l 1,2,-1
 200 200 l 1,3,-1
 0 200 l 1,0,-1
200 800 m 1,0,-1
 200 600 l 1,1,-1
 400 600 l 1,2,-1
 400 800 l 1,3,-1
 200 800 l 1,0,-1
200 400 m 1,0,-1
 200 200 l 1,1,-1
 400 200 l 1,2,-1
 400 400 l 1,3,-1
 200 400 l 1,0,-1
400 1000 m 1,0,-1
 400 800 l 1,1,-1
 600 800 l 1,2,-1
 600 1000 l 1,3,-1
 400 1000 l 1,0,-1
400 600 m 1,0,-1
 400 400 l 1,1,-1
 600 400 l 1,2,-1
 600 600 l 1,3,-1
 400 600 l 1,0,-1
400 200 m 1,0,-1
 400 0 l 1,1,-1
 600 0 l 1,2,-1
 600 200 l 1,3,-1
 400 200 l 1,0,-1
600 800 m 1,0,-1
 600 600 l 1,1,-1
 800 600 l 1,2,-1
 800 800 l 1,3,-1
 600 800 l 1,0,-1
600 400 m 1,0,-1
 600 200 l 1,1,-1
 800 200 l 1,2,-1
 800 400 l 1,3,-1
 600 400 l 1,0,-1
800 1000 m 1,0,-1
 800 800 l 1,1,-1
 1000 800 l 1,2,-1
 1000 1000 l 1,3,-1
 800 1000 l 1,0,-1
800 600 m 1,0,-1
 800 400 l 1,1,-1
 1000 400 l 1,2,-1
 1000 600 l 1,3,-1
 800 600 l 1,0,-1
800 200 m 1,0,-1
 800 0 l 1,1,-1
 1000 0 l 1,2,-1
 1000 200 l 1,3,-1
 800 200 l 1,0,-1
1000 800 m 1,0,-1
 1000 600 l 1,1,-1
 1200 600 l 1,2,-1
 1200 800 l 1,3,-1
 1000 800 l 1,0,-1
1000 400 m 1,0,-1
 1000 200 l 1,1,-1
 1200 200 l 1,2,-1
 1200 400 l 1,3,-1
 1000 400 l 1,0,-1
1200 1000 m 1,0,-1
 1200 800 l 1,1,-1
 1400 800 l 1,2,-1
 1400 1000 l 1,3,-1
 1200 1000 l 1,0,-1
1200 600 m 1,0,-1
 1200 400 l 1,1,-1
 1400 400 l 1,2,-1
 1400 600 l 1,3,-1
 1200 600 l 1,0,-1
1200 200 m 1,0,-1
 1200 0 l 1,1,-1
 1400 0 l 1,2,-1
 1400 200 l 1,3,-1
 1200 200 l 1,0,-1
EndSplineSet
EndChar

StartChar: u0082
Encoding: 130 130 117
Width: 1600
VWidth: 1200
GlyphClass: 2
Flags: W
LayerCount: 2
Fore
SplineSet
0 1000 m 1,0,-1
 0 800 l 1,1,-1
 200 800 l 1,2,-1
 200 1000 l 1,3,-1
 0 1000 l 1,0,-1
0 800 m 1,0,-1
 0 600 l 1,1,-1
 200 600 l 1,2,-1
 200 800 l 1,3,-1
 0 800 l 1,0,-1
0 600 m 1,0,-1
 0 400 l 1,1,-1
 200 400 l 1,2,-1
 200 600 l 1,3,-1
 0 600 l 1,0,-1
0 400 m 1,0,-1
 0 200 l 1,1,-1
 200 200 l 1,2,-1
 200 400 l 1,3,-1
 0 400 l 1,0,-1
200 800 m 1,0,-1
 200 600 l 1,1,-1
 400 600 l 1,2,-1
 400 800 l 1,3,-1
 200 800 l 1,0,-1
200 200 m 1,0,-1
 200 0 l 1,1,-1
 400 0 l 1,2,-1
 400 200 l 1,3,-1
 200 200 l 1,0,-1
400 800 m 1,0,-1
 400 600 l 1,1,-1
 600 600 l 1,2,-1
 600 800 l 1,3,-1
 400 800 l 1,0,-1
400 600 m 1,0,-1
 400 400 l 1,1,-1
 600 400 l 1,2,-1
 600 600 l 1,3,-1
 400 600 l 1,0,-1
400 400 m 1,0,-1
 400 200 l 1,1,-1
 600 200 l 1,2,-1
 600 400 l 1,3,-1
 400 400 l 1,0,-1
400 200 m 1,0,-1
 400 0 l 1,1,-1
 600 0 l 1,2,-1
 600 200 l 1,3,-1
 400 200 l 1,0,-1
600 800 m 1,0,-1
 600 600 l 1,1,-1
 800 600 l 1,2,-1
 800 800 l 1,3,-1
 600 800 l 1,0,-1
600 600 m 1,0,-1
 600 400 l 1,1,-1
 800 400 l 1,2,-1
 800 600 l 1,3,-1
 600 600 l 1,0,-1
600 400 m 1,0,-1
 600 200 l 1,1,-1
 800 200 l 1,2,-1
 800 400 l 1,3,-1
 600 400 l 1,0,-1
600 200 m 1,0,-1
 600 0 l 1,1,-1
 800 0 l 1,2,-1
 800 200 l 1,3,-1
 600 200 l 1,0,-1
800 800 m 1,0,-1
 800 600 l 1,1,-1
 1000 600 l 1,2,-1
 1000 800 l 1,3,-1
 800 800 l 1,0,-1
800 600 m 1,0,-1
 800 400 l 1,1,-1
 1000 400 l 1,2,-1
 1000 600 l 1,3,-1
 800 600 l 1,0,-1
800 400 m 1,0,-1
 800 200 l 1,1,-1
 1000 200 l 1,2,-1
 1000 400 l 1,3,-1
 800 400 l 1,0,-1
800 200 m 1,0,-1
 800 0 l 1,1,-1
 1000 0 l 1,2,-1
 1000 200 l 1,3,-1
 800 200 l 1,0,-1
1000 800 m 1,0,-1
 1000 600 l 1,1,-1
 1200 600 l 1,2,-1
 1200 800 l 1,3,-1
 1000 800 l 1,0,-1
1000 200 m 1,0,-1
 1000 0 l 1,1,-1
 1200 0 l 1,2,-1
 1200 200 l 1,3,-1
 1000 200 l 1,0,-1
1200 1000 m 1,0,-1
 1200 800 l 1,1,-1
 1400 800 l 1,2,-1
 1400 1000 l 1,3,-1
 1200 1000 l 1,0,-1
1200 800 m 1,0,-1
 1200 600 l 1,1,-1
 1400 600 l 1,2,-1
 1400 800 l 1,3,-1
 1200 800 l 1,0,-1
1200 600 m 1,0,-1
 1200 400 l 1,1,-1
 1400 400 l 1,2,-1
 1400 600 l 1,3,-1
 1200 600 l 1,0,-1
1200 400 m 1,0,-1
 1200 200 l 1,1,-1
 1400 200 l 1,2,-1
 1400 400 l 1,3,-1
 1200 400 l 1,0,-1
EndSplineSet
EndChar

StartChar: u0083
Encoding: 131 131 118
Width: 1600
VWidth: 1200
GlyphClass: 2
Flags: W
LayerCount: 2
Fore
SplineSet
0 800 m 1,0,-1
 0 600 l 1,1,-1
 200 600 l 1,2,-1
 200 800 l 1,3,-1
 0 800 l 1,0,-1
0 600 m 1,0,-1
 0 400 l 1,1,-1
 200 400 l 1,2,-1
 200 600 l 1,3,-1
 0 600 l 1,0,-1
0 400 m 1,0,-1
 0 200 l 1,1,-1
 200 200 l 1,2,-1
 200 400 l 1,3,-1
 0 400 l 1,0,-1
200 1000 m 1,0,-1
 200 800 l 1,1,-1
 400 800 l 1,2,-1
 400 1000 l 1,3,-1
 200 1000 l 1,0,-1
200 800 m 1,0,-1
 200 600 l 1,1,-1
 400 600 l 1,2,-1
 400 800 l 1,3,-1
 200 800 l 1,0,-1
200 600 m 1,0,-1
 200 400 l 1,1,-1
 400 400 l 1,2,-1
 400 600 l 1,3,-1
 200 600 l 1,0,-1
200 400 m 1,0,-1
 200 200 l 1,1,-1
 400 200 l 1,2,-1
 400 400 l 1,3,-1
 200 400 l 1,0,-1
200 200 m 1,0,-1
 200 0 l 1,1,-1
 400 0 l 1,2,-1
 400 200 l 1,3,-1
 200 200 l 1,0,-1
400 1000 m 1,0,-1
 400 800 l 1,1,-1
 600 800 l 1,2,-1
 600 1000 l 1,3,-1
 400 1000 l 1,0,-1
400 400 m 1,0,-1
 400 200 l 1,1,-1
 600 200 l 1,2,-1
 600 400 l 1,3,-1
 400 400 l 1,0,-1
400 200 m 1,0,-1
 400 0 l 1,1,-1
 600 0 l 1,2,-1
 600 200 l 1,3,-1
 400 200 l 1,0,-1
600 1000 m 1,0,-1
 600 800 l 1,1,-1
 800 800 l 1,2,-1
 800 1000 l 1,3,-1
 600 1000 l 1,0,-1
600 200 m 1,0,-1
 600 0 l 1,1,-1
 800 0 l 1,2,-1
 800 200 l 1,3,-1
 600 200 l 1,0,-1
800 1000 m 1,0,-1
 800 800 l 1,1,-1
 1000 800 l 1,2,-1
 1000 1000 l 1,3,-1
 800 1000 l 1,0,-1
800 400 m 1,0,-1
 800 200 l 1,1,-1
 1000 200 l 1,2,-1
 1000 400 l 1,3,-1
 800 400 l 1,0,-1
800 200 m 1,0,-1
 800 0 l 1,1,-1
 1000 0 l 1,2,-1
 1000 200 l 1,3,-1
 800 200 l 1,0,-1
1000 1000 m 1,0,-1
 1000 800 l 1,1,-1
 1200 800 l 1,2,-1
 1200 1000 l 1,3,-1
 1000 1000 l 1,0,-1
1000 800 m 1,0,-1
 1000 600 l 1,1,-1
 1200 600 l 1,2,-1
 1200 800 l 1,3,-1
 1000 800 l 1,0,-1
1000 600 m 1,0,-1
 1000 400 l 1,1,-1
 1200 400 l 1,2,-1
 1200 600 l 1,3,-1
 1000 600 l 1,0,-1
1000 400 m 1,0,-1
 1000 200 l 1,1,-1
 1200 200 l 1,2,-1
 1200 400 l 1,3,-1
 1000 400 l 1,0,-1
1000 200 m 1,0,-1
 1000 0 l 1,1,-1
 1200 0 l 1,2,-1
 1200 200 l 1,3,-1
 1000 200 l 1,0,-1
1200 800 m 1,0,-1
 1200 600 l 1,1,-1
 1400 600 l 1,2,-1
 1400 800 l 1,3,-1
 1200 800 l 1,0,-1
1200 600 m 1,0,-1
 1200 400 l 1,1,-1
 1400 400 l 1,2,-1
 1400 600 l 1,3,-1
 1200 600 l 1,0,-1
1200 400 m 1,0,-1
 1200 200 l 1,1,-1
 1400 200 l 1,2,-1
 1400 400 l 1,3,-1
 1200 400 l 1,0,-1
EndSplineSet
EndChar

StartChar: u0084
Encoding: 132 132 119
Width: 1600
VWidth: 1200
GlyphClass: 2
Flags: W
LayerCount: 2
Fore
SplineSet
0 1000 m 1,0,-1
 0 800 l 1,1,-1
 200 800 l 1,2,-1
 200 1000 l 1,3,-1
 0 1000 l 1,0,-1
0 600 m 1,0,-1
 0 400 l 1,1,-1
 200 400 l 1,2,-1
 200 600 l 1,3,-1
 0 600 l 1,0,-1
0 200 m 1,0,-1
 0 0 l 1,1,-1
 200 0 l 1,2,-1
 200 200 l 1,3,-1
 0 200 l 1,0,-1
400 800 m 1,0,-1
 400 600 l 1,1,-1
 600 600 l 1,2,-1
 600 800 l 1,3,-1
 400 800 l 1,0,-1
400 400 m 1,0,-1
 400 200 l 1,1,-1
 600 200 l 1,2,-1
 600 400 l 1,3,-1
 400 400 l 1,0,-1
800 1000 m 1,0,-1
 800 800 l 1,1,-1
 1000 800 l 1,2,-1
 1000 1000 l 1,3,-1
 800 1000 l 1,0,-1
800 600 m 1,0,-1
 800 400 l 1,1,-1
 1000 400 l 1,2,-1
 1000 600 l 1,3,-1
 800 600 l 1,0,-1
800 200 m 1,0,-1
 800 0 l 1,1,-1
 1000 0 l 1,2,-1
 1000 200 l 1,3,-1
 800 200 l 1,0,-1
1200 800 m 1,0,-1
 1200 600 l 1,1,-1
 1400 600 l 1,2,-1
 1400 800 l 1,3,-1
 1200 800 l 1,0,-1
1200 400 m 1,0,-1
 1200 200 l 1,1,-1
 1400 200 l 1,2,-1
 1400 400 l 1,3,-1
 1200 400 l 1,0,-1
EndSplineSet
EndChar

StartChar: u0085
Encoding: 133 133 120
Width: 1600
VWidth: 1200
GlyphClass: 2
Flags: W
LayerCount: 2
Fore
SplineSet
200 400 m 1,0,-1
 200 200 l 1,1,-1
 400 200 l 1,2,-1
 400 400 l 1,3,-1
 200 400 l 1,0,-1
400 1000 m 1,0,-1
 400 800 l 1,1,-1
 600 800 l 1,2,-1
 600 1000 l 1,3,-1
 400 1000 l 1,0,-1
400 800 m 1,0,-1
 400 600 l 1,1,-1
 600 600 l 1,2,-1
 600 800 l 1,3,-1
 400 800 l 1,0,-1
400 600 m 1,0,-1
 400 400 l 1,1,-1
 600 400 l 1,2,-1
 600 600 l 1,3,-1
 400 600 l 1,0,-1
400 400 m 1,0,-1
 400 200 l 1,1,-1
 600 200 l 1,2,-1
 600 400 l 1,3,-1
 400 400 l 1,0,-1
600 800 m 1,0,-1
 600 600 l 1,1,-1
 800 600 l 1,2,-1
 800 800 l 1,3,-1
 600 800 l 1,0,-1
600 600 m 1,0,-1
 600 400 l 1,1,-1
 800 400 l 1,2,-1
 800 600 l 1,3,-1
 600 600 l 1,0,-1
600 400 m 1,0,-1
 600 200 l 1,1,-1
 800 200 l 1,2,-1
 800 400 l 1,3,-1
 600 400 l 1,0,-1
800 800 m 1,0,-1
 800 600 l 1,1,-1
 1000 600 l 1,2,-1
 1000 800 l 1,3,-1
 800 800 l 1,0,-1
800 600 m 1,0,-1
 800 400 l 1,1,-1
 1000 400 l 1,2,-1
 1000 600 l 1,3,-1
 800 600 l 1,0,-1
800 400 m 1,0,-1
 800 200 l 1,1,-1
 1000 200 l 1,2,-1
 1000 400 l 1,3,-1
 800 400 l 1,0,-1
800 200 m 1,0,-1
 800 0 l 1,1,-1
 1000 0 l 1,2,-1
 1000 200 l 1,3,-1
 800 200 l 1,0,-1
1000 800 m 1,0,-1
 1000 600 l 1,1,-1
 1200 600 l 1,2,-1
 1200 800 l 1,3,-1
 1000 800 l 1,0,-1
EndSplineSet
EndChar

StartChar: u0086
Encoding: 134 134 121
Width: 1600
VWidth: 1200
GlyphClass: 2
Flags: W
LayerCount: 2
Fore
SplineSet
200 800 m 1,0,-1
 200 600 l 1,1,-1
 400 600 l 1,2,-1
 400 800 l 1,3,-1
 200 800 l 1,0,-1
200 600 m 1,0,-1
 200 400 l 1,1,-1
 400 400 l 1,2,-1
 400 600 l 1,3,-1
 200 600 l 1,0,-1
200 400 m 1,0,-1
 200 200 l 1,1,-1
 400 200 l 1,2,-1
 400 400 l 1,3,-1
 200 400 l 1,0,-1
400 1000 m 1,0,-1
 400 800 l 1,1,-1
 600 800 l 1,2,-1
 600 1000 l 1,3,-1
 400 1000 l 1,0,-1
400 800 m 1,0,-1
 400 600 l 1,1,-1
 600 600 l 1,2,-1
 600 800 l 1,3,-1
 400 800 l 1,0,-1
400 600 m 1,0,-1
 400 400 l 1,1,-1
 600 400 l 1,2,-1
 600 600 l 1,3,-1
 400 600 l 1,0,-1
400 400 m 1,0,-1
 400 200 l 1,1,-1
 600 200 l 1,2,-1
 600 400 l 1,3,-1
 400 400 l 1,0,-1
400 200 m 1,0,-1
 400 0 l 1,1,-1
 600 0 l 1,2,-1
 600 200 l 1,3,-1
 400 200 l 1,0,-1
600 1000 m 1,0,-1
 600 800 l 1,1,-1
 800 800 l 1,2,-1
 800 1000 l 1,3,-1
 600 1000 l 1,0,-1
600 800 m 1,0,-1
 600 600 l 1,1,-1
 800 600 l 1,2,-1
 800 800 l 1,3,-1
 600 800 l 1,0,-1
600 600 m 1,0,-1
 600 400 l 1,1,-1
 800 400 l 1,2,-1
 800 600 l 1,3,-1
 600 600 l 1,0,-1
600 400 m 1,0,-1
 600 200 l 1,1,-1
 800 200 l 1,2,-1
 800 400 l 1,3,-1
 600 400 l 1,0,-1
600 200 m 1,0,-1
 600 0 l 1,1,-1
 800 0 l 1,2,-1
 800 200 l 1,3,-1
 600 200 l 1,0,-1
800 1000 m 1,0,-1
 800 800 l 1,1,-1
 1000 800 l 1,2,-1
 1000 1000 l 1,3,-1
 800 1000 l 1,0,-1
800 600 m 1,0,-1
 800 400 l 1,1,-1
 1000 400 l 1,2,-1
 1000 600 l 1,3,-1
 800 600 l 1,0,-1
800 400 m 1,0,-1
 800 200 l 1,1,-1
 1000 200 l 1,2,-1
 1000 400 l 1,3,-1
 800 400 l 1,0,-1
800 200 m 1,0,-1
 800 0 l 1,1,-1
 1000 0 l 1,2,-1
 1000 200 l 1,3,-1
 800 200 l 1,0,-1
1000 800 m 1,0,-1
 1000 600 l 1,1,-1
 1200 600 l 1,2,-1
 1200 800 l 1,3,-1
 1000 800 l 1,0,-1
1000 600 m 1,0,-1
 1000 400 l 1,1,-1
 1200 400 l 1,2,-1
 1200 600 l 1,3,-1
 1000 600 l 1,0,-1
1000 400 m 1,0,-1
 1000 200 l 1,1,-1
 1200 200 l 1,2,-1
 1200 400 l 1,3,-1
 1000 400 l 1,0,-1
EndSplineSet
EndChar

StartChar: u0087
Encoding: 135 135 122
Width: 1600
VWidth: 1200
GlyphClass: 2
Flags: W
LayerCount: 2
Fore
SplineSet
200 1000 m 1,0,-1
 200 800 l 1,1,-1
 400 800 l 1,2,-1
 400 1000 l 1,3,-1
 200 1000 l 1,0,-1
200 800 m 1,0,-1
 200 600 l 1,1,-1
 400 600 l 1,2,-1
 400 800 l 1,3,-1
 200 800 l 1,0,-1
200 600 m 1,0,-1
 200 400 l 1,1,-1
 400 400 l 1,2,-1
 400 600 l 1,3,-1
 200 600 l 1,0,-1
400 1000 m 1,0,-1
 400 800 l 1,1,-1
 600 800 l 1,2,-1
 600 1000 l 1,3,-1
 400 1000 l 1,0,-1
400 800 m 1,0,-1
 400 600 l 1,1,-1
 600 600 l 1,2,-1
 600 800 l 1,3,-1
 400 800 l 1,0,-1
400 600 m 1,0,-1
 400 400 l 1,1,-1
 600 400 l 1,2,-1
 600 600 l 1,3,-1
 400 600 l 1,0,-1
400 400 m 1,0,-1
 400 200 l 1,1,-1
 600 200 l 1,2,-1
 600 400 l 1,3,-1
 400 400 l 1,0,-1
600 800 m 1,0,-1
 600 600 l 1,1,-1
 800 600 l 1,2,-1
 800 800 l 1,3,-1
 600 800 l 1,0,-1
600 600 m 1,0,-1
 600 400 l 1,1,-1
 800 400 l 1,2,-1
 800 600 l 1,3,-1
 600 600 l 1,0,-1
600 400 m 1,0,-1
 600 200 l 1,1,-1
 800 200 l 1,2,-1
 800 400 l 1,3,-1
 600 400 l 1,0,-1
600 200 m 1,0,-1
 600 0 l 1,1,-1
 800 0 l 1,2,-1
 800 200 l 1,3,-1
 600 200 l 1,0,-1
800 1000 m 1,0,-1
 800 800 l 1,1,-1
 1000 800 l 1,2,-1
 1000 1000 l 1,3,-1
 800 1000 l 1,0,-1
800 800 m 1,0,-1
 800 600 l 1,1,-1
 1000 600 l 1,2,-1
 1000 800 l 1,3,-1
 800 800 l 1,0,-1
800 600 m 1,0,-1
 800 400 l 1,1,-1
 1000 400 l 1,2,-1
 1000 600 l 1,3,-1
 800 600 l 1,0,-1
800 400 m 1,0,-1
 800 200 l 1,1,-1
 1000 200 l 1,2,-1
 1000 400 l 1,3,-1
 800 400 l 1,0,-1
1000 1000 m 1,0,-1
 1000 800 l 1,1,-1
 1200 800 l 1,2,-1
 1200 1000 l 1,3,-1
 1000 1000 l 1,0,-1
1000 800 m 1,0,-1
 1000 600 l 1,1,-1
 1200 600 l 1,2,-1
 1200 800 l 1,3,-1
 1000 800 l 1,0,-1
1000 600 m 1,0,-1
 1000 400 l 1,1,-1
 1200 400 l 1,2,-1
 1200 600 l 1,3,-1
 1000 600 l 1,0,-1
EndSplineSet
EndChar

StartChar: u0088
Encoding: 136 136 123
Width: 1600
VWidth: 1200
GlyphClass: 2
Flags: W
LayerCount: 2
Fore
SplineSet
0 600 m 1,0,-1
 0 400 l 1,1,-1
 200 400 l 1,2,-1
 200 600 l 1,3,-1
 0 600 l 1,0,-1
200 800 m 1,0,-1
 200 600 l 1,1,-1
 400 600 l 1,2,-1
 400 800 l 1,3,-1
 200 800 l 1,0,-1
200 600 m 1,0,-1
 200 400 l 1,1,-1
 400 400 l 1,2,-1
 400 600 l 1,3,-1
 200 600 l 1,0,-1
200 400 m 1,0,-1
 200 200 l 1,1,-1
 400 200 l 1,2,-1
 400 400 l 1,3,-1
 200 400 l 1,0,-1
400 1000 m 1,0,-1
 400 800 l 1,1,-1
 600 800 l 1,2,-1
 600 1000 l 1,3,-1
 400 1000 l 1,0,-1
400 800 m 1,0,-1
 400 600 l 1,1,-1
 600 600 l 1,2,-1
 600 800 l 1,3,-1
 400 800 l 1,0,-1
400 600 m 1,0,-1
 400 400 l 1,1,-1
 600 400 l 1,2,-1
 600 600 l 1,3,-1
 400 600 l 1,0,-1
400 400 m 1,0,-1
 400 200 l 1,1,-1
 600 200 l 1,2,-1
 600 400 l 1,3,-1
 400 400 l 1,0,-1
400 200 m 1,0,-1
 400 0 l 1,1,-1
 600 0 l 1,2,-1
 600 200 l 1,3,-1
 400 200 l 1,0,-1
600 1000 m 1,0,-1
 600 800 l 1,1,-1
 800 800 l 1,2,-1
 800 1000 l 1,3,-1
 600 1000 l 1,0,-1
600 200 m 1,0,-1
 600 0 l 1,1,-1
 800 0 l 1,2,-1
 800 200 l 1,3,-1
 600 200 l 1,0,-1
800 1000 m 1,0,-1
 800 800 l 1,1,-1
 1000 800 l 1,2,-1
 1000 1000 l 1,3,-1
 800 1000 l 1,0,-1
800 800 m 1,0,-1
 800 600 l 1,1,-1
 1000 600 l 1,2,-1
 1000 800 l 1,3,-1
 800 800 l 1,0,-1
800 600 m 1,0,-1
 800 400 l 1,1,-1
 1000 400 l 1,2,-1
 1000 600 l 1,3,-1
 800 600 l 1,0,-1
800 400 m 1,0,-1
 800 200 l 1,1,-1
 1000 200 l 1,2,-1
 1000 400 l 1,3,-1
 800 400 l 1,0,-1
800 200 m 1,0,-1
 800 0 l 1,1,-1
 1000 0 l 1,2,-1
 1000 200 l 1,3,-1
 800 200 l 1,0,-1
1000 800 m 1,0,-1
 1000 600 l 1,1,-1
 1200 600 l 1,2,-1
 1200 800 l 1,3,-1
 1000 800 l 1,0,-1
1000 600 m 1,0,-1
 1000 400 l 1,1,-1
 1200 400 l 1,2,-1
 1200 600 l 1,3,-1
 1000 600 l 1,0,-1
1000 400 m 1,0,-1
 1000 200 l 1,1,-1
 1200 200 l 1,2,-1
 1200 400 l 1,3,-1
 1000 400 l 1,0,-1
1200 600 m 1,0,-1
 1200 400 l 1,1,-1
 1400 400 l 1,2,-1
 1400 600 l 1,3,-1
 1200 600 l 1,0,-1
EndSplineSet
EndChar

StartChar: u0089
Encoding: 137 137 124
Width: 1600
VWidth: 1200
GlyphClass: 2
Flags: W
LayerCount: 2
Fore
SplineSet
200 600 m 1,0,-1
 200 400 l 1,1,-1
 400 400 l 1,2,-1
 400 600 l 1,3,-1
 200 600 l 1,0,-1
400 1000 m 1,0,-1
 400 800 l 1,1,-1
 600 800 l 1,2,-1
 600 1000 l 1,3,-1
 400 1000 l 1,0,-1
400 800 m 1,0,-1
 400 600 l 1,1,-1
 600 600 l 1,2,-1
 600 800 l 1,3,-1
 400 800 l 1,0,-1
400 600 m 1,0,-1
 400 400 l 1,1,-1
 600 400 l 1,2,-1
 600 600 l 1,3,-1
 400 600 l 1,0,-1
400 400 m 1,0,-1
 400 200 l 1,1,-1
 600 200 l 1,2,-1
 600 400 l 1,3,-1
 400 400 l 1,0,-1
400 200 m 1,0,-1
 400 0 l 1,1,-1
 600 0 l 1,2,-1
 600 200 l 1,3,-1
 400 200 l 1,0,-1
600 1000 m 1,0,-1
 600 800 l 1,1,-1
 800 800 l 1,2,-1
 800 1000 l 1,3,-1
 600 1000 l 1,0,-1
600 800 m 1,0,-1
 600 600 l 1,1,-1
 800 600 l 1,2,-1
 800 800 l 1,3,-1
 600 800 l 1,0,-1
600 600 m 1,0,-1
 600 400 l 1,1,-1
 800 400 l 1,2,-1
 800 600 l 1,3,-1
 600 600 l 1,0,-1
600 400 m 1,0,-1
 600 200 l 1,1,-1
 800 200 l 1,2,-1
 800 400 l 1,3,-1
 600 400 l 1,0,-1
800 1000 m 1,0,-1
 800 800 l 1,1,-1
 1000 800 l 1,2,-1
 1000 1000 l 1,3,-1
 800 1000 l 1,0,-1
800 800 m 1,0,-1
 800 600 l 1,1,-1
 1000 600 l 1,2,-1
 1000 800 l 1,3,-1
 800 800 l 1,0,-1
800 600 m 1,0,-1
 800 400 l 1,1,-1
 1000 400 l 1,2,-1
 1000 600 l 1,3,-1
 800 600 l 1,0,-1
800 400 m 1,0,-1
 800 200 l 1,1,-1
 1000 200 l 1,2,-1
 1000 400 l 1,3,-1
 800 400 l 1,0,-1
800 200 m 1,0,-1
 800 0 l 1,1,-1
 1000 0 l 1,2,-1
 1000 200 l 1,3,-1
 800 200 l 1,0,-1
1000 600 m 1,0,-1
 1000 400 l 1,1,-1
 1200 400 l 1,2,-1
 1200 600 l 1,3,-1
 1000 600 l 1,0,-1
EndSplineSet
EndChar

StartChar: u008a
Encoding: 138 138 125
Width: 1600
VWidth: 1200
GlyphClass: 2
Flags: W
LayerCount: 2
Fore
SplineSet
0 600 m 1,0,-1
 0 400 l 1,1,-1
 200 400 l 1,2,-1
 200 600 l 1,3,-1
 0 600 l 1,0,-1
200 800 m 1,0,-1
 200 600 l 1,1,-1
 400 600 l 1,2,-1
 400 800 l 1,3,-1
 200 800 l 1,0,-1
200 600 m 1,0,-1
 200 400 l 1,1,-1
 400 400 l 1,2,-1
 400 600 l 1,3,-1
 200 600 l 1,0,-1
200 400 m 1,0,-1
 200 200 l 1,1,-1
 400 200 l 1,2,-1
 400 400 l 1,3,-1
 200 400 l 1,0,-1
200 200 m 1,0,-1
 200 0 l 1,1,-1
 400 0 l 1,2,-1
 400 200 l 1,3,-1
 200 200 l 1,0,-1
400 1000 m 1,0,-1
 400 800 l 1,1,-1
 600 800 l 1,2,-1
 600 1000 l 1,3,-1
 400 1000 l 1,0,-1
400 800 m 1,0,-1
 400 600 l 1,1,-1
 600 600 l 1,2,-1
 600 800 l 1,3,-1
 400 800 l 1,0,-1
400 600 m 1,0,-1
 400 400 l 1,1,-1
 600 400 l 1,2,-1
 600 600 l 1,3,-1
 400 600 l 1,0,-1
600 1000 m 1,0,-1
 600 800 l 1,1,-1
 800 800 l 1,2,-1
 800 1000 l 1,3,-1
 600 1000 l 1,0,-1
600 800 m 1,0,-1
 600 600 l 1,1,-1
 800 600 l 1,2,-1
 800 800 l 1,3,-1
 600 800 l 1,0,-1
600 600 m 1,0,-1
 600 400 l 1,1,-1
 800 400 l 1,2,-1
 800 600 l 1,3,-1
 600 600 l 1,0,-1
600 400 m 1,0,-1
 600 200 l 1,1,-1
 800 200 l 1,2,-1
 800 400 l 1,3,-1
 600 400 l 1,0,-1
600 200 m 1,0,-1
 600 0 l 1,1,-1
 800 0 l 1,2,-1
 800 200 l 1,3,-1
 600 200 l 1,0,-1
800 1000 m 1,0,-1
 800 800 l 1,1,-1
 1000 800 l 1,2,-1
 1000 1000 l 1,3,-1
 800 1000 l 1,0,-1
800 800 m 1,0,-1
 800 600 l 1,1,-1
 1000 600 l 1,2,-1
 1000 800 l 1,3,-1
 800 800 l 1,0,-1
800 600 m 1,0,-1
 800 400 l 1,1,-1
 1000 400 l 1,2,-1
 1000 600 l 1,3,-1
 800 600 l 1,0,-1
800 200 m 1,0,-1
 800 0 l 1,1,-1
 1000 0 l 1,2,-1
 1000 200 l 1,3,-1
 800 200 l 1,0,-1
1000 800 m 1,0,-1
 1000 600 l 1,1,-1
 1200 600 l 1,2,-1
 1200 800 l 1,3,-1
 1000 800 l 1,0,-1
1000 600 m 1,0,-1
 1000 400 l 1,1,-1
 1200 400 l 1,2,-1
 1200 600 l 1,3,-1
 1000 600 l 1,0,-1
1000 400 m 1,0,-1
 1000 200 l 1,1,-1
 1200 200 l 1,2,-1
 1200 400 l 1,3,-1
 1000 400 l 1,0,-1
1000 200 m 1,0,-1
 1000 0 l 1,1,-1
 1200 0 l 1,2,-1
 1200 200 l 1,3,-1
 1000 200 l 1,0,-1
1200 600 m 1,0,-1
 1200 400 l 1,1,-1
 1400 400 l 1,2,-1
 1400 600 l 1,3,-1
 1200 600 l 1,0,-1
EndSplineSet
EndChar

StartChar: u008b
Encoding: 139 139 126
Width: 1600
VWidth: 1200
GlyphClass: 2
Flags: W
LayerCount: 2
Fore
SplineSet
0 800 m 1,0,-1
 0 600 l 1,1,-1
 200 600 l 1,2,-1
 200 800 l 1,3,-1
 0 800 l 1,0,-1
0 600 m 1,0,-1
 0 400 l 1,1,-1
 200 400 l 1,2,-1
 200 600 l 1,3,-1
 0 600 l 1,0,-1
0 400 m 1,0,-1
 0 200 l 1,1,-1
 200 200 l 1,2,-1
 200 400 l 1,3,-1
 0 400 l 1,0,-1
200 1000 m 1,0,-1
 200 800 l 1,1,-1
 400 800 l 1,2,-1
 400 1000 l 1,3,-1
 200 1000 l 1,0,-1
200 800 m 1,0,-1
 200 600 l 1,1,-1
 400 600 l 1,2,-1
 400 800 l 1,3,-1
 200 800 l 1,0,-1
200 600 m 1,0,-1
 200 400 l 1,1,-1
 400 400 l 1,2,-1
 400 600 l 1,3,-1
 200 600 l 1,0,-1
200 400 m 1,0,-1
 200 200 l 1,1,-1
 400 200 l 1,2,-1
 400 400 l 1,3,-1
 200 400 l 1,0,-1
200 200 m 1,0,-1
 200 0 l 1,1,-1
 400 0 l 1,2,-1
 400 200 l 1,3,-1
 200 200 l 1,0,-1
400 1000 m 1,0,-1
 400 800 l 1,1,-1
 600 800 l 1,2,-1
 600 1000 l 1,3,-1
 400 1000 l 1,0,-1
400 800 m 1,0,-1
 400 600 l 1,1,-1
 600 600 l 1,2,-1
 600 800 l 1,3,-1
 400 800 l 1,0,-1
400 400 m 1,0,-1
 400 200 l 1,1,-1
 600 200 l 1,2,-1
 600 400 l 1,3,-1
 400 400 l 1,0,-1
400 200 m 1,0,-1
 400 0 l 1,1,-1
 600 0 l 1,2,-1
 600 200 l 1,3,-1
 400 200 l 1,0,-1
600 1000 m 1,0,-1
 600 800 l 1,1,-1
 800 800 l 1,2,-1
 800 1000 l 1,3,-1
 600 1000 l 1,0,-1
600 200 m 1,0,-1
 600 0 l 1,1,-1
 800 0 l 1,2,-1
 800 200 l 1,3,-1
 600 200 l 1,0,-1
800 1000 m 1,0,-1
 800 800 l 1,1,-1
 1000 800 l 1,2,-1
 1000 1000 l 1,3,-1
 800 1000 l 1,0,-1
800 200 m 1,0,-1
 800 0 l 1,1,-1
 1000 0 l 1,2,-1
 1000 200 l 1,3,-1
 800 200 l 1,0,-1
1000 1000 m 1,0,-1
 1000 800 l 1,1,-1
 1200 800 l 1,2,-1
 1200 1000 l 1,3,-1
 1000 1000 l 1,0,-1
1000 800 m 1,0,-1
 1000 600 l 1,1,-1
 1200 600 l 1,2,-1
 1200 800 l 1,3,-1
 1000 800 l 1,0,-1
1000 600 m 1,0,-1
 1000 400 l 1,1,-1
 1200 400 l 1,2,-1
 1200 600 l 1,3,-1
 1000 600 l 1,0,-1
1000 400 m 1,0,-1
 1000 200 l 1,1,-1
 1200 200 l 1,2,-1
 1200 400 l 1,3,-1
 1000 400 l 1,0,-1
1000 200 m 1,0,-1
 1000 0 l 1,1,-1
 1200 0 l 1,2,-1
 1200 200 l 1,3,-1
 1000 200 l 1,0,-1
1200 800 m 1,0,-1
 1200 600 l 1,1,-1
 1400 600 l 1,2,-1
 1400 800 l 1,3,-1
 1200 800 l 1,0,-1
1200 600 m 1,0,-1
 1200 400 l 1,1,-1
 1400 400 l 1,2,-1
 1400 600 l 1,3,-1
 1200 600 l 1,0,-1
1200 400 m 1,0,-1
 1200 200 l 1,1,-1
 1400 200 l 1,2,-1
 1400 400 l 1,3,-1
 1200 400 l 1,0,-1
EndSplineSet
EndChar

StartChar: u008c
Encoding: 140 140 127
Width: 1600
VWidth: 1200
GlyphClass: 2
Flags: W
LayerCount: 2
Fore
SplineSet
0 1000 m 1,0,-1
 0 800 l 1,1,-1
 200 800 l 1,2,-1
 200 1000 l 1,3,-1
 0 1000 l 1,0,-1
0 800 m 1,0,-1
 0 600 l 1,1,-1
 200 600 l 1,2,-1
 200 800 l 1,3,-1
 0 800 l 1,0,-1
0 600 m 1,0,-1
 0 400 l 1,1,-1
 200 400 l 1,2,-1
 200 600 l 1,3,-1
 0 600 l 1,0,-1
0 400 m 1,0,-1
 0 200 l 1,1,-1
 200 200 l 1,2,-1
 200 400 l 1,3,-1
 0 400 l 1,0,-1
0 200 m 1,0,-1
 0 0 l 1,1,-1
 200 0 l 1,2,-1
 200 200 l 1,3,-1
 0 200 l 1,0,-1
200 1000 m 1,0,-1
 200 800 l 1,1,-1
 400 800 l 1,2,-1
 400 1000 l 1,3,-1
 200 1000 l 1,0,-1
200 600 m 1,0,-1
 200 400 l 1,1,-1
 400 400 l 1,2,-1
 400 600 l 1,3,-1
 200 600 l 1,0,-1
200 200 m 1,0,-1
 200 0 l 1,1,-1
 400 0 l 1,2,-1
 400 200 l 1,3,-1
 200 200 l 1,0,-1
400 1000 m 1,0,-1
 400 800 l 1,1,-1
 600 800 l 1,2,-1
 600 1000 l 1,3,-1
 400 1000 l 1,0,-1
400 800 m 1,0,-1
 400 600 l 1,1,-1
 600 600 l 1,2,-1
 600 800 l 1,3,-1
 400 800 l 1,0,-1
400 600 m 1,0,-1
 400 400 l 1,1,-1
 600 400 l 1,2,-1
 600 600 l 1,3,-1
 400 600 l 1,0,-1
400 200 m 1,0,-1
 400 0 l 1,1,-1
 600 0 l 1,2,-1
 600 200 l 1,3,-1
 400 200 l 1,0,-1
600 1000 m 1,0,-1
 600 800 l 1,1,-1
 800 800 l 1,2,-1
 800 1000 l 1,3,-1
 600 1000 l 1,0,-1
600 800 m 1,0,-1
 600 600 l 1,1,-1
 800 600 l 1,2,-1
 800 800 l 1,3,-1
 600 800 l 1,0,-1
600 600 m 1,0,-1
 600 400 l 1,1,-1
 800 400 l 1,2,-1
 800 600 l 1,3,-1
 600 600 l 1,0,-1
600 200 m 1,0,-1
 600 0 l 1,1,-1
 800 0 l 1,2,-1
 800 200 l 1,3,-1
 600 200 l 1,0,-1
800 1000 m 1,0,-1
 800 800 l 1,1,-1
 1000 800 l 1,2,-1
 1000 1000 l 1,3,-1
 800 1000 l 1,0,-1
800 800 m 1,0,-1
 800 600 l 1,1,-1
 1000 600 l 1,2,-1
 1000 800 l 1,3,-1
 800 800 l 1,0,-1
800 600 m 1,0,-1
 800 400 l 1,1,-1
 1000 400 l 1,2,-1
 1000 600 l 1,3,-1
 800 600 l 1,0,-1
800 200 m 1,0,-1
 800 0 l 1,1,-1
 1000 0 l 1,2,-1
 1000 200 l 1,3,-1
 800 200 l 1,0,-1
1000 1000 m 1,0,-1
 1000 800 l 1,1,-1
 1200 800 l 1,2,-1
 1200 1000 l 1,3,-1
 1000 1000 l 1,0,-1
1000 600 m 1,0,-1
 1000 400 l 1,1,-1
 1200 400 l 1,2,-1
 1200 600 l 1,3,-1
 1000 600 l 1,0,-1
1000 200 m 1,0,-1
 1000 0 l 1,1,-1
 1200 0 l 1,2,-1
 1200 200 l 1,3,-1
 1000 200 l 1,0,-1
1200 1000 m 1,0,-1
 1200 800 l 1,1,-1
 1400 800 l 1,2,-1
 1400 1000 l 1,3,-1
 1200 1000 l 1,0,-1
1200 800 m 1,0,-1
 1200 600 l 1,1,-1
 1400 600 l 1,2,-1
 1400 800 l 1,3,-1
 1200 800 l 1,0,-1
1200 600 m 1,0,-1
 1200 400 l 1,1,-1
 1400 400 l 1,2,-1
 1400 600 l 1,3,-1
 1200 600 l 1,0,-1
1200 400 m 1,0,-1
 1200 200 l 1,1,-1
 1400 200 l 1,2,-1
 1400 400 l 1,3,-1
 1200 400 l 1,0,-1
1200 200 m 1,0,-1
 1200 0 l 1,1,-1
 1400 0 l 1,2,-1
 1400 200 l 1,3,-1
 1200 200 l 1,0,-1
EndSplineSet
EndChar

StartChar: u008d
Encoding: 141 141 128
Width: 1600
VWidth: 1200
GlyphClass: 2
Flags: W
LayerCount: 2
Fore
SplineSet
200 400 m 1,0,-1
 200 200 l 1,1,-1
 400 200 l 1,2,-1
 400 400 l 1,3,-1
 200 400 l 1,0,-1
200 200 m 1,0,-1
 200 0 l 1,1,-1
 400 0 l 1,2,-1
 400 200 l 1,3,-1
 200 200 l 1,0,-1
400 400 m 1,0,-1
 400 200 l 1,1,-1
 600 200 l 1,2,-1
 600 400 l 1,3,-1
 400 400 l 1,0,-1
400 200 m 1,0,-1
 400 0 l 1,1,-1
 600 0 l 1,2,-1
 600 200 l 1,3,-1
 400 200 l 1,0,-1
600 1000 m 1,0,-1
 600 800 l 1,1,-1
 800 800 l 1,2,-1
 800 1000 l 1,3,-1
 600 1000 l 1,0,-1
600 800 m 1,0,-1
 600 600 l 1,1,-1
 800 600 l 1,2,-1
 800 800 l 1,3,-1
 600 800 l 1,0,-1
600 600 m 1,0,-1
 600 400 l 1,1,-1
 800 400 l 1,2,-1
 800 600 l 1,3,-1
 600 600 l 1,0,-1
600 400 m 1,0,-1
 600 200 l 1,1,-1
 800 200 l 1,2,-1
 800 400 l 1,3,-1
 600 400 l 1,0,-1
600 200 m 1,0,-1
 600 0 l 1,1,-1
 800 0 l 1,2,-1
 800 200 l 1,3,-1
 600 200 l 1,0,-1
800 1000 m 1,0,-1
 800 800 l 1,1,-1
 1000 800 l 1,2,-1
 1000 1000 l 1,3,-1
 800 1000 l 1,0,-1
1000 1000 m 1,0,-1
 1000 800 l 1,1,-1
 1200 800 l 1,2,-1
 1200 1000 l 1,3,-1
 1000 1000 l 1,0,-1
EndSplineSet
EndChar

StartChar: u008e
Encoding: 142 142 129
Width: 1600
VWidth: 1200
GlyphClass: 2
Flags: W
LayerCount: 2
Fore
SplineSet
0 800 m 1,0,-1
 0 600 l 1,1,-1
 200 600 l 1,2,-1
 200 800 l 1,3,-1
 0 800 l 1,0,-1
0 600 m 1,0,-1
 0 400 l 1,1,-1
 200 400 l 1,2,-1
 200 600 l 1,3,-1
 0 600 l 1,0,-1
0 400 m 1,0,-1
 0 200 l 1,1,-1
 200 200 l 1,2,-1
 200 400 l 1,3,-1
 0 400 l 1,0,-1
200 1000 m 1,0,-1
 200 800 l 1,1,-1
 400 800 l 1,2,-1
 400 1000 l 1,3,-1
 200 1000 l 1,0,-1
200 800 m 1,0,-1
 200 600 l 1,1,-1
 400 600 l 1,2,-1
 400 800 l 1,3,-1
 200 800 l 1,0,-1
200 600 m 1,0,-1
 200 400 l 1,1,-1
 400 400 l 1,2,-1
 400 600 l 1,3,-1
 200 600 l 1,0,-1
200 400 m 1,0,-1
 200 200 l 1,1,-1
 400 200 l 1,2,-1
 400 400 l 1,3,-1
 200 400 l 1,0,-1
200 200 m 1,0,-1
 200 0 l 1,1,-1
 400 0 l 1,2,-1
 400 200 l 1,3,-1
 200 200 l 1,0,-1
400 1000 m 1,0,-1
 400 800 l 1,1,-1
 600 800 l 1,2,-1
 600 1000 l 1,3,-1
 400 1000 l 1,0,-1
400 200 m 1,0,-1
 400 0 l 1,1,-1
 600 0 l 1,2,-1
 600 200 l 1,3,-1
 400 200 l 1,0,-1
600 1000 m 1,0,-1
 600 800 l 1,1,-1
 800 800 l 1,2,-1
 800 1000 l 1,3,-1
 600 1000 l 1,0,-1
600 600 m 1,0,-1
 600 400 l 1,1,-1
 800 400 l 1,2,-1
 800 600 l 1,3,-1
 600 600 l 1,0,-1
600 200 m 1,0,-1
 600 0 l 1,1,-1
 800 0 l 1,2,-1
 800 200 l 1,3,-1
 600 200 l 1,0,-1
800 1000 m 1,0,-1
 800 800 l 1,1,-1
 1000 800 l 1,2,-1
 1000 1000 l 1,3,-1
 800 1000 l 1,0,-1
800 200 m 1,0,-1
 800 0 l 1,1,-1
 1000 0 l 1,2,-1
 1000 200 l 1,3,-1
 800 200 l 1,0,-1
1000 1000 m 1,0,-1
 1000 800 l 1,1,-1
 1200 800 l 1,2,-1
 1200 1000 l 1,3,-1
 1000 1000 l 1,0,-1
1000 800 m 1,0,-1
 1000 600 l 1,1,-1
 1200 600 l 1,2,-1
 1200 800 l 1,3,-1
 1000 800 l 1,0,-1
1000 600 m 1,0,-1
 1000 400 l 1,1,-1
 1200 400 l 1,2,-1
 1200 600 l 1,3,-1
 1000 600 l 1,0,-1
1000 400 m 1,0,-1
 1000 200 l 1,1,-1
 1200 200 l 1,2,-1
 1200 400 l 1,3,-1
 1000 400 l 1,0,-1
1000 200 m 1,0,-1
 1000 0 l 1,1,-1
 1200 0 l 1,2,-1
 1200 200 l 1,3,-1
 1000 200 l 1,0,-1
1200 800 m 1,0,-1
 1200 600 l 1,1,-1
 1400 600 l 1,2,-1
 1400 800 l 1,3,-1
 1200 800 l 1,0,-1
1200 600 m 1,0,-1
 1200 400 l 1,1,-1
 1400 400 l 1,2,-1
 1400 600 l 1,3,-1
 1200 600 l 1,0,-1
1200 400 m 1,0,-1
 1200 200 l 1,1,-1
 1400 200 l 1,2,-1
 1400 400 l 1,3,-1
 1200 400 l 1,0,-1
EndSplineSet
EndChar

StartChar: u008f
Encoding: 143 143 130
Width: 1600
VWidth: 1200
GlyphClass: 2
Flags: W
LayerCount: 2
Fore
SplineSet
200 600 m 1,0,-1
 200 400 l 1,1,-1
 400 400 l 1,2,-1
 400 600 l 1,3,-1
 200 600 l 1,0,-1
400 800 m 1,0,-1
 400 600 l 1,1,-1
 600 600 l 1,2,-1
 600 800 l 1,3,-1
 400 800 l 1,0,-1
400 600 m 1,0,-1
 400 400 l 1,1,-1
 600 400 l 1,2,-1
 600 600 l 1,3,-1
 400 600 l 1,0,-1
400 400 m 1,0,-1
 400 200 l 1,1,-1
 600 200 l 1,2,-1
 600 400 l 1,3,-1
 400 400 l 1,0,-1
600 1000 m 1,0,-1
 600 800 l 1,1,-1
 800 800 l 1,2,-1
 800 1000 l 1,3,-1
 600 1000 l 1,0,-1
600 800 m 1,0,-1
 600 600 l 1,1,-1
 800 600 l 1,2,-1
 800 800 l 1,3,-1
 600 800 l 1,0,-1
600 600 m 1,0,-1
 600 400 l 1,1,-1
 800 400 l 1,2,-1
 800 600 l 1,3,-1
 600 600 l 1,0,-1
600 400 m 1,0,-1
 600 200 l 1,1,-1
 800 200 l 1,2,-1
 800 400 l 1,3,-1
 600 400 l 1,0,-1
600 200 m 1,0,-1
 600 0 l 1,1,-1
 800 0 l 1,2,-1
 800 200 l 1,3,-1
 600 200 l 1,0,-1
800 800 m 1,0,-1
 800 600 l 1,1,-1
 1000 600 l 1,2,-1
 1000 800 l 1,3,-1
 800 800 l 1,0,-1
800 600 m 1,0,-1
 800 400 l 1,1,-1
 1000 400 l 1,2,-1
 1000 600 l 1,3,-1
 800 600 l 1,0,-1
800 400 m 1,0,-1
 800 200 l 1,1,-1
 1000 200 l 1,2,-1
 1000 400 l 1,3,-1
 800 400 l 1,0,-1
1000 600 m 1,0,-1
 1000 400 l 1,1,-1
 1200 400 l 1,2,-1
 1200 600 l 1,3,-1
 1000 600 l 1,0,-1
EndSplineSet
EndChar

StartChar: u0090
Encoding: 144 144 131
Width: 1600
VWidth: 1200
GlyphClass: 2
Flags: W
LayerCount: 2
Fore
SplineSet
0 600 m 1,0,-1
 0 400 l 1,1,-1
 200 400 l 1,2,-1
 200 600 l 1,3,-1
 0 600 l 1,0,-1
400 600 m 1,0,-1
 400 400 l 1,1,-1
 600 400 l 1,2,-1
 600 600 l 1,3,-1
 400 600 l 1,0,-1
800 600 m 1,0,-1
 800 400 l 1,1,-1
 1000 400 l 1,2,-1
 1000 600 l 1,3,-1
 800 600 l 1,0,-1
1200 600 m 1,0,-1
 1200 400 l 1,1,-1
 1400 400 l 1,2,-1
 1400 600 l 1,3,-1
 1200 600 l 1,0,-1
EndSplineSet
EndChar

StartChar: u0091
Encoding: 145 145 132
Width: 1600
VWidth: 1200
GlyphClass: 2
Flags: W
LayerCount: 2
Fore
SplineSet
0 800 m 1,0,-1
 0 600 l 1,1,-1
 200 600 l 1,2,-1
 200 800 l 1,3,-1
 0 800 l 1,0,-1
0 600 m 1,0,-1
 0 400 l 1,1,-1
 200 400 l 1,2,-1
 200 600 l 1,3,-1
 0 600 l 1,0,-1
0 400 m 1,0,-1
 0 200 l 1,1,-1
 200 200 l 1,2,-1
 200 400 l 1,3,-1
 0 400 l 1,0,-1
200 1000 m 1,0,-1
 200 800 l 1,1,-1
 400 800 l 1,2,-1
 400 1000 l 1,3,-1
 200 1000 l 1,0,-1
200 800 m 1,0,-1
 200 600 l 1,1,-1
 400 600 l 1,2,-1
 400 800 l 1,3,-1
 200 800 l 1,0,-1
200 600 m 1,0,-1
 200 400 l 1,1,-1
 400 400 l 1,2,-1
 400 600 l 1,3,-1
 200 600 l 1,0,-1
200 400 m 1,0,-1
 200 200 l 1,1,-1
 400 200 l 1,2,-1
 400 400 l 1,3,-1
 200 400 l 1,0,-1
200 200 m 1,0,-1
 200 0 l 1,1,-1
 400 0 l 1,2,-1
 400 200 l 1,3,-1
 200 200 l 1,0,-1
400 1000 m 1,0,-1
 400 800 l 1,1,-1
 600 800 l 1,2,-1
 600 1000 l 1,3,-1
 400 1000 l 1,0,-1
400 200 m 1,0,-1
 400 0 l 1,1,-1
 600 0 l 1,2,-1
 600 200 l 1,3,-1
 400 200 l 1,0,-1
600 1000 m 1,0,-1
 600 800 l 1,1,-1
 800 800 l 1,2,-1
 800 1000 l 1,3,-1
 600 1000 l 1,0,-1
600 200 m 1,0,-1
 600 0 l 1,1,-1
 800 0 l 1,2,-1
 800 200 l 1,3,-1
 600 200 l 1,0,-1
800 1000 m 1,0,-1
 800 800 l 1,1,-1
 1000 800 l 1,2,-1
 1000 1000 l 1,3,-1
 800 1000 l 1,0,-1
800 800 m 1,0,-1
 800 600 l 1,1,-1
 1000 600 l 1,2,-1
 1000 800 l 1,3,-1
 800 800 l 1,0,-1
800 400 m 1,0,-1
 800 200 l 1,1,-1
 1000 200 l 1,2,-1
 1000 400 l 1,3,-1
 800 400 l 1,0,-1
800 200 m 1,0,-1
 800 0 l 1,1,-1
 1000 0 l 1,2,-1
 1000 200 l 1,3,-1
 800 200 l 1,0,-1
1000 1000 m 1,0,-1
 1000 800 l 1,1,-1
 1200 800 l 1,2,-1
 1200 1000 l 1,3,-1
 1000 1000 l 1,0,-1
1000 800 m 1,0,-1
 1000 600 l 1,1,-1
 1200 600 l 1,2,-1
 1200 800 l 1,3,-1
 1000 800 l 1,0,-1
1000 600 m 1,0,-1
 1000 400 l 1,1,-1
 1200 400 l 1,2,-1
 1200 600 l 1,3,-1
 1000 600 l 1,0,-1
1000 400 m 1,0,-1
 1000 200 l 1,1,-1
 1200 200 l 1,2,-1
 1200 400 l 1,3,-1
 1000 400 l 1,0,-1
1000 200 m 1,0,-1
 1000 0 l 1,1,-1
 1200 0 l 1,2,-1
 1200 200 l 1,3,-1
 1000 200 l 1,0,-1
1200 800 m 1,0,-1
 1200 600 l 1,1,-1
 1400 600 l 1,2,-1
 1400 800 l 1,3,-1
 1200 800 l 1,0,-1
1200 600 m 1,0,-1
 1200 400 l 1,1,-1
 1400 400 l 1,2,-1
 1400 600 l 1,3,-1
 1200 600 l 1,0,-1
1200 400 m 1,0,-1
 1200 200 l 1,1,-1
 1400 200 l 1,2,-1
 1400 400 l 1,3,-1
 1200 400 l 1,0,-1
EndSplineSet
EndChar

StartChar: u0092
Encoding: 146 146 133
Width: 1600
VWidth: 1200
GlyphClass: 2
Flags: W
LayerCount: 2
Fore
SplineSet
0 600 m 1,0,-1
 0 400 l 1,1,-1
 200 400 l 1,2,-1
 200 600 l 1,3,-1
 0 600 l 1,0,-1
200 600 m 1,0,-1
 200 400 l 1,1,-1
 400 400 l 1,2,-1
 400 600 l 1,3,-1
 200 600 l 1,0,-1
200 400 m 1,0,-1
 200 200 l 1,1,-1
 400 200 l 1,2,-1
 400 400 l 1,3,-1
 200 400 l 1,0,-1
200 200 m 1,0,-1
 200 0 l 1,1,-1
 400 0 l 1,2,-1
 400 200 l 1,3,-1
 200 200 l 1,0,-1
400 800 m 1,0,-1
 400 600 l 1,1,-1
 600 600 l 1,2,-1
 600 800 l 1,3,-1
 400 800 l 1,0,-1
400 600 m 1,0,-1
 400 400 l 1,1,-1
 600 400 l 1,2,-1
 600 600 l 1,3,-1
 400 600 l 1,0,-1
400 400 m 1,0,-1
 400 200 l 1,1,-1
 600 200 l 1,2,-1
 600 400 l 1,3,-1
 400 400 l 1,0,-1
600 1000 m 1,0,-1
 600 800 l 1,1,-1
 800 800 l 1,2,-1
 800 1000 l 1,3,-1
 600 1000 l 1,0,-1
600 800 m 1,0,-1
 600 600 l 1,1,-1
 800 600 l 1,2,-1
 800 800 l 1,3,-1
 600 800 l 1,0,-1
600 600 m 1,0,-1
 600 400 l 1,1,-1
 800 400 l 1,2,-1
 800 600 l 1,3,-1
 600 600 l 1,0,-1
600 400 m 1,0,-1
 600 200 l 1,1,-1
 800 200 l 1,2,-1
 800 400 l 1,3,-1
 600 400 l 1,0,-1
800 800 m 1,0,-1
 800 600 l 1,1,-1
 1000 600 l 1,2,-1
 1000 800 l 1,3,-1
 800 800 l 1,0,-1
800 600 m 1,0,-1
 800 400 l 1,1,-1
 1000 400 l 1,2,-1
 1000 600 l 1,3,-1
 800 600 l 1,0,-1
800 400 m 1,0,-1
 800 200 l 1,1,-1
 1000 200 l 1,2,-1
 1000 400 l 1,3,-1
 800 400 l 1,0,-1
1000 600 m 1,0,-1
 1000 400 l 1,1,-1
 1200 400 l 1,2,-1
 1200 600 l 1,3,-1
 1000 600 l 1,0,-1
1000 400 m 1,0,-1
 1000 200 l 1,1,-1
 1200 200 l 1,2,-1
 1200 400 l 1,3,-1
 1000 400 l 1,0,-1
1000 200 m 1,0,-1
 1000 0 l 1,1,-1
 1200 0 l 1,2,-1
 1200 200 l 1,3,-1
 1000 200 l 1,0,-1
1200 600 m 1,0,-1
 1200 400 l 1,1,-1
 1400 400 l 1,2,-1
 1400 600 l 1,3,-1
 1200 600 l 1,0,-1
EndSplineSet
EndChar

StartChar: u0093
Encoding: 147 147 134
Width: 1600
VWidth: 1200
GlyphClass: 2
Flags: W
LayerCount: 2
Fore
SplineSet
200 1000 m 1,0,-1
 200 800 l 1,1,-1
 400 800 l 1,2,-1
 400 1000 l 1,3,-1
 200 1000 l 1,0,-1
200 200 m 1,0,-1
 200 0 l 1,1,-1
 400 0 l 1,2,-1
 400 200 l 1,3,-1
 200 200 l 1,0,-1
400 1000 m 1,0,-1
 400 800 l 1,1,-1
 600 800 l 1,2,-1
 600 1000 l 1,3,-1
 400 1000 l 1,0,-1
400 800 m 1,0,-1
 400 600 l 1,1,-1
 600 600 l 1,2,-1
 600 800 l 1,3,-1
 400 800 l 1,0,-1
400 400 m 1,0,-1
 400 200 l 1,1,-1
 600 200 l 1,2,-1
 600 400 l 1,3,-1
 400 400 l 1,0,-1
400 200 m 1,0,-1
 400 0 l 1,1,-1
 600 0 l 1,2,-1
 600 200 l 1,3,-1
 400 200 l 1,0,-1
600 1000 m 1,0,-1
 600 800 l 1,1,-1
 800 800 l 1,2,-1
 800 1000 l 1,3,-1
 600 1000 l 1,0,-1
600 800 m 1,0,-1
 600 600 l 1,1,-1
 800 600 l 1,2,-1
 800 800 l 1,3,-1
 600 800 l 1,0,-1
600 600 m 1,0,-1
 600 400 l 1,1,-1
 800 400 l 1,2,-1
 800 600 l 1,3,-1
 600 600 l 1,0,-1
600 400 m 1,0,-1
 600 200 l 1,1,-1
 800 200 l 1,2,-1
 800 400 l 1,3,-1
 600 400 l 1,0,-1
600 200 m 1,0,-1
 600 0 l 1,1,-1
 800 0 l 1,2,-1
 800 200 l 1,3,-1
 600 200 l 1,0,-1
800 1000 m 1,0,-1
 800 800 l 1,1,-1
 1000 800 l 1,2,-1
 1000 1000 l 1,3,-1
 800 1000 l 1,0,-1
800 800 m 1,0,-1
 800 600 l 1,1,-1
 1000 600 l 1,2,-1
 1000 800 l 1,3,-1
 800 800 l 1,0,-1
800 400 m 1,0,-1
 800 200 l 1,1,-1
 1000 200 l 1,2,-1
 1000 400 l 1,3,-1
 800 400 l 1,0,-1
800 200 m 1,0,-1
 800 0 l 1,1,-1
 1000 0 l 1,2,-1
 1000 200 l 1,3,-1
 800 200 l 1,0,-1
1000 1000 m 1,0,-1
 1000 800 l 1,1,-1
 1200 800 l 1,2,-1
 1200 1000 l 1,3,-1
 1000 1000 l 1,0,-1
1000 200 m 1,0,-1
 1000 0 l 1,1,-1
 1200 0 l 1,2,-1
 1200 200 l 1,3,-1
 1000 200 l 1,0,-1
EndSplineSet
EndChar

StartChar: u0094
Encoding: 148 148 135
Width: 1600
VWidth: 1200
GlyphClass: 2
Flags: W
LayerCount: 2
Fore
SplineSet
0 800 m 1,0,-1
 0 600 l 1,1,-1
 200 600 l 1,2,-1
 200 800 l 1,3,-1
 0 800 l 1,0,-1
0 600 m 1,0,-1
 0 400 l 1,1,-1
 200 400 l 1,2,-1
 200 600 l 1,3,-1
 0 600 l 1,0,-1
0 400 m 1,0,-1
 0 200 l 1,1,-1
 200 200 l 1,2,-1
 200 400 l 1,3,-1
 0 400 l 1,0,-1
200 1000 m 1,0,-1
 200 800 l 1,1,-1
 400 800 l 1,2,-1
 400 1000 l 1,3,-1
 200 1000 l 1,0,-1
200 800 m 1,0,-1
 200 600 l 1,1,-1
 400 600 l 1,2,-1
 400 800 l 1,3,-1
 200 800 l 1,0,-1
200 600 m 1,0,-1
 200 400 l 1,1,-1
 400 400 l 1,2,-1
 400 600 l 1,3,-1
 200 600 l 1,0,-1
200 400 m 1,0,-1
 200 200 l 1,1,-1
 400 200 l 1,2,-1
 400 400 l 1,3,-1
 200 400 l 1,0,-1
200 200 m 1,0,-1
 200 0 l 1,1,-1
 400 0 l 1,2,-1
 400 200 l 1,3,-1
 200 200 l 1,0,-1
400 1000 m 1,0,-1
 400 800 l 1,1,-1
 600 800 l 1,2,-1
 600 1000 l 1,3,-1
 400 1000 l 1,0,-1
400 800 m 1,0,-1
 400 600 l 1,1,-1
 600 600 l 1,2,-1
 600 800 l 1,3,-1
 400 800 l 1,0,-1
400 200 m 1,0,-1
 400 0 l 1,1,-1
 600 0 l 1,2,-1
 600 200 l 1,3,-1
 400 200 l 1,0,-1
600 1000 m 1,0,-1
 600 800 l 1,1,-1
 800 800 l 1,2,-1
 800 1000 l 1,3,-1
 600 1000 l 1,0,-1
600 200 m 1,0,-1
 600 0 l 1,1,-1
 800 0 l 1,2,-1
 800 200 l 1,3,-1
 600 200 l 1,0,-1
800 1000 m 1,0,-1
 800 800 l 1,1,-1
 1000 800 l 1,2,-1
 1000 1000 l 1,3,-1
 800 1000 l 1,0,-1
800 800 m 1,0,-1
 800 600 l 1,1,-1
 1000 600 l 1,2,-1
 1000 800 l 1,3,-1
 800 800 l 1,0,-1
800 200 m 1,0,-1
 800 0 l 1,1,-1
 1000 0 l 1,2,-1
 1000 200 l 1,3,-1
 800 200 l 1,0,-1
1000 1000 m 1,0,-1
 1000 800 l 1,1,-1
 1200 800 l 1,2,-1
 1200 1000 l 1,3,-1
 1000 1000 l 1,0,-1
1000 800 m 1,0,-1
 1000 600 l 1,1,-1
 1200 600 l 1,2,-1
 1200 800 l 1,3,-1
 1000 800 l 1,0,-1
1000 600 m 1,0,-1
 1000 400 l 1,1,-1
 1200 400 l 1,2,-1
 1200 600 l 1,3,-1
 1000 600 l 1,0,-1
1000 400 m 1,0,-1
 1000 200 l 1,1,-1
 1200 200 l 1,2,-1
 1200 400 l 1,3,-1
 1000 400 l 1,0,-1
1000 200 m 1,0,-1
 1000 0 l 1,1,-1
 1200 0 l 1,2,-1
 1200 200 l 1,3,-1
 1000 200 l 1,0,-1
1200 800 m 1,0,-1
 1200 600 l 1,1,-1
 1400 600 l 1,2,-1
 1400 800 l 1,3,-1
 1200 800 l 1,0,-1
1200 600 m 1,0,-1
 1200 400 l 1,1,-1
 1400 400 l 1,2,-1
 1400 600 l 1,3,-1
 1200 600 l 1,0,-1
1200 400 m 1,0,-1
 1200 200 l 1,1,-1
 1400 200 l 1,2,-1
 1400 400 l 1,3,-1
 1200 400 l 1,0,-1
EndSplineSet
EndChar

StartChar: u0095
Encoding: 149 149 136
Width: 1600
VWidth: 1200
GlyphClass: 2
Flags: W
LayerCount: 2
Fore
SplineSet
0 800 m 1,0,-1
 0 600 l 1,1,-1
 200 600 l 1,2,-1
 200 800 l 1,3,-1
 0 800 l 1,0,-1
200 600 m 1,0,-1
 200 400 l 1,1,-1
 400 400 l 1,2,-1
 400 600 l 1,3,-1
 200 600 l 1,0,-1
400 800 m 1,0,-1
 400 600 l 1,1,-1
 600 600 l 1,2,-1
 600 800 l 1,3,-1
 400 800 l 1,0,-1
800 600 m 1,0,-1
 800 400 l 1,1,-1
 1000 400 l 1,2,-1
 1000 600 l 1,3,-1
 800 600 l 1,0,-1
1000 400 m 1,0,-1
 1000 200 l 1,1,-1
 1200 200 l 1,2,-1
 1200 400 l 1,3,-1
 1000 400 l 1,0,-1
1200 600 m 1,0,-1
 1200 400 l 1,1,-1
 1400 400 l 1,2,-1
 1400 600 l 1,3,-1
 1200 600 l 1,0,-1
EndSplineSet
EndChar

StartChar: u0096
Encoding: 150 150 137
Width: 1600
VWidth: 1200
GlyphClass: 2
Flags: W
LayerCount: 2
Fore
SplineSet
0 800 m 1,0,-1
 0 600 l 1,1,-1
 200 600 l 1,2,-1
 200 800 l 1,3,-1
 0 800 l 1,0,-1
200 600 m 1,0,-1
 200 400 l 1,1,-1
 400 400 l 1,2,-1
 400 600 l 1,3,-1
 200 600 l 1,0,-1
400 400 m 1,0,-1
 400 200 l 1,1,-1
 600 200 l 1,2,-1
 600 400 l 1,3,-1
 400 400 l 1,0,-1
600 600 m 1,0,-1
 600 400 l 1,1,-1
 800 400 l 1,2,-1
 800 600 l 1,3,-1
 600 600 l 1,0,-1
800 800 m 1,0,-1
 800 600 l 1,1,-1
 1000 600 l 1,2,-1
 1000 800 l 1,3,-1
 800 800 l 1,0,-1
1000 600 m 1,0,-1
 1000 400 l 1,1,-1
 1200 400 l 1,2,-1
 1200 600 l 1,3,-1
 1000 600 l 1,0,-1
1200 400 m 1,0,-1
 1200 200 l 1,1,-1
 1400 200 l 1,2,-1
 1400 400 l 1,3,-1
 1200 400 l 1,0,-1
EndSplineSet
EndChar

StartChar: u0097
Encoding: 151 151 138
Width: 1600
VWidth: 1200
GlyphClass: 2
Flags: W
LayerCount: 2
Fore
SplineSet
0 800 m 1,0,-1
 0 600 l 1,1,-1
 200 600 l 1,2,-1
 200 800 l 1,3,-1
 0 800 l 1,0,-1
0 600 m 1,0,-1
 0 400 l 1,1,-1
 200 400 l 1,2,-1
 200 600 l 1,3,-1
 0 600 l 1,0,-1
0 400 m 1,0,-1
 0 200 l 1,1,-1
 200 200 l 1,2,-1
 200 400 l 1,3,-1
 0 400 l 1,0,-1
200 1000 m 1,0,-1
 200 800 l 1,1,-1
 400 800 l 1,2,-1
 400 1000 l 1,3,-1
 200 1000 l 1,0,-1
200 800 m 1,0,-1
 200 600 l 1,1,-1
 400 600 l 1,2,-1
 400 800 l 1,3,-1
 200 800 l 1,0,-1
200 600 m 1,0,-1
 200 400 l 1,1,-1
 400 400 l 1,2,-1
 400 600 l 1,3,-1
 200 600 l 1,0,-1
200 400 m 1,0,-1
 200 200 l 1,1,-1
 400 200 l 1,2,-1
 400 400 l 1,3,-1
 200 400 l 1,0,-1
200 200 m 1,0,-1
 200 0 l 1,1,-1
 400 0 l 1,2,-1
 400 200 l 1,3,-1
 200 200 l 1,0,-1
400 1000 m 1,0,-1
 400 800 l 1,1,-1
 600 800 l 1,2,-1
 600 1000 l 1,3,-1
 400 1000 l 1,0,-1
400 600 m 1,0,-1
 400 400 l 1,1,-1
 600 400 l 1,2,-1
 600 600 l 1,3,-1
 400 600 l 1,0,-1
400 200 m 1,0,-1
 400 0 l 1,1,-1
 600 0 l 1,2,-1
 600 200 l 1,3,-1
 400 200 l 1,0,-1
600 1000 m 1,0,-1
 600 800 l 1,1,-1
 800 800 l 1,2,-1
 800 1000 l 1,3,-1
 600 1000 l 1,0,-1
600 800 m 1,0,-1
 600 600 l 1,1,-1
 800 600 l 1,2,-1
 800 800 l 1,3,-1
 600 800 l 1,0,-1
600 400 m 1,0,-1
 600 200 l 1,1,-1
 800 200 l 1,2,-1
 800 400 l 1,3,-1
 600 400 l 1,0,-1
600 200 m 1,0,-1
 600 0 l 1,1,-1
 800 0 l 1,2,-1
 800 200 l 1,3,-1
 600 200 l 1,0,-1
800 1000 m 1,0,-1
 800 800 l 1,1,-1
 1000 800 l 1,2,-1
 1000 1000 l 1,3,-1
 800 1000 l 1,0,-1
800 600 m 1,0,-1
 800 400 l 1,1,-1
 1000 400 l 1,2,-1
 1000 600 l 1,3,-1
 800 600 l 1,0,-1
800 200 m 1,0,-1
 800 0 l 1,1,-1
 1000 0 l 1,2,-1
 1000 200 l 1,3,-1
 800 200 l 1,0,-1
1000 1000 m 1,0,-1
 1000 800 l 1,1,-1
 1200 800 l 1,2,-1
 1200 1000 l 1,3,-1
 1000 1000 l 1,0,-1
1000 800 m 1,0,-1
 1000 600 l 1,1,-1
 1200 600 l 1,2,-1
 1200 800 l 1,3,-1
 1000 800 l 1,0,-1
1000 600 m 1,0,-1
 1000 400 l 1,1,-1
 1200 400 l 1,2,-1
 1200 600 l 1,3,-1
 1000 600 l 1,0,-1
1000 400 m 1,0,-1
 1000 200 l 1,1,-1
 1200 200 l 1,2,-1
 1200 400 l 1,3,-1
 1000 400 l 1,0,-1
1000 200 m 1,0,-1
 1000 0 l 1,1,-1
 1200 0 l 1,2,-1
 1200 200 l 1,3,-1
 1000 200 l 1,0,-1
1200 800 m 1,0,-1
 1200 600 l 1,1,-1
 1400 600 l 1,2,-1
 1400 800 l 1,3,-1
 1200 800 l 1,0,-1
1200 600 m 1,0,-1
 1200 400 l 1,1,-1
 1400 400 l 1,2,-1
 1400 600 l 1,3,-1
 1200 600 l 1,0,-1
1200 400 m 1,0,-1
 1200 200 l 1,1,-1
 1400 200 l 1,2,-1
 1400 400 l 1,3,-1
 1200 400 l 1,0,-1
EndSplineSet
EndChar

StartChar: u0098
Encoding: 152 152 139
Width: 1600
VWidth: 1200
GlyphClass: 2
Flags: W
LayerCount: 2
Fore
SplineSet
0 1000 m 1,0,-1
 0 800 l 1,1,-1
 200 800 l 1,2,-1
 200 1000 l 1,3,-1
 0 1000 l 1,0,-1
0 600 m 1,0,-1
 0 400 l 1,1,-1
 200 400 l 1,2,-1
 200 600 l 1,3,-1
 0 600 l 1,0,-1
0 200 m 1,0,-1
 0 0 l 1,1,-1
 200 0 l 1,2,-1
 200 200 l 1,3,-1
 0 200 l 1,0,-1
200 1000 m 1,0,-1
 200 800 l 1,1,-1
 400 800 l 1,2,-1
 400 1000 l 1,3,-1
 200 1000 l 1,0,-1
200 600 m 1,0,-1
 200 400 l 1,1,-1
 400 400 l 1,2,-1
 400 600 l 1,3,-1
 200 600 l 1,0,-1
200 200 m 1,0,-1
 200 0 l 1,1,-1
 400 0 l 1,2,-1
 400 200 l 1,3,-1
 200 200 l 1,0,-1
400 1000 m 1,0,-1
 400 800 l 1,1,-1
 600 800 l 1,2,-1
 600 1000 l 1,3,-1
 400 1000 l 1,0,-1
400 600 m 1,0,-1
 400 400 l 1,1,-1
 600 400 l 1,2,-1
 600 600 l 1,3,-1
 400 600 l 1,0,-1
400 200 m 1,0,-1
 400 0 l 1,1,-1
 600 0 l 1,2,-1
 600 200 l 1,3,-1
 400 200 l 1,0,-1
600 1000 m 1,0,-1
 600 800 l 1,1,-1
 800 800 l 1,2,-1
 800 1000 l 1,3,-1
 600 1000 l 1,0,-1
600 600 m 1,0,-1
 600 400 l 1,1,-1
 800 400 l 1,2,-1
 800 600 l 1,3,-1
 600 600 l 1,0,-1
600 200 m 1,0,-1
 600 0 l 1,1,-1
 800 0 l 1,2,-1
 800 200 l 1,3,-1
 600 200 l 1,0,-1
800 1000 m 1,0,-1
 800 800 l 1,1,-1
 1000 800 l 1,2,-1
 1000 1000 l 1,3,-1
 800 1000 l 1,0,-1
800 600 m 1,0,-1
 800 400 l 1,1,-1
 1000 400 l 1,2,-1
 1000 600 l 1,3,-1
 800 600 l 1,0,-1
800 200 m 1,0,-1
 800 0 l 1,1,-1
 1000 0 l 1,2,-1
 1000 200 l 1,3,-1
 800 200 l 1,0,-1
1000 1000 m 1,0,-1
 1000 800 l 1,1,-1
 1200 800 l 1,2,-1
 1200 1000 l 1,3,-1
 1000 1000 l 1,0,-1
1000 600 m 1,0,-1
 1000 400 l 1,1,-1
 1200 400 l 1,2,-1
 1200 600 l 1,3,-1
 1000 600 l 1,0,-1
1000 200 m 1,0,-1
 1000 0 l 1,1,-1
 1200 0 l 1,2,-1
 1200 200 l 1,3,-1
 1000 200 l 1,0,-1
1200 1000 m 1,0,-1
 1200 800 l 1,1,-1
 1400 800 l 1,2,-1
 1400 1000 l 1,3,-1
 1200 1000 l 1,0,-1
1200 600 m 1,0,-1
 1200 400 l 1,1,-1
 1400 400 l 1,2,-1
 1400 600 l 1,3,-1
 1200 600 l 1,0,-1
1200 200 m 1,0,-1
 1200 0 l 1,1,-1
 1400 0 l 1,2,-1
 1400 200 l 1,3,-1
 1200 200 l 1,0,-1
EndSplineSet
EndChar

StartChar: u0099
Encoding: 153 153 140
Width: 1600
VWidth: 1200
GlyphClass: 2
Flags: W
LayerCount: 2
Fore
SplineSet
0 1000 m 1,0,-1
 0 800 l 1,1,-1
 200 800 l 1,2,-1
 200 1000 l 1,3,-1
 0 1000 l 1,0,-1
0 800 m 1,0,-1
 0 600 l 1,1,-1
 200 600 l 1,2,-1
 200 800 l 1,3,-1
 0 800 l 1,0,-1
0 600 m 1,0,-1
 0 400 l 1,1,-1
 200 400 l 1,2,-1
 200 600 l 1,3,-1
 0 600 l 1,0,-1
0 400 m 1,0,-1
 0 200 l 1,1,-1
 200 200 l 1,2,-1
 200 400 l 1,3,-1
 0 400 l 1,0,-1
0 200 m 1,0,-1
 0 0 l 1,1,-1
 200 0 l 1,2,-1
 200 200 l 1,3,-1
 0 200 l 1,0,-1
400 1000 m 1,0,-1
 400 800 l 1,1,-1
 600 800 l 1,2,-1
 600 1000 l 1,3,-1
 400 1000 l 1,0,-1
400 800 m 1,0,-1
 400 600 l 1,1,-1
 600 600 l 1,2,-1
 600 800 l 1,3,-1
 400 800 l 1,0,-1
400 600 m 1,0,-1
 400 400 l 1,1,-1
 600 400 l 1,2,-1
 600 600 l 1,3,-1
 400 600 l 1,0,-1
400 400 m 1,0,-1
 400 200 l 1,1,-1
 600 200 l 1,2,-1
 600 400 l 1,3,-1
 400 400 l 1,0,-1
400 200 m 1,0,-1
 400 0 l 1,1,-1
 600 0 l 1,2,-1
 600 200 l 1,3,-1
 400 200 l 1,0,-1
800 1000 m 1,0,-1
 800 800 l 1,1,-1
 1000 800 l 1,2,-1
 1000 1000 l 1,3,-1
 800 1000 l 1,0,-1
800 800 m 1,0,-1
 800 600 l 1,1,-1
 1000 600 l 1,2,-1
 1000 800 l 1,3,-1
 800 800 l 1,0,-1
800 600 m 1,0,-1
 800 400 l 1,1,-1
 1000 400 l 1,2,-1
 1000 600 l 1,3,-1
 800 600 l 1,0,-1
800 400 m 1,0,-1
 800 200 l 1,1,-1
 1000 200 l 1,2,-1
 1000 400 l 1,3,-1
 800 400 l 1,0,-1
800 200 m 1,0,-1
 800 0 l 1,1,-1
 1000 0 l 1,2,-1
 1000 200 l 1,3,-1
 800 200 l 1,0,-1
1200 1000 m 1,0,-1
 1200 800 l 1,1,-1
 1400 800 l 1,2,-1
 1400 1000 l 1,3,-1
 1200 1000 l 1,0,-1
1200 800 m 1,0,-1
 1200 600 l 1,1,-1
 1400 600 l 1,2,-1
 1400 800 l 1,3,-1
 1200 800 l 1,0,-1
1200 600 m 1,0,-1
 1200 400 l 1,1,-1
 1400 400 l 1,2,-1
 1400 600 l 1,3,-1
 1200 600 l 1,0,-1
1200 400 m 1,0,-1
 1200 200 l 1,1,-1
 1400 200 l 1,2,-1
 1400 400 l 1,3,-1
 1200 400 l 1,0,-1
1200 200 m 1,0,-1
 1200 0 l 1,1,-1
 1400 0 l 1,2,-1
 1400 200 l 1,3,-1
 1200 200 l 1,0,-1
EndSplineSet
EndChar

StartChar: u009a
Encoding: 154 154 141
Width: 1600
VWidth: 1200
GlyphClass: 2
Flags: W
LayerCount: 2
Fore
SplineSet
0 400 m 1,0,-1
 0 200 l 1,1,-1
 200 200 l 1,2,-1
 200 400 l 1,3,-1
 0 400 l 1,0,-1
200 1000 m 1,0,-1
 200 800 l 1,1,-1
 400 800 l 1,2,-1
 400 1000 l 1,3,-1
 200 1000 l 1,0,-1
200 600 m 1,0,-1
 200 400 l 1,1,-1
 400 400 l 1,2,-1
 400 600 l 1,3,-1
 200 600 l 1,0,-1
200 200 m 1,0,-1
 200 0 l 1,1,-1
 400 0 l 1,2,-1
 400 200 l 1,3,-1
 200 200 l 1,0,-1
400 1000 m 1,0,-1
 400 800 l 1,1,-1
 600 800 l 1,2,-1
 600 1000 l 1,3,-1
 400 1000 l 1,0,-1
400 800 m 1,0,-1
 400 600 l 1,1,-1
 600 600 l 1,2,-1
 600 800 l 1,3,-1
 400 800 l 1,0,-1
400 600 m 1,0,-1
 400 400 l 1,1,-1
 600 400 l 1,2,-1
 600 600 l 1,3,-1
 400 600 l 1,0,-1
400 400 m 1,0,-1
 400 200 l 1,1,-1
 600 200 l 1,2,-1
 600 400 l 1,3,-1
 400 400 l 1,0,-1
400 200 m 1,0,-1
 400 0 l 1,1,-1
 600 0 l 1,2,-1
 600 200 l 1,3,-1
 400 200 l 1,0,-1
600 1000 m 1,0,-1
 600 800 l 1,1,-1
 800 800 l 1,2,-1
 800 1000 l 1,3,-1
 600 1000 l 1,0,-1
600 600 m 1,0,-1
 600 400 l 1,1,-1
 800 400 l 1,2,-1
 800 600 l 1,3,-1
 600 600 l 1,0,-1
600 400 m 1,0,-1
 600 200 l 1,1,-1
 800 200 l 1,2,-1
 800 400 l 1,3,-1
 600 400 l 1,0,-1
800 600 m 1,0,-1
 800 400 l 1,1,-1
 1000 400 l 1,2,-1
 1000 600 l 1,3,-1
 800 600 l 1,0,-1
1000 400 m 1,0,-1
 1000 200 l 1,1,-1
 1200 200 l 1,2,-1
 1200 400 l 1,3,-1
 1000 400 l 1,0,-1
1000 200 m 1,0,-1
 1000 0 l 1,1,-1
 1200 0 l 1,2,-1
 1200 200 l 1,3,-1
 1000 200 l 1,0,-1
EndSplineSet
EndChar

StartChar: u009b
Encoding: 155 155 142
Width: 1600
VWidth: 1200
GlyphClass: 2
Flags: W
LayerCount: 2
Fore
SplineSet
0 1000 m 1,0,-1
 0 800 l 1,1,-1
 200 800 l 1,2,-1
 200 1000 l 1,3,-1
 0 1000 l 1,0,-1
0 800 m 1,0,-1
 0 600 l 1,1,-1
 200 600 l 1,2,-1
 200 800 l 1,3,-1
 0 800 l 1,0,-1
0 600 m 1,0,-1
 0 400 l 1,1,-1
 200 400 l 1,2,-1
 200 600 l 1,3,-1
 0 600 l 1,0,-1
0 400 m 1,0,-1
 0 200 l 1,1,-1
 200 200 l 1,2,-1
 200 400 l 1,3,-1
 0 400 l 1,0,-1
200 200 m 1,0,-1
 200 0 l 1,1,-1
 400 0 l 1,2,-1
 400 200 l 1,3,-1
 200 200 l 1,0,-1
400 400 m 1,0,-1
 400 200 l 1,1,-1
 600 200 l 1,2,-1
 600 400 l 1,3,-1
 400 400 l 1,0,-1
800 800 m 1,0,-1
 800 600 l 1,1,-1
 1000 600 l 1,2,-1
 1000 800 l 1,3,-1
 800 800 l 1,0,-1
1000 600 m 1,0,-1
 1000 400 l 1,1,-1
 1200 400 l 1,2,-1
 1200 600 l 1,3,-1
 1000 600 l 1,0,-1
1000 400 m 1,0,-1
 1000 200 l 1,1,-1
 1200 200 l 1,2,-1
 1200 400 l 1,3,-1
 1000 400 l 1,0,-1
EndSplineSet
EndChar

StartChar: u009c
Encoding: 156 156 143
Width: 1600
VWidth: 1200
GlyphClass: 2
Flags: W
LayerCount: 2
Fore
SplineSet
200 600 m 1,0,-1
 200 400 l 1,1,-1
 400 400 l 1,2,-1
 400 600 l 1,3,-1
 200 600 l 1,0,-1
400 1000 m 1,0,-1
 400 800 l 1,1,-1
 600 800 l 1,2,-1
 600 1000 l 1,3,-1
 400 1000 l 1,0,-1
400 600 m 1,0,-1
 400 400 l 1,1,-1
 600 400 l 1,2,-1
 600 600 l 1,3,-1
 400 600 l 1,0,-1
600 1000 m 1,0,-1
 600 800 l 1,1,-1
 800 800 l 1,2,-1
 800 1000 l 1,3,-1
 600 1000 l 1,0,-1
600 600 m 1,0,-1
 600 400 l 1,1,-1
 800 400 l 1,2,-1
 800 600 l 1,3,-1
 600 600 l 1,0,-1
600 200 m 1,0,-1
 600 0 l 1,1,-1
 800 0 l 1,2,-1
 800 200 l 1,3,-1
 600 200 l 1,0,-1
800 1000 m 1,0,-1
 800 800 l 1,1,-1
 1000 800 l 1,2,-1
 1000 1000 l 1,3,-1
 800 1000 l 1,0,-1
800 600 m 1,0,-1
 800 400 l 1,1,-1
 1000 400 l 1,2,-1
 1000 600 l 1,3,-1
 800 600 l 1,0,-1
800 200 m 1,0,-1
 800 0 l 1,1,-1
 1000 0 l 1,2,-1
 1000 200 l 1,3,-1
 800 200 l 1,0,-1
1000 600 m 1,0,-1
 1000 400 l 1,1,-1
 1200 400 l 1,2,-1
 1200 600 l 1,3,-1
 1000 600 l 1,0,-1
1000 400 m 1,0,-1
 1000 200 l 1,1,-1
 1200 200 l 1,2,-1
 1200 400 l 1,3,-1
 1000 400 l 1,0,-1
EndSplineSet
EndChar

StartChar: u009d
Encoding: 157 157 144
Width: 1600
VWidth: 1200
GlyphClass: 2
Flags: W
LayerCount: 2
Fore
SplineSet
200 800 m 1,0,-1
 200 600 l 1,1,-1
 400 600 l 1,2,-1
 400 800 l 1,3,-1
 200 800 l 1,0,-1
200 200 m 1,0,-1
 200 0 l 1,1,-1
 400 0 l 1,2,-1
 400 200 l 1,3,-1
 200 200 l 1,0,-1
400 800 m 1,0,-1
 400 600 l 1,1,-1
 600 600 l 1,2,-1
 600 800 l 1,3,-1
 400 800 l 1,0,-1
400 400 m 1,0,-1
 400 200 l 1,1,-1
 600 200 l 1,2,-1
 600 400 l 1,3,-1
 400 400 l 1,0,-1
600 1000 m 1,0,-1
 600 800 l 1,1,-1
 800 800 l 1,2,-1
 800 1000 l 1,3,-1
 600 1000 l 1,0,-1
600 800 m 1,0,-1
 600 600 l 1,1,-1
 800 600 l 1,2,-1
 800 800 l 1,3,-1
 600 800 l 1,0,-1
600 600 m 1,0,-1
 600 400 l 1,1,-1
 800 400 l 1,2,-1
 800 600 l 1,3,-1
 600 600 l 1,0,-1
600 200 m 1,0,-1
 600 0 l 1,1,-1
 800 0 l 1,2,-1
 800 200 l 1,3,-1
 600 200 l 1,0,-1
800 800 m 1,0,-1
 800 600 l 1,1,-1
 1000 600 l 1,2,-1
 1000 800 l 1,3,-1
 800 800 l 1,0,-1
800 200 m 1,0,-1
 800 0 l 1,1,-1
 1000 0 l 1,2,-1
 1000 200 l 1,3,-1
 800 200 l 1,0,-1
1000 400 m 1,0,-1
 1000 200 l 1,1,-1
 1200 200 l 1,2,-1
 1200 400 l 1,3,-1
 1000 400 l 1,0,-1
EndSplineSet
EndChar

StartChar: u009e
Encoding: 158 158 145
Width: 1600
VWidth: 1200
GlyphClass: 2
Flags: W
LayerCount: 2
Fore
SplineSet
0 400 m 1,0,-1
 0 200 l 1,1,-1
 200 200 l 1,2,-1
 200 400 l 1,3,-1
 0 400 l 1,0,-1
200 1000 m 1,0,-1
 200 800 l 1,1,-1
 400 800 l 1,2,-1
 400 1000 l 1,3,-1
 200 1000 l 1,0,-1
200 600 m 1,0,-1
 200 400 l 1,1,-1
 400 400 l 1,2,-1
 400 600 l 1,3,-1
 200 600 l 1,0,-1
200 200 m 1,0,-1
 200 0 l 1,1,-1
 400 0 l 1,2,-1
 400 200 l 1,3,-1
 200 200 l 1,0,-1
400 1000 m 1,0,-1
 400 800 l 1,1,-1
 600 800 l 1,2,-1
 600 1000 l 1,3,-1
 400 1000 l 1,0,-1
400 800 m 1,0,-1
 400 600 l 1,1,-1
 600 600 l 1,2,-1
 600 800 l 1,3,-1
 400 800 l 1,0,-1
400 600 m 1,0,-1
 400 400 l 1,1,-1
 600 400 l 1,2,-1
 600 600 l 1,3,-1
 400 600 l 1,0,-1
400 400 m 1,0,-1
 400 200 l 1,1,-1
 600 200 l 1,2,-1
 600 400 l 1,3,-1
 400 400 l 1,0,-1
400 200 m 1,0,-1
 400 0 l 1,1,-1
 600 0 l 1,2,-1
 600 200 l 1,3,-1
 400 200 l 1,0,-1
600 1000 m 1,0,-1
 600 800 l 1,1,-1
 800 800 l 1,2,-1
 800 1000 l 1,3,-1
 600 1000 l 1,0,-1
600 600 m 1,0,-1
 600 400 l 1,1,-1
 800 400 l 1,2,-1
 800 600 l 1,3,-1
 600 600 l 1,0,-1
800 600 m 1,0,-1
 800 400 l 1,1,-1
 1000 400 l 1,2,-1
 1000 600 l 1,3,-1
 800 600 l 1,0,-1
1000 600 m 1,0,-1
 1000 400 l 1,1,-1
 1200 400 l 1,2,-1
 1200 600 l 1,3,-1
 1000 600 l 1,0,-1
1000 200 m 1,0,-1
 1000 0 l 1,1,-1
 1200 0 l 1,2,-1
 1200 200 l 1,3,-1
 1000 200 l 1,0,-1
1200 1000 m 1,0,-1
 1200 800 l 1,1,-1
 1400 800 l 1,2,-1
 1400 1000 l 1,3,-1
 1200 1000 l 1,0,-1
1200 400 m 1,0,-1
 1200 200 l 1,1,-1
 1400 200 l 1,2,-1
 1400 400 l 1,3,-1
 1200 400 l 1,0,-1
EndSplineSet
EndChar

StartChar: u009f
Encoding: 159 159 146
Width: 1600
VWidth: 1200
GlyphClass: 2
Flags: W
LayerCount: 2
Fore
SplineSet
0 800 m 1,0,-1
 0 600 l 1,1,-1
 200 600 l 1,2,-1
 200 800 l 1,3,-1
 0 800 l 1,0,-1
200 1000 m 1,0,-1
 200 800 l 1,1,-1
 400 800 l 1,2,-1
 400 1000 l 1,3,-1
 200 1000 l 1,0,-1
200 800 m 1,0,-1
 200 600 l 1,1,-1
 400 600 l 1,2,-1
 400 800 l 1,3,-1
 200 800 l 1,0,-1
200 600 m 1,0,-1
 200 400 l 1,1,-1
 400 400 l 1,2,-1
 400 600 l 1,3,-1
 200 600 l 1,0,-1
200 400 m 1,0,-1
 200 200 l 1,1,-1
 400 200 l 1,2,-1
 400 400 l 1,3,-1
 200 400 l 1,0,-1
200 200 m 1,0,-1
 200 0 l 1,1,-1
 400 0 l 1,2,-1
 400 200 l 1,3,-1
 200 200 l 1,0,-1
400 800 m 1,0,-1
 400 600 l 1,1,-1
 600 600 l 1,2,-1
 600 800 l 1,3,-1
 400 800 l 1,0,-1
600 800 m 1,0,-1
 600 600 l 1,1,-1
 800 600 l 1,2,-1
 800 800 l 1,3,-1
 600 800 l 1,0,-1
600 200 m 1,0,-1
 600 0 l 1,1,-1
 800 0 l 1,2,-1
 800 200 l 1,3,-1
 600 200 l 1,0,-1
800 800 m 1,0,-1
 800 600 l 1,1,-1
 1000 600 l 1,2,-1
 1000 800 l 1,3,-1
 800 800 l 1,0,-1
800 600 m 1,0,-1
 800 400 l 1,1,-1
 1000 400 l 1,2,-1
 1000 600 l 1,3,-1
 800 600 l 1,0,-1
800 400 m 1,0,-1
 800 200 l 1,1,-1
 1000 200 l 1,2,-1
 1000 400 l 1,3,-1
 800 400 l 1,0,-1
1000 1000 m 1,0,-1
 1000 800 l 1,1,-1
 1200 800 l 1,2,-1
 1200 1000 l 1,3,-1
 1000 1000 l 1,0,-1
1200 800 m 1,0,-1
 1200 600 l 1,1,-1
 1400 600 l 1,2,-1
 1400 800 l 1,3,-1
 1200 800 l 1,0,-1
EndSplineSet
EndChar

StartChar: u00a0
Encoding: 160 160 147
Width: 1600
VWidth: 1200
GlyphClass: 2
Flags: W
LayerCount: 2
Fore
SplineSet
200 800 m 1,0,-1
 200 600 l 1,1,-1
 400 600 l 1,2,-1
 400 800 l 1,3,-1
 200 800 l 1,0,-1
200 400 m 1,0,-1
 200 200 l 1,1,-1
 400 200 l 1,2,-1
 400 400 l 1,3,-1
 200 400 l 1,0,-1
400 1000 m 1,0,-1
 400 800 l 1,1,-1
 600 800 l 1,2,-1
 600 1000 l 1,3,-1
 400 1000 l 1,0,-1
400 800 m 1,0,-1
 400 600 l 1,1,-1
 600 600 l 1,2,-1
 600 800 l 1,3,-1
 400 800 l 1,0,-1
400 600 m 1,0,-1
 400 400 l 1,1,-1
 600 400 l 1,2,-1
 600 600 l 1,3,-1
 400 600 l 1,0,-1
400 200 m 1,0,-1
 400 0 l 1,1,-1
 600 0 l 1,2,-1
 600 200 l 1,3,-1
 400 200 l 1,0,-1
600 1000 m 1,0,-1
 600 800 l 1,1,-1
 800 800 l 1,2,-1
 800 1000 l 1,3,-1
 600 1000 l 1,0,-1
600 800 m 1,0,-1
 600 600 l 1,1,-1
 800 600 l 1,2,-1
 800 800 l 1,3,-1
 600 800 l 1,0,-1
600 600 m 1,0,-1
 600 400 l 1,1,-1
 800 400 l 1,2,-1
 800 600 l 1,3,-1
 600 600 l 1,0,-1
600 200 m 1,0,-1
 600 0 l 1,1,-1
 800 0 l 1,2,-1
 800 200 l 1,3,-1
 600 200 l 1,0,-1
800 1000 m 1,0,-1
 800 800 l 1,1,-1
 1000 800 l 1,2,-1
 1000 1000 l 1,3,-1
 800 1000 l 1,0,-1
800 800 m 1,0,-1
 800 600 l 1,1,-1
 1000 600 l 1,2,-1
 1000 800 l 1,3,-1
 800 800 l 1,0,-1
800 600 m 1,0,-1
 800 400 l 1,1,-1
 1000 400 l 1,2,-1
 1000 600 l 1,3,-1
 800 600 l 1,0,-1
800 200 m 1,0,-1
 800 0 l 1,1,-1
 1000 0 l 1,2,-1
 1000 200 l 1,3,-1
 800 200 l 1,0,-1
1000 800 m 1,0,-1
 1000 600 l 1,1,-1
 1200 600 l 1,2,-1
 1200 800 l 1,3,-1
 1000 800 l 1,0,-1
EndSplineSet
EndChar

StartChar: u00a1
Encoding: 161 161 148
Width: 1600
VWidth: 1200
GlyphClass: 2
Flags: W
LayerCount: 2
Fore
SplineSet
200 600 m 1,0,-1
 200 400 l 1,1,-1
 400 400 l 1,2,-1
 400 600 l 1,3,-1
 200 600 l 1,0,-1
400 800 m 1,0,-1
 400 600 l 1,1,-1
 600 600 l 1,2,-1
 600 800 l 1,3,-1
 400 800 l 1,0,-1
400 400 m 1,0,-1
 400 200 l 1,1,-1
 600 200 l 1,2,-1
 600 400 l 1,3,-1
 400 400 l 1,0,-1
600 800 m 1,0,-1
 600 600 l 1,1,-1
 800 600 l 1,2,-1
 800 800 l 1,3,-1
 600 800 l 1,0,-1
600 400 m 1,0,-1
 600 200 l 1,1,-1
 800 200 l 1,2,-1
 800 400 l 1,3,-1
 600 400 l 1,0,-1
800 1000 m 1,0,-1
 800 800 l 1,1,-1
 1000 800 l 1,2,-1
 1000 1000 l 1,3,-1
 800 1000 l 1,0,-1
800 200 m 1,0,-1
 800 0 l 1,1,-1
 1000 0 l 1,2,-1
 1000 200 l 1,3,-1
 800 200 l 1,0,-1
1000 1000 m 1,0,-1
 1000 800 l 1,1,-1
 1200 800 l 1,2,-1
 1200 1000 l 1,3,-1
 1000 1000 l 1,0,-1
1000 200 m 1,0,-1
 1000 0 l 1,1,-1
 1200 0 l 1,2,-1
 1200 200 l 1,3,-1
 1000 200 l 1,0,-1
EndSplineSet
EndChar

StartChar: u00a2
Encoding: 162 162 149
Width: 1600
VWidth: 1200
GlyphClass: 2
Flags: W
LayerCount: 2
Fore
SplineSet
200 1000 m 1,0,-1
 200 800 l 1,1,-1
 400 800 l 1,2,-1
 400 1000 l 1,3,-1
 200 1000 l 1,0,-1
200 800 m 1,0,-1
 200 600 l 1,1,-1
 400 600 l 1,2,-1
 400 800 l 1,3,-1
 200 800 l 1,0,-1
200 600 m 1,0,-1
 200 400 l 1,1,-1
 400 400 l 1,2,-1
 400 600 l 1,3,-1
 200 600 l 1,0,-1
200 400 m 1,0,-1
 200 200 l 1,1,-1
 400 200 l 1,2,-1
 400 400 l 1,3,-1
 200 400 l 1,0,-1
200 200 m 1,0,-1
 200 0 l 1,1,-1
 400 0 l 1,2,-1
 400 200 l 1,3,-1
 200 200 l 1,0,-1
600 800 m 1,0,-1
 600 600 l 1,1,-1
 800 600 l 1,2,-1
 800 800 l 1,3,-1
 600 800 l 1,0,-1
800 800 m 1,0,-1
 800 600 l 1,1,-1
 1000 600 l 1,2,-1
 1000 800 l 1,3,-1
 800 800 l 1,0,-1
800 200 m 1,0,-1
 800 0 l 1,1,-1
 1000 0 l 1,2,-1
 1000 200 l 1,3,-1
 800 200 l 1,0,-1
1000 1000 m 1,0,-1
 1000 800 l 1,1,-1
 1200 800 l 1,2,-1
 1200 1000 l 1,3,-1
 1000 1000 l 1,0,-1
1000 800 m 1,0,-1
 1000 600 l 1,1,-1
 1200 600 l 1,2,-1
 1200 800 l 1,3,-1
 1000 800 l 1,0,-1
1000 600 m 1,0,-1
 1000 400 l 1,1,-1
 1200 400 l 1,2,-1
 1200 600 l 1,3,-1
 1000 600 l 1,0,-1
1000 400 m 1,0,-1
 1000 200 l 1,1,-1
 1200 200 l 1,2,-1
 1200 400 l 1,3,-1
 1000 400 l 1,0,-1
1200 800 m 1,0,-1
 1200 600 l 1,1,-1
 1400 600 l 1,2,-1
 1400 800 l 1,3,-1
 1200 800 l 1,0,-1
EndSplineSet
EndChar

StartChar: u00a3
Encoding: 163 163 150
Width: 1600
VWidth: 1200
GlyphClass: 2
Flags: W
LayerCount: 2
Fore
SplineSet
200 1000 m 1,0,-1
 200 800 l 1,1,-1
 400 800 l 1,2,-1
 400 1000 l 1,3,-1
 200 1000 l 1,0,-1
200 400 m 1,0,-1
 200 200 l 1,1,-1
 400 200 l 1,2,-1
 400 400 l 1,3,-1
 200 400 l 1,0,-1
400 1000 m 1,0,-1
 400 800 l 1,1,-1
 600 800 l 1,2,-1
 600 1000 l 1,3,-1
 400 1000 l 1,0,-1
400 200 m 1,0,-1
 400 0 l 1,1,-1
 600 0 l 1,2,-1
 600 200 l 1,3,-1
 400 200 l 1,0,-1
600 1000 m 1,0,-1
 600 800 l 1,1,-1
 800 800 l 1,2,-1
 800 1000 l 1,3,-1
 600 1000 l 1,0,-1
600 200 m 1,0,-1
 600 0 l 1,1,-1
 800 0 l 1,2,-1
 800 200 l 1,3,-1
 600 200 l 1,0,-1
800 800 m 1,0,-1
 800 600 l 1,1,-1
 1000 600 l 1,2,-1
 1000 800 l 1,3,-1
 800 800 l 1,0,-1
800 200 m 1,0,-1
 800 0 l 1,1,-1
 1000 0 l 1,2,-1
 1000 200 l 1,3,-1
 800 200 l 1,0,-1
1000 200 m 1,0,-1
 1000 0 l 1,1,-1
 1200 0 l 1,2,-1
 1200 200 l 1,3,-1
 1000 200 l 1,0,-1
EndSplineSet
EndChar

StartChar: u00a4
Encoding: 164 164 151
Width: 1600
VWidth: 1200
GlyphClass: 2
Flags: W
LayerCount: 2
Fore
SplineSet
0 400 m 1,0,-1
 0 200 l 1,1,-1
 200 200 l 1,2,-1
 200 400 l 1,3,-1
 0 400 l 1,0,-1
200 1000 m 1,0,-1
 200 800 l 1,1,-1
 400 800 l 1,2,-1
 400 1000 l 1,3,-1
 200 1000 l 1,0,-1
200 600 m 1,0,-1
 200 400 l 1,1,-1
 400 400 l 1,2,-1
 400 600 l 1,3,-1
 200 600 l 1,0,-1
200 200 m 1,0,-1
 200 0 l 1,1,-1
 400 0 l 1,2,-1
 400 200 l 1,3,-1
 200 200 l 1,0,-1
400 1000 m 1,0,-1
 400 800 l 1,1,-1
 600 800 l 1,2,-1
 600 1000 l 1,3,-1
 400 1000 l 1,0,-1
400 600 m 1,0,-1
 400 400 l 1,1,-1
 600 400 l 1,2,-1
 600 600 l 1,3,-1
 400 600 l 1,0,-1
400 200 m 1,0,-1
 400 0 l 1,1,-1
 600 0 l 1,2,-1
 600 200 l 1,3,-1
 400 200 l 1,0,-1
600 1000 m 1,0,-1
 600 800 l 1,1,-1
 800 800 l 1,2,-1
 800 1000 l 1,3,-1
 600 1000 l 1,0,-1
600 800 m 1,0,-1
 600 600 l 1,1,-1
 800 600 l 1,2,-1
 800 800 l 1,3,-1
 600 800 l 1,0,-1
600 600 m 1,0,-1
 600 400 l 1,1,-1
 800 400 l 1,2,-1
 800 600 l 1,3,-1
 600 600 l 1,0,-1
600 200 m 1,0,-1
 600 0 l 1,1,-1
 800 0 l 1,2,-1
 800 200 l 1,3,-1
 600 200 l 1,0,-1
800 1000 m 1,0,-1
 800 800 l 1,1,-1
 1000 800 l 1,2,-1
 1000 1000 l 1,3,-1
 800 1000 l 1,0,-1
800 200 m 1,0,-1
 800 0 l 1,1,-1
 1000 0 l 1,2,-1
 1000 200 l 1,3,-1
 800 200 l 1,0,-1
1000 1000 m 1,0,-1
 1000 800 l 1,1,-1
 1200 800 l 1,2,-1
 1200 1000 l 1,3,-1
 1000 1000 l 1,0,-1
EndSplineSet
EndChar

StartChar: u00a5
Encoding: 165 165 152
Width: 1600
VWidth: 1200
GlyphClass: 2
Flags: W
LayerCount: 2
Fore
SplineSet
200 1000 m 1,0,-1
 200 800 l 1,1,-1
 400 800 l 1,2,-1
 400 1000 l 1,3,-1
 200 1000 l 1,0,-1
200 800 m 1,0,-1
 200 600 l 1,1,-1
 400 600 l 1,2,-1
 400 800 l 1,3,-1
 200 800 l 1,0,-1
200 600 m 1,0,-1
 200 400 l 1,1,-1
 400 400 l 1,2,-1
 400 600 l 1,3,-1
 200 600 l 1,0,-1
200 400 m 1,0,-1
 200 200 l 1,1,-1
 400 200 l 1,2,-1
 400 400 l 1,3,-1
 200 400 l 1,0,-1
400 200 m 1,0,-1
 400 0 l 1,1,-1
 600 0 l 1,2,-1
 600 200 l 1,3,-1
 400 200 l 1,0,-1
600 200 m 1,0,-1
 600 0 l 1,1,-1
 800 0 l 1,2,-1
 800 200 l 1,3,-1
 600 200 l 1,0,-1
800 200 m 1,0,-1
 800 0 l 1,1,-1
 1000 0 l 1,2,-1
 1000 200 l 1,3,-1
 800 200 l 1,0,-1
1000 400 m 1,0,-1
 1000 200 l 1,1,-1
 1200 200 l 1,2,-1
 1200 400 l 1,3,-1
 1000 400 l 1,0,-1
EndSplineSet
EndChar

StartChar: u00a6
Encoding: 166 166 153
Width: 1600
VWidth: 1200
GlyphClass: 2
Flags: W
LayerCount: 2
Fore
SplineSet
200 800 m 1,0,-1
 200 600 l 1,1,-1
 400 600 l 1,2,-1
 400 800 l 1,3,-1
 200 800 l 1,0,-1
400 800 m 1,0,-1
 400 600 l 1,1,-1
 600 600 l 1,2,-1
 600 800 l 1,3,-1
 400 800 l 1,0,-1
400 400 m 1,0,-1
 400 200 l 1,1,-1
 600 200 l 1,2,-1
 600 400 l 1,3,-1
 400 400 l 1,0,-1
600 1000 m 1,0,-1
 600 800 l 1,1,-1
 800 800 l 1,2,-1
 800 1000 l 1,3,-1
 600 1000 l 1,0,-1
600 800 m 1,0,-1
 600 600 l 1,1,-1
 800 600 l 1,2,-1
 800 800 l 1,3,-1
 600 800 l 1,0,-1
600 600 m 1,0,-1
 600 400 l 1,1,-1
 800 400 l 1,2,-1
 800 600 l 1,3,-1
 600 600 l 1,0,-1
600 400 m 1,0,-1
 600 200 l 1,1,-1
 800 200 l 1,2,-1
 800 400 l 1,3,-1
 600 400 l 1,0,-1
600 200 m 1,0,-1
 600 0 l 1,1,-1
 800 0 l 1,2,-1
 800 200 l 1,3,-1
 600 200 l 1,0,-1
800 800 m 1,0,-1
 800 600 l 1,1,-1
 1000 600 l 1,2,-1
 1000 800 l 1,3,-1
 800 800 l 1,0,-1
1000 800 m 1,0,-1
 1000 600 l 1,1,-1
 1200 600 l 1,2,-1
 1200 800 l 1,3,-1
 1000 800 l 1,0,-1
EndSplineSet
EndChar

StartChar: u00a7
Encoding: 167 167 154
Width: 1600
VWidth: 1200
GlyphClass: 2
Flags: W
LayerCount: 2
Fore
SplineSet
200 1000 m 1,0,-1
 200 800 l 1,1,-1
 400 800 l 1,2,-1
 400 1000 l 1,3,-1
 200 1000 l 1,0,-1
200 800 m 1,0,-1
 200 600 l 1,1,-1
 400 600 l 1,2,-1
 400 800 l 1,3,-1
 200 800 l 1,0,-1
200 600 m 1,0,-1
 200 400 l 1,1,-1
 400 400 l 1,2,-1
 400 600 l 1,3,-1
 200 600 l 1,0,-1
200 400 m 1,0,-1
 200 200 l 1,1,-1
 400 200 l 1,2,-1
 400 400 l 1,3,-1
 200 400 l 1,0,-1
400 800 m 1,0,-1
 400 600 l 1,1,-1
 600 600 l 1,2,-1
 600 800 l 1,3,-1
 400 800 l 1,0,-1
400 200 m 1,0,-1
 400 0 l 1,1,-1
 600 0 l 1,2,-1
 600 200 l 1,3,-1
 400 200 l 1,0,-1
600 800 m 1,0,-1
 600 600 l 1,1,-1
 800 600 l 1,2,-1
 800 800 l 1,3,-1
 600 800 l 1,0,-1
600 200 m 1,0,-1
 600 0 l 1,1,-1
 800 0 l 1,2,-1
 800 200 l 1,3,-1
 600 200 l 1,0,-1
800 1000 m 1,0,-1
 800 800 l 1,1,-1
 1000 800 l 1,2,-1
 1000 1000 l 1,3,-1
 800 1000 l 1,0,-1
800 800 m 1,0,-1
 800 600 l 1,1,-1
 1000 600 l 1,2,-1
 1000 800 l 1,3,-1
 800 800 l 1,0,-1
800 600 m 1,0,-1
 800 400 l 1,1,-1
 1000 400 l 1,2,-1
 1000 600 l 1,3,-1
 800 600 l 1,0,-1
800 200 m 1,0,-1
 800 0 l 1,1,-1
 1000 0 l 1,2,-1
 1000 200 l 1,3,-1
 800 200 l 1,0,-1
1000 800 m 1,0,-1
 1000 600 l 1,1,-1
 1200 600 l 1,2,-1
 1200 800 l 1,3,-1
 1000 800 l 1,0,-1
EndSplineSet
EndChar

StartChar: u00a8
Encoding: 168 168 155
Width: 1600
VWidth: 1200
GlyphClass: 2
Flags: W
LayerCount: 2
Fore
SplineSet
200 600 m 1,0,-1
 200 400 l 1,1,-1
 400 400 l 1,2,-1
 400 600 l 1,3,-1
 200 600 l 1,0,-1
400 1000 m 1,0,-1
 400 800 l 1,1,-1
 600 800 l 1,2,-1
 600 1000 l 1,3,-1
 400 1000 l 1,0,-1
400 600 m 1,0,-1
 400 400 l 1,1,-1
 600 400 l 1,2,-1
 600 600 l 1,3,-1
 400 600 l 1,0,-1
600 1000 m 1,0,-1
 600 800 l 1,1,-1
 800 800 l 1,2,-1
 800 1000 l 1,3,-1
 600 1000 l 1,0,-1
600 600 m 1,0,-1
 600 400 l 1,1,-1
 800 400 l 1,2,-1
 800 600 l 1,3,-1
 600 600 l 1,0,-1
600 400 m 1,0,-1
 600 200 l 1,1,-1
 800 200 l 1,2,-1
 800 400 l 1,3,-1
 600 400 l 1,0,-1
800 1000 m 1,0,-1
 800 800 l 1,1,-1
 1000 800 l 1,2,-1
 1000 1000 l 1,3,-1
 800 1000 l 1,0,-1
800 800 m 1,0,-1
 800 600 l 1,1,-1
 1000 600 l 1,2,-1
 1000 800 l 1,3,-1
 800 800 l 1,0,-1
800 600 m 1,0,-1
 800 400 l 1,1,-1
 1000 400 l 1,2,-1
 1000 600 l 1,3,-1
 800 600 l 1,0,-1
800 200 m 1,0,-1
 800 0 l 1,1,-1
 1000 0 l 1,2,-1
 1000 200 l 1,3,-1
 800 200 l 1,0,-1
1000 1000 m 1,0,-1
 1000 800 l 1,1,-1
 1200 800 l 1,2,-1
 1200 1000 l 1,3,-1
 1000 1000 l 1,0,-1
1000 600 m 1,0,-1
 1000 400 l 1,1,-1
 1200 400 l 1,2,-1
 1200 600 l 1,3,-1
 1000 600 l 1,0,-1
1000 200 m 1,0,-1
 1000 0 l 1,1,-1
 1200 0 l 1,2,-1
 1200 200 l 1,3,-1
 1000 200 l 1,0,-1
1200 600 m 1,0,-1
 1200 400 l 1,1,-1
 1400 400 l 1,2,-1
 1400 600 l 1,3,-1
 1200 600 l 1,0,-1
1200 200 m 1,0,-1
 1200 0 l 1,1,-1
 1400 0 l 1,2,-1
 1400 200 l 1,3,-1
 1200 200 l 1,0,-1
EndSplineSet
EndChar

StartChar: u00a9
Encoding: 169 169 156
Width: 1600
VWidth: 1200
GlyphClass: 2
Flags: W
LayerCount: 2
Fore
SplineSet
200 800 m 1,0,-1
 200 600 l 1,1,-1
 400 600 l 1,2,-1
 400 800 l 1,3,-1
 200 800 l 1,0,-1
200 400 m 1,0,-1
 200 200 l 1,1,-1
 400 200 l 1,2,-1
 400 400 l 1,3,-1
 200 400 l 1,0,-1
200 200 m 1,0,-1
 200 0 l 1,1,-1
 400 0 l 1,2,-1
 400 200 l 1,3,-1
 200 200 l 1,0,-1
400 1000 m 1,0,-1
 400 800 l 1,1,-1
 600 800 l 1,2,-1
 600 1000 l 1,3,-1
 400 1000 l 1,0,-1
400 800 m 1,0,-1
 400 600 l 1,1,-1
 600 600 l 1,2,-1
 600 800 l 1,3,-1
 400 800 l 1,0,-1
400 600 m 1,0,-1
 400 400 l 1,1,-1
 600 400 l 1,2,-1
 600 600 l 1,3,-1
 400 600 l 1,0,-1
600 800 m 1,0,-1
 600 600 l 1,1,-1
 800 600 l 1,2,-1
 800 800 l 1,3,-1
 600 800 l 1,0,-1
800 600 m 1,0,-1
 800 400 l 1,1,-1
 1000 400 l 1,2,-1
 1000 600 l 1,3,-1
 800 600 l 1,0,-1
800 200 m 1,0,-1
 800 0 l 1,1,-1
 1000 0 l 1,2,-1
 1000 200 l 1,3,-1
 800 200 l 1,0,-1
1000 600 m 1,0,-1
 1000 400 l 1,1,-1
 1200 400 l 1,2,-1
 1200 600 l 1,3,-1
 1000 600 l 1,0,-1
1000 200 m 1,0,-1
 1000 0 l 1,1,-1
 1200 0 l 1,2,-1
 1200 200 l 1,3,-1
 1000 200 l 1,0,-1
1200 200 m 1,0,-1
 1200 0 l 1,1,-1
 1400 0 l 1,2,-1
 1400 200 l 1,3,-1
 1200 200 l 1,0,-1
EndSplineSet
EndChar

StartChar: u00aa
Encoding: 170 170 157
Width: 1600
VWidth: 1200
GlyphClass: 2
Flags: W
LayerCount: 2
Fore
SplineSet
0 800 m 1,0,-1
 0 600 l 1,1,-1
 200 600 l 1,2,-1
 200 800 l 1,3,-1
 0 800 l 1,0,-1
200 800 m 1,0,-1
 200 600 l 1,1,-1
 400 600 l 1,2,-1
 400 800 l 1,3,-1
 200 800 l 1,0,-1
200 200 m 1,0,-1
 200 0 l 1,1,-1
 400 0 l 1,2,-1
 400 200 l 1,3,-1
 200 200 l 1,0,-1
400 1000 m 1,0,-1
 400 800 l 1,1,-1
 600 800 l 1,2,-1
 600 1000 l 1,3,-1
 400 1000 l 1,0,-1
400 800 m 1,0,-1
 400 600 l 1,1,-1
 600 600 l 1,2,-1
 600 800 l 1,3,-1
 400 800 l 1,0,-1
400 600 m 1,0,-1
 400 400 l 1,1,-1
 600 400 l 1,2,-1
 600 600 l 1,3,-1
 400 600 l 1,0,-1
400 200 m 1,0,-1
 400 0 l 1,1,-1
 600 0 l 1,2,-1
 600 200 l 1,3,-1
 400 200 l 1,0,-1
600 800 m 1,0,-1
 600 600 l 1,1,-1
 800 600 l 1,2,-1
 800 800 l 1,3,-1
 600 800 l 1,0,-1
600 600 m 1,0,-1
 600 400 l 1,1,-1
 800 400 l 1,2,-1
 800 600 l 1,3,-1
 600 600 l 1,0,-1
600 200 m 1,0,-1
 600 0 l 1,1,-1
 800 0 l 1,2,-1
 800 200 l 1,3,-1
 600 200 l 1,0,-1
800 800 m 1,0,-1
 800 600 l 1,1,-1
 1000 600 l 1,2,-1
 1000 800 l 1,3,-1
 800 800 l 1,0,-1
800 600 m 1,0,-1
 800 400 l 1,1,-1
 1000 400 l 1,2,-1
 1000 600 l 1,3,-1
 800 600 l 1,0,-1
800 400 m 1,0,-1
 800 200 l 1,1,-1
 1000 200 l 1,2,-1
 1000 400 l 1,3,-1
 800 400 l 1,0,-1
800 200 m 1,0,-1
 800 0 l 1,1,-1
 1000 0 l 1,2,-1
 1000 200 l 1,3,-1
 800 200 l 1,0,-1
1000 800 m 1,0,-1
 1000 600 l 1,1,-1
 1200 600 l 1,2,-1
 1200 800 l 1,3,-1
 1000 800 l 1,0,-1
1000 400 m 1,0,-1
 1000 200 l 1,1,-1
 1200 200 l 1,2,-1
 1200 400 l 1,3,-1
 1000 400 l 1,0,-1
EndSplineSet
EndChar

StartChar: u00ab
Encoding: 171 171 158
Width: 1600
VWidth: 1200
GlyphClass: 2
Flags: W
LayerCount: 2
Fore
SplineSet
0 800 m 1,0,-1
 0 600 l 1,1,-1
 200 600 l 1,2,-1
 200 800 l 1,3,-1
 0 800 l 1,0,-1
200 800 m 1,0,-1
 200 600 l 1,1,-1
 400 600 l 1,2,-1
 400 800 l 1,3,-1
 200 800 l 1,0,-1
400 1000 m 1,0,-1
 400 800 l 1,1,-1
 600 800 l 1,2,-1
 600 1000 l 1,3,-1
 400 1000 l 1,0,-1
600 1000 m 1,0,-1
 600 800 l 1,1,-1
 800 800 l 1,2,-1
 800 1000 l 1,3,-1
 600 1000 l 1,0,-1
600 200 m 1,0,-1
 600 0 l 1,1,-1
 800 0 l 1,2,-1
 800 200 l 1,3,-1
 600 200 l 1,0,-1
800 1000 m 1,0,-1
 800 800 l 1,1,-1
 1000 800 l 1,2,-1
 1000 1000 l 1,3,-1
 800 1000 l 1,0,-1
800 200 m 1,0,-1
 800 0 l 1,1,-1
 1000 0 l 1,2,-1
 1000 200 l 1,3,-1
 800 200 l 1,0,-1
1000 1000 m 1,0,-1
 1000 800 l 1,1,-1
 1200 800 l 1,2,-1
 1200 1000 l 1,3,-1
 1000 1000 l 1,0,-1
1000 400 m 1,0,-1
 1000 200 l 1,1,-1
 1200 200 l 1,2,-1
 1200 400 l 1,3,-1
 1000 400 l 1,0,-1
1200 800 m 1,0,-1
 1200 600 l 1,1,-1
 1400 600 l 1,2,-1
 1400 800 l 1,3,-1
 1200 800 l 1,0,-1
1200 600 m 1,0,-1
 1200 400 l 1,1,-1
 1400 400 l 1,2,-1
 1400 600 l 1,3,-1
 1200 600 l 1,0,-1
EndSplineSet
EndChar

StartChar: u00ac
Encoding: 172 172 159
Width: 1600
VWidth: 1200
GlyphClass: 2
Flags: W
LayerCount: 2
Fore
SplineSet
200 1000 m 1,0,-1
 200 800 l 1,1,-1
 400 800 l 1,2,-1
 400 1000 l 1,3,-1
 200 1000 l 1,0,-1
400 1000 m 1,0,-1
 400 800 l 1,1,-1
 600 800 l 1,2,-1
 600 1000 l 1,3,-1
 400 1000 l 1,0,-1
600 1000 m 1,0,-1
 600 800 l 1,1,-1
 800 800 l 1,2,-1
 800 1000 l 1,3,-1
 600 1000 l 1,0,-1
600 600 m 1,0,-1
 600 400 l 1,1,-1
 800 400 l 1,2,-1
 800 600 l 1,3,-1
 600 600 l 1,0,-1
600 400 m 1,0,-1
 600 200 l 1,1,-1
 800 200 l 1,2,-1
 800 400 l 1,3,-1
 600 400 l 1,0,-1
800 1000 m 1,0,-1
 800 800 l 1,1,-1
 1000 800 l 1,2,-1
 1000 1000 l 1,3,-1
 800 1000 l 1,0,-1
800 800 m 1,0,-1
 800 600 l 1,1,-1
 1000 600 l 1,2,-1
 1000 800 l 1,3,-1
 800 800 l 1,0,-1
800 200 m 1,0,-1
 800 0 l 1,1,-1
 1000 0 l 1,2,-1
 1000 200 l 1,3,-1
 800 200 l 1,0,-1
1000 1000 m 1,0,-1
 1000 800 l 1,1,-1
 1200 800 l 1,2,-1
 1200 1000 l 1,3,-1
 1000 1000 l 1,0,-1
EndSplineSet
EndChar

StartChar: u00ad
Encoding: 173 173 160
Width: 1600
VWidth: 1200
GlyphClass: 2
Flags: W
LayerCount: 2
Fore
SplineSet
200 400 m 1,0,-1
 200 200 l 1,1,-1
 400 200 l 1,2,-1
 400 400 l 1,3,-1
 200 400 l 1,0,-1
400 600 m 1,0,-1
 400 400 l 1,1,-1
 600 400 l 1,2,-1
 600 600 l 1,3,-1
 400 600 l 1,0,-1
400 200 m 1,0,-1
 400 0 l 1,1,-1
 600 0 l 1,2,-1
 600 200 l 1,3,-1
 400 200 l 1,0,-1
600 1000 m 1,0,-1
 600 800 l 1,1,-1
 800 800 l 1,2,-1
 800 1000 l 1,3,-1
 600 1000 l 1,0,-1
600 800 m 1,0,-1
 600 600 l 1,1,-1
 800 600 l 1,2,-1
 800 800 l 1,3,-1
 600 800 l 1,0,-1
600 200 m 1,0,-1
 600 0 l 1,1,-1
 800 0 l 1,2,-1
 800 200 l 1,3,-1
 600 200 l 1,0,-1
800 800 m 1,0,-1
 800 600 l 1,1,-1
 1000 600 l 1,2,-1
 1000 800 l 1,3,-1
 800 800 l 1,0,-1
800 200 m 1,0,-1
 800 0 l 1,1,-1
 1000 0 l 1,2,-1
 1000 200 l 1,3,-1
 800 200 l 1,0,-1
1000 800 m 1,0,-1
 1000 600 l 1,1,-1
 1200 600 l 1,2,-1
 1200 800 l 1,3,-1
 1000 800 l 1,0,-1
1000 200 m 1,0,-1
 1000 0 l 1,1,-1
 1200 0 l 1,2,-1
 1200 200 l 1,3,-1
 1000 200 l 1,0,-1
EndSplineSet
EndChar

StartChar: u00ae
Encoding: 174 174 161
Width: 1600
VWidth: 1200
GlyphClass: 2
Flags: W
LayerCount: 2
Fore
SplineSet
0 800 m 1,0,-1
 0 600 l 1,1,-1
 200 600 l 1,2,-1
 200 800 l 1,3,-1
 0 800 l 1,0,-1
0 400 m 1,0,-1
 0 200 l 1,1,-1
 200 200 l 1,2,-1
 200 400 l 1,3,-1
 0 400 l 1,0,-1
200 1000 m 1,0,-1
 200 800 l 1,1,-1
 400 800 l 1,2,-1
 400 1000 l 1,3,-1
 200 1000 l 1,0,-1
200 800 m 1,0,-1
 200 600 l 1,1,-1
 400 600 l 1,2,-1
 400 800 l 1,3,-1
 200 800 l 1,0,-1
200 600 m 1,0,-1
 200 400 l 1,1,-1
 400 400 l 1,2,-1
 400 600 l 1,3,-1
 200 600 l 1,0,-1
400 800 m 1,0,-1
 400 600 l 1,1,-1
 600 600 l 1,2,-1
 600 800 l 1,3,-1
 400 800 l 1,0,-1
600 800 m 1,0,-1
 600 600 l 1,1,-1
 800 600 l 1,2,-1
 800 800 l 1,3,-1
 600 800 l 1,0,-1
600 400 m 1,0,-1
 600 200 l 1,1,-1
 800 200 l 1,2,-1
 800 400 l 1,3,-1
 600 400 l 1,0,-1
600 200 m 1,0,-1
 600 0 l 1,1,-1
 800 0 l 1,2,-1
 800 200 l 1,3,-1
 600 200 l 1,0,-1
800 400 m 1,0,-1
 800 200 l 1,1,-1
 1000 200 l 1,2,-1
 1000 400 l 1,3,-1
 800 400 l 1,0,-1
800 200 m 1,0,-1
 800 0 l 1,1,-1
 1000 0 l 1,2,-1
 1000 200 l 1,3,-1
 800 200 l 1,0,-1
1000 1000 m 1,0,-1
 1000 800 l 1,1,-1
 1200 800 l 1,2,-1
 1200 1000 l 1,3,-1
 1000 1000 l 1,0,-1
1000 600 m 1,0,-1
 1000 400 l 1,1,-1
 1200 400 l 1,2,-1
 1200 600 l 1,3,-1
 1000 600 l 1,0,-1
1000 400 m 1,0,-1
 1000 200 l 1,1,-1
 1200 200 l 1,2,-1
 1200 400 l 1,3,-1
 1000 400 l 1,0,-1
1200 1000 m 1,0,-1
 1200 800 l 1,1,-1
 1400 800 l 1,2,-1
 1400 1000 l 1,3,-1
 1200 1000 l 1,0,-1
1200 200 m 1,0,-1
 1200 0 l 1,1,-1
 1400 0 l 1,2,-1
 1400 200 l 1,3,-1
 1200 200 l 1,0,-1
EndSplineSet
EndChar

StartChar: u00af
Encoding: 175 175 162
Width: 1600
VWidth: 1200
GlyphClass: 2
Flags: W
LayerCount: 2
Fore
SplineSet
200 1000 m 1,0,-1
 200 800 l 1,1,-1
 400 800 l 1,2,-1
 400 1000 l 1,3,-1
 200 1000 l 1,0,-1
200 800 m 1,0,-1
 200 600 l 1,1,-1
 400 600 l 1,2,-1
 400 800 l 1,3,-1
 200 800 l 1,0,-1
200 600 m 1,0,-1
 200 400 l 1,1,-1
 400 400 l 1,2,-1
 400 600 l 1,3,-1
 200 600 l 1,0,-1
200 400 m 1,0,-1
 200 200 l 1,1,-1
 400 200 l 1,2,-1
 400 400 l 1,3,-1
 200 400 l 1,0,-1
200 200 m 1,0,-1
 200 0 l 1,1,-1
 400 0 l 1,2,-1
 400 200 l 1,3,-1
 200 200 l 1,0,-1
600 1000 m 1,0,-1
 600 800 l 1,1,-1
 800 800 l 1,2,-1
 800 1000 l 1,3,-1
 600 1000 l 1,0,-1
600 400 m 1,0,-1
 600 200 l 1,1,-1
 800 200 l 1,2,-1
 800 400 l 1,3,-1
 600 400 l 1,0,-1
800 1000 m 1,0,-1
 800 800 l 1,1,-1
 1000 800 l 1,2,-1
 1000 1000 l 1,3,-1
 800 1000 l 1,0,-1
800 200 m 1,0,-1
 800 0 l 1,1,-1
 1000 0 l 1,2,-1
 1000 200 l 1,3,-1
 800 200 l 1,0,-1
1000 1000 m 1,0,-1
 1000 800 l 1,1,-1
 1200 800 l 1,2,-1
 1200 1000 l 1,3,-1
 1000 1000 l 1,0,-1
1000 200 m 1,0,-1
 1000 0 l 1,1,-1
 1200 0 l 1,2,-1
 1200 200 l 1,3,-1
 1000 200 l 1,0,-1
1200 1000 m 1,0,-1
 1200 800 l 1,1,-1
 1400 800 l 1,2,-1
 1400 1000 l 1,3,-1
 1200 1000 l 1,0,-1
1200 800 m 1,0,-1
 1200 600 l 1,1,-1
 1400 600 l 1,2,-1
 1400 800 l 1,3,-1
 1200 800 l 1,0,-1
1200 200 m 1,0,-1
 1200 0 l 1,1,-1
 1400 0 l 1,2,-1
 1400 200 l 1,3,-1
 1200 200 l 1,0,-1
EndSplineSet
EndChar

StartChar: u00b0
Encoding: 176 176 163
Width: 1600
VWidth: 1200
GlyphClass: 2
Flags: W
LayerCount: 2
Fore
SplineSet
0 1000 m 1,0,-1
 0 800 l 1,1,-1
 200 800 l 1,2,-1
 200 1000 l 1,3,-1
 0 1000 l 1,0,-1
0 600 m 1,0,-1
 0 400 l 1,1,-1
 200 400 l 1,2,-1
 200 600 l 1,3,-1
 0 600 l 1,0,-1
0 400 m 1,0,-1
 0 200 l 1,1,-1
 200 200 l 1,2,-1
 200 400 l 1,3,-1
 0 400 l 1,0,-1
200 800 m 1,0,-1
 200 600 l 1,1,-1
 400 600 l 1,2,-1
 400 800 l 1,3,-1
 200 800 l 1,0,-1
200 600 m 1,0,-1
 200 400 l 1,1,-1
 400 400 l 1,2,-1
 400 600 l 1,3,-1
 200 600 l 1,0,-1
200 200 m 1,0,-1
 200 0 l 1,1,-1
 400 0 l 1,2,-1
 400 200 l 1,3,-1
 200 200 l 1,0,-1
400 800 m 1,0,-1
 400 600 l 1,1,-1
 600 600 l 1,2,-1
 600 800 l 1,3,-1
 400 800 l 1,0,-1
400 400 m 1,0,-1
 400 200 l 1,1,-1
 600 200 l 1,2,-1
 600 400 l 1,3,-1
 400 400 l 1,0,-1
400 200 m 1,0,-1
 400 0 l 1,1,-1
 600 0 l 1,2,-1
 600 200 l 1,3,-1
 400 200 l 1,0,-1
600 1000 m 1,0,-1
 600 800 l 1,1,-1
 800 800 l 1,2,-1
 800 1000 l 1,3,-1
 600 1000 l 1,0,-1
600 800 m 1,0,-1
 600 600 l 1,1,-1
 800 600 l 1,2,-1
 800 800 l 1,3,-1
 600 800 l 1,0,-1
600 600 m 1,0,-1
 600 400 l 1,1,-1
 800 400 l 1,2,-1
 800 600 l 1,3,-1
 600 600 l 1,0,-1
600 400 m 1,0,-1
 600 200 l 1,1,-1
 800 200 l 1,2,-1
 800 400 l 1,3,-1
 600 400 l 1,0,-1
800 800 m 1,0,-1
 800 600 l 1,1,-1
 1000 600 l 1,2,-1
 1000 800 l 1,3,-1
 800 800 l 1,0,-1
1000 800 m 1,0,-1
 1000 600 l 1,1,-1
 1200 600 l 1,2,-1
 1200 800 l 1,3,-1
 1000 800 l 1,0,-1
1000 400 m 1,0,-1
 1000 200 l 1,1,-1
 1200 200 l 1,2,-1
 1200 400 l 1,3,-1
 1000 400 l 1,0,-1
1000 200 m 1,0,-1
 1000 0 l 1,1,-1
 1200 0 l 1,2,-1
 1200 200 l 1,3,-1
 1000 200 l 1,0,-1
1200 600 m 1,0,-1
 1200 400 l 1,1,-1
 1400 400 l 1,2,-1
 1400 600 l 1,3,-1
 1200 600 l 1,0,-1
1200 400 m 1,0,-1
 1200 200 l 1,1,-1
 1400 200 l 1,2,-1
 1400 400 l 1,3,-1
 1200 400 l 1,0,-1
1200 200 m 1,0,-1
 1200 0 l 1,1,-1
 1400 0 l 1,2,-1
 1400 200 l 1,3,-1
 1200 200 l 1,0,-1
EndSplineSet
EndChar

StartChar: u00b1
Encoding: 177 177 164
Width: 1600
VWidth: 1200
GlyphClass: 2
Flags: W
LayerCount: 2
Fore
SplineSet
0 800 m 1,0,-1
 0 600 l 1,1,-1
 200 600 l 1,2,-1
 200 800 l 1,3,-1
 0 800 l 1,0,-1
0 400 m 1,0,-1
 0 200 l 1,1,-1
 200 200 l 1,2,-1
 200 400 l 1,3,-1
 0 400 l 1,0,-1
200 1000 m 1,0,-1
 200 800 l 1,1,-1
 400 800 l 1,2,-1
 400 1000 l 1,3,-1
 200 1000 l 1,0,-1
200 800 m 1,0,-1
 200 600 l 1,1,-1
 400 600 l 1,2,-1
 400 800 l 1,3,-1
 200 800 l 1,0,-1
200 600 m 1,0,-1
 200 400 l 1,1,-1
 400 400 l 1,2,-1
 400 600 l 1,3,-1
 200 600 l 1,0,-1
200 400 m 1,0,-1
 200 200 l 1,1,-1
 400 200 l 1,2,-1
 400 400 l 1,3,-1
 200 400 l 1,0,-1
200 200 m 1,0,-1
 200 0 l 1,1,-1
 400 0 l 1,2,-1
 400 200 l 1,3,-1
 200 200 l 1,0,-1
400 600 m 1,0,-1
 400 400 l 1,1,-1
 600 400 l 1,2,-1
 600 600 l 1,3,-1
 400 600 l 1,0,-1
600 800 m 1,0,-1
 600 600 l 1,1,-1
 800 600 l 1,2,-1
 800 800 l 1,3,-1
 600 800 l 1,0,-1
800 1000 m 1,0,-1
 800 800 l 1,1,-1
 1000 800 l 1,2,-1
 1000 1000 l 1,3,-1
 800 1000 l 1,0,-1
1000 1000 m 1,0,-1
 1000 800 l 1,1,-1
 1200 800 l 1,2,-1
 1200 1000 l 1,3,-1
 1000 1000 l 1,0,-1
1000 400 m 1,0,-1
 1000 200 l 1,1,-1
 1200 200 l 1,2,-1
 1200 400 l 1,3,-1
 1000 400 l 1,0,-1
1000 200 m 1,0,-1
 1000 0 l 1,1,-1
 1200 0 l 1,2,-1
 1200 200 l 1,3,-1
 1000 200 l 1,0,-1
1200 800 m 1,0,-1
 1200 600 l 1,1,-1
 1400 600 l 1,2,-1
 1400 800 l 1,3,-1
 1200 800 l 1,0,-1
1200 600 m 1,0,-1
 1200 400 l 1,1,-1
 1400 400 l 1,2,-1
 1400 600 l 1,3,-1
 1200 600 l 1,0,-1
1200 400 m 1,0,-1
 1200 200 l 1,1,-1
 1400 200 l 1,2,-1
 1400 400 l 1,3,-1
 1200 400 l 1,0,-1
1200 200 m 1,0,-1
 1200 0 l 1,1,-1
 1400 0 l 1,2,-1
 1400 200 l 1,3,-1
 1200 200 l 1,0,-1
EndSplineSet
EndChar

StartChar: u00b2
Encoding: 178 178 165
Width: 1600
VWidth: 1200
GlyphClass: 2
Flags: W
LayerCount: 2
Fore
SplineSet
0 600 m 1,0,-1
 0 400 l 1,1,-1
 200 400 l 1,2,-1
 200 600 l 1,3,-1
 0 600 l 1,0,-1
0 400 m 1,0,-1
 0 200 l 1,1,-1
 200 200 l 1,2,-1
 200 400 l 1,3,-1
 0 400 l 1,0,-1
200 800 m 1,0,-1
 200 600 l 1,1,-1
 400 600 l 1,2,-1
 400 800 l 1,3,-1
 200 800 l 1,0,-1
200 200 m 1,0,-1
 200 0 l 1,1,-1
 400 0 l 1,2,-1
 400 200 l 1,3,-1
 200 200 l 1,0,-1
400 1000 m 1,0,-1
 400 800 l 1,1,-1
 600 800 l 1,2,-1
 600 1000 l 1,3,-1
 400 1000 l 1,0,-1
400 200 m 1,0,-1
 400 0 l 1,1,-1
 600 0 l 1,2,-1
 600 200 l 1,3,-1
 400 200 l 1,0,-1
600 1000 m 1,0,-1
 600 800 l 1,1,-1
 800 800 l 1,2,-1
 800 1000 l 1,3,-1
 600 1000 l 1,0,-1
600 800 m 1,0,-1
 600 600 l 1,1,-1
 800 600 l 1,2,-1
 800 800 l 1,3,-1
 600 800 l 1,0,-1
600 600 m 1,0,-1
 600 400 l 1,1,-1
 800 400 l 1,2,-1
 800 600 l 1,3,-1
 600 600 l 1,0,-1
600 400 m 1,0,-1
 600 200 l 1,1,-1
 800 200 l 1,2,-1
 800 400 l 1,3,-1
 600 400 l 1,0,-1
800 1000 m 1,0,-1
 800 800 l 1,1,-1
 1000 800 l 1,2,-1
 1000 1000 l 1,3,-1
 800 1000 l 1,0,-1
1000 1000 m 1,0,-1
 1000 800 l 1,1,-1
 1200 800 l 1,2,-1
 1200 1000 l 1,3,-1
 1000 1000 l 1,0,-1
1000 200 m 1,0,-1
 1000 0 l 1,1,-1
 1200 0 l 1,2,-1
 1200 200 l 1,3,-1
 1000 200 l 1,0,-1
1200 800 m 1,0,-1
 1200 600 l 1,1,-1
 1400 600 l 1,2,-1
 1400 800 l 1,3,-1
 1200 800 l 1,0,-1
1200 600 m 1,0,-1
 1200 400 l 1,1,-1
 1400 400 l 1,2,-1
 1400 600 l 1,3,-1
 1200 600 l 1,0,-1
1200 400 m 1,0,-1
 1200 200 l 1,1,-1
 1400 200 l 1,2,-1
 1400 400 l 1,3,-1
 1200 400 l 1,0,-1
EndSplineSet
EndChar

StartChar: u00b3
Encoding: 179 179 166
Width: 1600
VWidth: 1200
GlyphClass: 2
Flags: W
LayerCount: 2
Fore
SplineSet
200 1000 m 1,0,-1
 200 800 l 1,1,-1
 400 800 l 1,2,-1
 400 1000 l 1,3,-1
 200 1000 l 1,0,-1
200 800 m 1,0,-1
 200 600 l 1,1,-1
 400 600 l 1,2,-1
 400 800 l 1,3,-1
 200 800 l 1,0,-1
200 600 m 1,0,-1
 200 400 l 1,1,-1
 400 400 l 1,2,-1
 400 600 l 1,3,-1
 200 600 l 1,0,-1
200 400 m 1,0,-1
 200 200 l 1,1,-1
 400 200 l 1,2,-1
 400 400 l 1,3,-1
 200 400 l 1,0,-1
200 200 m 1,0,-1
 200 0 l 1,1,-1
 400 0 l 1,2,-1
 400 200 l 1,3,-1
 200 200 l 1,0,-1
600 800 m 1,0,-1
 600 600 l 1,1,-1
 800 600 l 1,2,-1
 800 800 l 1,3,-1
 600 800 l 1,0,-1
600 400 m 1,0,-1
 600 200 l 1,1,-1
 800 200 l 1,2,-1
 800 400 l 1,3,-1
 600 400 l 1,0,-1
600 200 m 1,0,-1
 600 0 l 1,1,-1
 800 0 l 1,2,-1
 800 200 l 1,3,-1
 600 200 l 1,0,-1
800 1000 m 1,0,-1
 800 800 l 1,1,-1
 1000 800 l 1,2,-1
 1000 1000 l 1,3,-1
 800 1000 l 1,0,-1
800 800 m 1,0,-1
 800 600 l 1,1,-1
 1000 600 l 1,2,-1
 1000 800 l 1,3,-1
 800 800 l 1,0,-1
800 600 m 1,0,-1
 800 400 l 1,1,-1
 1000 400 l 1,2,-1
 1000 600 l 1,3,-1
 800 600 l 1,0,-1
800 400 m 1,0,-1
 800 200 l 1,1,-1
 1000 200 l 1,2,-1
 1000 400 l 1,3,-1
 800 400 l 1,0,-1
800 200 m 1,0,-1
 800 0 l 1,1,-1
 1000 0 l 1,2,-1
 1000 200 l 1,3,-1
 800 200 l 1,0,-1
1000 800 m 1,0,-1
 1000 600 l 1,1,-1
 1200 600 l 1,2,-1
 1200 800 l 1,3,-1
 1000 800 l 1,0,-1
1000 400 m 1,0,-1
 1000 200 l 1,1,-1
 1200 200 l 1,2,-1
 1200 400 l 1,3,-1
 1000 400 l 1,0,-1
1200 200 m 1,0,-1
 1200 0 l 1,1,-1
 1400 0 l 1,2,-1
 1400 200 l 1,3,-1
 1200 200 l 1,0,-1
EndSplineSet
EndChar

StartChar: u00b4
Encoding: 180 180 167
Width: 1600
VWidth: 1200
GlyphClass: 2
Flags: W
LayerCount: 2
Fore
SplineSet
0 1000 m 1,0,-1
 0 800 l 1,1,-1
 200 800 l 1,2,-1
 200 1000 l 1,3,-1
 0 1000 l 1,0,-1
200 1000 m 1,0,-1
 200 800 l 1,1,-1
 400 800 l 1,2,-1
 400 1000 l 1,3,-1
 200 1000 l 1,0,-1
200 800 m 1,0,-1
 200 600 l 1,1,-1
 400 600 l 1,2,-1
 400 800 l 1,3,-1
 200 800 l 1,0,-1
200 600 m 1,0,-1
 200 400 l 1,1,-1
 400 400 l 1,2,-1
 400 600 l 1,3,-1
 200 600 l 1,0,-1
200 400 m 1,0,-1
 200 200 l 1,1,-1
 400 200 l 1,2,-1
 400 400 l 1,3,-1
 200 400 l 1,0,-1
400 200 m 1,0,-1
 400 0 l 1,1,-1
 600 0 l 1,2,-1
 600 200 l 1,3,-1
 400 200 l 1,0,-1
600 200 m 1,0,-1
 600 0 l 1,1,-1
 800 0 l 1,2,-1
 800 200 l 1,3,-1
 600 200 l 1,0,-1
800 200 m 1,0,-1
 800 0 l 1,1,-1
 1000 0 l 1,2,-1
 1000 200 l 1,3,-1
 800 200 l 1,0,-1
1000 1000 m 1,0,-1
 1000 800 l 1,1,-1
 1200 800 l 1,2,-1
 1200 1000 l 1,3,-1
 1000 1000 l 1,0,-1
1000 800 m 1,0,-1
 1000 600 l 1,1,-1
 1200 600 l 1,2,-1
 1200 800 l 1,3,-1
 1000 800 l 1,0,-1
1000 600 m 1,0,-1
 1000 400 l 1,1,-1
 1200 400 l 1,2,-1
 1200 600 l 1,3,-1
 1000 600 l 1,0,-1
1000 400 m 1,0,-1
 1000 200 l 1,1,-1
 1200 200 l 1,2,-1
 1200 400 l 1,3,-1
 1000 400 l 1,0,-1
1200 800 m 1,0,-1
 1200 600 l 1,1,-1
 1400 600 l 1,2,-1
 1400 800 l 1,3,-1
 1200 800 l 1,0,-1
EndSplineSet
EndChar

StartChar: u00b5
Encoding: 181 181 168
Width: 1600
VWidth: 1200
GlyphClass: 2
Flags: W
LayerCount: 2
Fore
SplineSet
0 200 m 1,0,-1
 0 0 l 1,1,-1
 200 0 l 1,2,-1
 200 200 l 1,3,-1
 0 200 l 1,0,-1
200 400 m 1,0,-1
 200 200 l 1,1,-1
 400 200 l 1,2,-1
 400 400 l 1,3,-1
 200 400 l 1,0,-1
400 1000 m 1,0,-1
 400 800 l 1,1,-1
 600 800 l 1,2,-1
 600 1000 l 1,3,-1
 400 1000 l 1,0,-1
400 200 m 1,0,-1
 400 0 l 1,1,-1
 600 0 l 1,2,-1
 600 200 l 1,3,-1
 400 200 l 1,0,-1
600 1000 m 1,0,-1
 600 800 l 1,1,-1
 800 800 l 1,2,-1
 800 1000 l 1,3,-1
 600 1000 l 1,0,-1
600 600 m 1,0,-1
 600 400 l 1,1,-1
 800 400 l 1,2,-1
 800 600 l 1,3,-1
 600 600 l 1,0,-1
600 400 m 1,0,-1
 600 200 l 1,1,-1
 800 200 l 1,2,-1
 800 400 l 1,3,-1
 600 400 l 1,0,-1
600 200 m 1,0,-1
 600 0 l 1,1,-1
 800 0 l 1,2,-1
 800 200 l 1,3,-1
 600 200 l 1,0,-1
1000 400 m 1,0,-1
 1000 200 l 1,1,-1
 1200 200 l 1,2,-1
 1200 400 l 1,3,-1
 1000 400 l 1,0,-1
1200 200 m 1,0,-1
 1200 0 l 1,1,-1
 1400 0 l 1,2,-1
 1400 200 l 1,3,-1
 1200 200 l 1,0,-1
EndSplineSet
EndChar

StartChar: u00b6
Encoding: 182 182 169
Width: 1600
VWidth: 1200
GlyphClass: 2
Flags: W
LayerCount: 2
Fore
SplineSet
0 400 m 1,0,-1
 0 200 l 1,1,-1
 200 200 l 1,2,-1
 200 400 l 1,3,-1
 0 400 l 1,0,-1
200 600 m 1,0,-1
 200 400 l 1,1,-1
 400 400 l 1,2,-1
 400 600 l 1,3,-1
 200 600 l 1,0,-1
400 800 m 1,0,-1
 400 600 l 1,1,-1
 600 600 l 1,2,-1
 600 800 l 1,3,-1
 400 800 l 1,0,-1
600 800 m 1,0,-1
 600 600 l 1,1,-1
 800 600 l 1,2,-1
 800 800 l 1,3,-1
 600 800 l 1,0,-1
800 600 m 1,0,-1
 800 400 l 1,1,-1
 1000 400 l 1,2,-1
 1000 600 l 1,3,-1
 800 600 l 1,0,-1
1000 400 m 1,0,-1
 1000 200 l 1,1,-1
 1200 200 l 1,2,-1
 1200 400 l 1,3,-1
 1000 400 l 1,0,-1
1200 200 m 1,0,-1
 1200 0 l 1,1,-1
 1400 0 l 1,2,-1
 1400 200 l 1,3,-1
 1200 200 l 1,0,-1
EndSplineSet
EndChar

StartChar: u00b7
Encoding: 183 183 170
Width: 1600
VWidth: 1200
GlyphClass: 2
Flags: W
LayerCount: 2
Fore
SplineSet
0 1000 m 1,0,-1
 0 800 l 1,1,-1
 200 800 l 1,2,-1
 200 1000 l 1,3,-1
 0 1000 l 1,0,-1
0 800 m 1,0,-1
 0 600 l 1,1,-1
 200 600 l 1,2,-1
 200 800 l 1,3,-1
 0 800 l 1,0,-1
0 600 m 1,0,-1
 0 400 l 1,1,-1
 200 400 l 1,2,-1
 200 600 l 1,3,-1
 0 600 l 1,0,-1
0 400 m 1,0,-1
 0 200 l 1,1,-1
 200 200 l 1,2,-1
 200 400 l 1,3,-1
 0 400 l 1,0,-1
0 200 m 1,0,-1
 0 0 l 1,1,-1
 200 0 l 1,2,-1
 200 200 l 1,3,-1
 0 200 l 1,0,-1
400 1000 m 1,0,-1
 400 800 l 1,1,-1
 600 800 l 1,2,-1
 600 1000 l 1,3,-1
 400 1000 l 1,0,-1
400 600 m 1,0,-1
 400 400 l 1,1,-1
 600 400 l 1,2,-1
 600 600 l 1,3,-1
 400 600 l 1,0,-1
400 200 m 1,0,-1
 400 0 l 1,1,-1
 600 0 l 1,2,-1
 600 200 l 1,3,-1
 400 200 l 1,0,-1
600 1000 m 1,0,-1
 600 800 l 1,1,-1
 800 800 l 1,2,-1
 800 1000 l 1,3,-1
 600 1000 l 1,0,-1
600 600 m 1,0,-1
 600 400 l 1,1,-1
 800 400 l 1,2,-1
 800 600 l 1,3,-1
 600 600 l 1,0,-1
600 400 m 1,0,-1
 600 200 l 1,1,-1
 800 200 l 1,2,-1
 800 400 l 1,3,-1
 600 400 l 1,0,-1
600 200 m 1,0,-1
 600 0 l 1,1,-1
 800 0 l 1,2,-1
 800 200 l 1,3,-1
 600 200 l 1,0,-1
800 1000 m 1,0,-1
 800 800 l 1,1,-1
 1000 800 l 1,2,-1
 1000 1000 l 1,3,-1
 800 1000 l 1,0,-1
800 800 m 1,0,-1
 800 600 l 1,1,-1
 1000 600 l 1,2,-1
 1000 800 l 1,3,-1
 800 800 l 1,0,-1
800 600 m 1,0,-1
 800 400 l 1,1,-1
 1000 400 l 1,2,-1
 1000 600 l 1,3,-1
 800 600 l 1,0,-1
800 400 m 1,0,-1
 800 200 l 1,1,-1
 1000 200 l 1,2,-1
 1000 400 l 1,3,-1
 800 400 l 1,0,-1
1000 1000 m 1,0,-1
 1000 800 l 1,1,-1
 1200 800 l 1,2,-1
 1200 1000 l 1,3,-1
 1000 1000 l 1,0,-1
1000 600 m 1,0,-1
 1000 400 l 1,1,-1
 1200 400 l 1,2,-1
 1200 600 l 1,3,-1
 1000 600 l 1,0,-1
1000 200 m 1,0,-1
 1000 0 l 1,1,-1
 1200 0 l 1,2,-1
 1200 200 l 1,3,-1
 1000 200 l 1,0,-1
1200 200 m 1,0,-1
 1200 0 l 1,1,-1
 1400 0 l 1,2,-1
 1400 200 l 1,3,-1
 1200 200 l 1,0,-1
EndSplineSet
EndChar

StartChar: u00b8
Encoding: 184 184 171
Width: 1600
VWidth: 1200
GlyphClass: 2
Flags: W
LayerCount: 2
Fore
SplineSet
200 800 m 1,0,-1
 200 600 l 1,1,-1
 400 600 l 1,2,-1
 400 800 l 1,3,-1
 200 800 l 1,0,-1
200 400 m 1,0,-1
 200 200 l 1,1,-1
 400 200 l 1,2,-1
 400 400 l 1,3,-1
 200 400 l 1,0,-1
400 1000 m 1,0,-1
 400 800 l 1,1,-1
 600 800 l 1,2,-1
 600 1000 l 1,3,-1
 400 1000 l 1,0,-1
400 800 m 1,0,-1
 400 600 l 1,1,-1
 600 600 l 1,2,-1
 600 800 l 1,3,-1
 400 800 l 1,0,-1
400 400 m 1,0,-1
 400 200 l 1,1,-1
 600 200 l 1,2,-1
 600 400 l 1,3,-1
 400 400 l 1,0,-1
400 200 m 1,0,-1
 400 0 l 1,1,-1
 600 0 l 1,2,-1
 600 200 l 1,3,-1
 400 200 l 1,0,-1
600 1000 m 1,0,-1
 600 800 l 1,1,-1
 800 800 l 1,2,-1
 800 1000 l 1,3,-1
 600 1000 l 1,0,-1
600 800 m 1,0,-1
 600 600 l 1,1,-1
 800 600 l 1,2,-1
 800 800 l 1,3,-1
 600 800 l 1,0,-1
600 600 m 1,0,-1
 600 400 l 1,1,-1
 800 400 l 1,2,-1
 800 600 l 1,3,-1
 600 600 l 1,0,-1
600 400 m 1,0,-1
 600 200 l 1,1,-1
 800 200 l 1,2,-1
 800 400 l 1,3,-1
 600 400 l 1,0,-1
600 200 m 1,0,-1
 600 0 l 1,1,-1
 800 0 l 1,2,-1
 800 200 l 1,3,-1
 600 200 l 1,0,-1
800 1000 m 1,0,-1
 800 800 l 1,1,-1
 1000 800 l 1,2,-1
 1000 1000 l 1,3,-1
 800 1000 l 1,0,-1
800 800 m 1,0,-1
 800 600 l 1,1,-1
 1000 600 l 1,2,-1
 1000 800 l 1,3,-1
 800 800 l 1,0,-1
800 400 m 1,0,-1
 800 200 l 1,1,-1
 1000 200 l 1,2,-1
 1000 400 l 1,3,-1
 800 400 l 1,0,-1
1000 800 m 1,0,-1
 1000 600 l 1,1,-1
 1200 600 l 1,2,-1
 1200 800 l 1,3,-1
 1000 800 l 1,0,-1
1000 200 m 1,0,-1
 1000 0 l 1,1,-1
 1200 0 l 1,2,-1
 1200 200 l 1,3,-1
 1000 200 l 1,0,-1
EndSplineSet
EndChar

StartChar: u00b9
Encoding: 185 185 172
Width: 1600
VWidth: 1200
GlyphClass: 2
Flags: W
LayerCount: 2
Fore
SplineSet
200 1000 m 1,0,-1
 200 800 l 1,1,-1
 400 800 l 1,2,-1
 400 1000 l 1,3,-1
 200 1000 l 1,0,-1
200 600 m 1,0,-1
 200 400 l 1,1,-1
 400 400 l 1,2,-1
 400 600 l 1,3,-1
 200 600 l 1,0,-1
200 400 m 1,0,-1
 200 200 l 1,1,-1
 400 200 l 1,2,-1
 400 400 l 1,3,-1
 200 400 l 1,0,-1
400 1000 m 1,0,-1
 400 800 l 1,1,-1
 600 800 l 1,2,-1
 600 1000 l 1,3,-1
 400 1000 l 1,0,-1
400 800 m 1,0,-1
 400 600 l 1,1,-1
 600 600 l 1,2,-1
 600 800 l 1,3,-1
 400 800 l 1,0,-1
400 600 m 1,0,-1
 400 400 l 1,1,-1
 600 400 l 1,2,-1
 600 600 l 1,3,-1
 400 600 l 1,0,-1
400 400 m 1,0,-1
 400 200 l 1,1,-1
 600 200 l 1,2,-1
 600 400 l 1,3,-1
 400 400 l 1,0,-1
600 600 m 1,0,-1
 600 400 l 1,1,-1
 800 400 l 1,2,-1
 800 600 l 1,3,-1
 600 600 l 1,0,-1
800 600 m 1,0,-1
 800 400 l 1,1,-1
 1000 400 l 1,2,-1
 1000 600 l 1,3,-1
 800 600 l 1,0,-1
800 200 m 1,0,-1
 800 0 l 1,1,-1
 1000 0 l 1,2,-1
 1000 200 l 1,3,-1
 800 200 l 1,0,-1
1000 800 m 1,0,-1
 1000 600 l 1,1,-1
 1200 600 l 1,2,-1
 1200 800 l 1,3,-1
 1000 800 l 1,0,-1
1000 600 m 1,0,-1
 1000 400 l 1,1,-1
 1200 400 l 1,2,-1
 1200 600 l 1,3,-1
 1000 600 l 1,0,-1
1000 400 m 1,0,-1
 1000 200 l 1,1,-1
 1200 200 l 1,2,-1
 1200 400 l 1,3,-1
 1000 400 l 1,0,-1
1200 600 m 1,0,-1
 1200 400 l 1,1,-1
 1400 400 l 1,2,-1
 1400 600 l 1,3,-1
 1200 600 l 1,0,-1
EndSplineSet
EndChar

StartChar: u00ba
Encoding: 186 186 173
Width: 1600
VWidth: 1200
GlyphClass: 2
Flags: W
LayerCount: 2
Fore
SplineSet
200 800 m 1,0,-1
 200 600 l 1,1,-1
 400 600 l 1,2,-1
 400 800 l 1,3,-1
 200 800 l 1,0,-1
200 400 m 1,0,-1
 200 200 l 1,1,-1
 400 200 l 1,2,-1
 400 400 l 1,3,-1
 200 400 l 1,0,-1
400 1000 m 1,0,-1
 400 800 l 1,1,-1
 600 800 l 1,2,-1
 600 1000 l 1,3,-1
 400 1000 l 1,0,-1
400 800 m 1,0,-1
 400 600 l 1,1,-1
 600 600 l 1,2,-1
 600 800 l 1,3,-1
 400 800 l 1,0,-1
400 600 m 1,0,-1
 400 400 l 1,1,-1
 600 400 l 1,2,-1
 600 600 l 1,3,-1
 400 600 l 1,0,-1
400 400 m 1,0,-1
 400 200 l 1,1,-1
 600 200 l 1,2,-1
 600 400 l 1,3,-1
 400 400 l 1,0,-1
400 200 m 1,0,-1
 400 0 l 1,1,-1
 600 0 l 1,2,-1
 600 200 l 1,3,-1
 400 200 l 1,0,-1
600 800 m 1,0,-1
 600 600 l 1,1,-1
 800 600 l 1,2,-1
 800 800 l 1,3,-1
 600 800 l 1,0,-1
600 200 m 1,0,-1
 600 0 l 1,1,-1
 800 0 l 1,2,-1
 800 200 l 1,3,-1
 600 200 l 1,0,-1
800 200 m 1,0,-1
 800 0 l 1,1,-1
 1000 0 l 1,2,-1
 1000 200 l 1,3,-1
 800 200 l 1,0,-1
1000 1000 m 1,0,-1
 1000 800 l 1,1,-1
 1200 800 l 1,2,-1
 1200 1000 l 1,3,-1
 1000 1000 l 1,0,-1
1000 200 m 1,0,-1
 1000 0 l 1,1,-1
 1200 0 l 1,2,-1
 1200 200 l 1,3,-1
 1000 200 l 1,0,-1
1200 800 m 1,0,-1
 1200 600 l 1,1,-1
 1400 600 l 1,2,-1
 1400 800 l 1,3,-1
 1200 800 l 1,0,-1
1200 400 m 1,0,-1
 1200 200 l 1,1,-1
 1400 200 l 1,2,-1
 1400 400 l 1,3,-1
 1200 400 l 1,0,-1
EndSplineSet
EndChar

StartChar: u00bb
Encoding: 187 187 174
Width: 1600
VWidth: 1200
GlyphClass: 2
Flags: W
LayerCount: 2
Fore
SplineSet
200 1000 m 1,0,-1
 200 800 l 1,1,-1
 400 800 l 1,2,-1
 400 1000 l 1,3,-1
 200 1000 l 1,0,-1
200 600 m 1,0,-1
 200 400 l 1,1,-1
 400 400 l 1,2,-1
 400 600 l 1,3,-1
 200 600 l 1,0,-1
200 400 m 1,0,-1
 200 200 l 1,1,-1
 400 200 l 1,2,-1
 400 400 l 1,3,-1
 200 400 l 1,0,-1
400 800 m 1,0,-1
 400 600 l 1,1,-1
 600 600 l 1,2,-1
 600 800 l 1,3,-1
 400 800 l 1,0,-1
400 400 m 1,0,-1
 400 200 l 1,1,-1
 600 200 l 1,2,-1
 600 400 l 1,3,-1
 400 400 l 1,0,-1
600 1000 m 1,0,-1
 600 800 l 1,1,-1
 800 800 l 1,2,-1
 800 1000 l 1,3,-1
 600 1000 l 1,0,-1
600 800 m 1,0,-1
 600 600 l 1,1,-1
 800 600 l 1,2,-1
 800 800 l 1,3,-1
 600 800 l 1,0,-1
600 600 m 1,0,-1
 600 400 l 1,1,-1
 800 400 l 1,2,-1
 800 600 l 1,3,-1
 600 600 l 1,0,-1
800 800 m 1,0,-1
 800 600 l 1,1,-1
 1000 600 l 1,2,-1
 1000 800 l 1,3,-1
 800 800 l 1,0,-1
800 600 m 1,0,-1
 800 400 l 1,1,-1
 1000 400 l 1,2,-1
 1000 600 l 1,3,-1
 800 600 l 1,0,-1
800 200 m 1,0,-1
 800 0 l 1,1,-1
 1000 0 l 1,2,-1
 1000 200 l 1,3,-1
 800 200 l 1,0,-1
1000 800 m 1,0,-1
 1000 600 l 1,1,-1
 1200 600 l 1,2,-1
 1200 800 l 1,3,-1
 1000 800 l 1,0,-1
1000 200 m 1,0,-1
 1000 0 l 1,1,-1
 1200 0 l 1,2,-1
 1200 200 l 1,3,-1
 1000 200 l 1,0,-1
1200 600 m 1,0,-1
 1200 400 l 1,1,-1
 1400 400 l 1,2,-1
 1400 600 l 1,3,-1
 1200 600 l 1,0,-1
1200 400 m 1,0,-1
 1200 200 l 1,1,-1
 1400 200 l 1,2,-1
 1400 400 l 1,3,-1
 1200 400 l 1,0,-1
EndSplineSet
EndChar

StartChar: u00bc
Encoding: 188 188 175
Width: 1600
VWidth: 1200
GlyphClass: 2
Flags: W
LayerCount: 2
Fore
SplineSet
200 1000 m 1,0,-1
 200 800 l 1,1,-1
 400 800 l 1,2,-1
 400 1000 l 1,3,-1
 200 1000 l 1,0,-1
200 600 m 1,0,-1
 200 400 l 1,1,-1
 400 400 l 1,2,-1
 400 600 l 1,3,-1
 200 600 l 1,0,-1
400 1000 m 1,0,-1
 400 800 l 1,1,-1
 600 800 l 1,2,-1
 600 1000 l 1,3,-1
 400 1000 l 1,0,-1
400 800 m 1,0,-1
 400 600 l 1,1,-1
 600 600 l 1,2,-1
 600 800 l 1,3,-1
 400 800 l 1,0,-1
400 600 m 1,0,-1
 400 400 l 1,1,-1
 600 400 l 1,2,-1
 600 600 l 1,3,-1
 400 600 l 1,0,-1
400 400 m 1,0,-1
 400 200 l 1,1,-1
 600 200 l 1,2,-1
 600 400 l 1,3,-1
 400 400 l 1,0,-1
600 1000 m 1,0,-1
 600 800 l 1,1,-1
 800 800 l 1,2,-1
 800 1000 l 1,3,-1
 600 1000 l 1,0,-1
600 600 m 1,0,-1
 600 400 l 1,1,-1
 800 400 l 1,2,-1
 800 600 l 1,3,-1
 600 600 l 1,0,-1
600 200 m 1,0,-1
 600 0 l 1,1,-1
 800 0 l 1,2,-1
 800 200 l 1,3,-1
 600 200 l 1,0,-1
800 1000 m 1,0,-1
 800 800 l 1,1,-1
 1000 800 l 1,2,-1
 1000 1000 l 1,3,-1
 800 1000 l 1,0,-1
800 600 m 1,0,-1
 800 400 l 1,1,-1
 1000 400 l 1,2,-1
 1000 600 l 1,3,-1
 800 600 l 1,0,-1
800 200 m 1,0,-1
 800 0 l 1,1,-1
 1000 0 l 1,2,-1
 1000 200 l 1,3,-1
 800 200 l 1,0,-1
1000 200 m 1,0,-1
 1000 0 l 1,1,-1
 1200 0 l 1,2,-1
 1200 200 l 1,3,-1
 1000 200 l 1,0,-1
1200 400 m 1,0,-1
 1200 200 l 1,1,-1
 1400 200 l 1,2,-1
 1400 400 l 1,3,-1
 1200 400 l 1,0,-1
EndSplineSet
EndChar

StartChar: u00bd
Encoding: 189 189 176
Width: 1600
VWidth: 1200
GlyphClass: 2
Flags: W
LayerCount: 2
Fore
SplineSet
200 800 m 1,0,-1
 200 600 l 1,1,-1
 400 600 l 1,2,-1
 400 800 l 1,3,-1
 200 800 l 1,0,-1
400 1000 m 1,0,-1
 400 800 l 1,1,-1
 600 800 l 1,2,-1
 600 1000 l 1,3,-1
 400 1000 l 1,0,-1
400 800 m 1,0,-1
 400 600 l 1,1,-1
 600 600 l 1,2,-1
 600 800 l 1,3,-1
 400 800 l 1,0,-1
400 600 m 1,0,-1
 400 400 l 1,1,-1
 600 400 l 1,2,-1
 600 600 l 1,3,-1
 400 600 l 1,0,-1
600 800 m 1,0,-1
 600 600 l 1,1,-1
 800 600 l 1,2,-1
 800 800 l 1,3,-1
 600 800 l 1,0,-1
600 400 m 1,0,-1
 600 200 l 1,1,-1
 800 200 l 1,2,-1
 800 400 l 1,3,-1
 600 400 l 1,0,-1
600 200 m 1,0,-1
 600 0 l 1,1,-1
 800 0 l 1,2,-1
 800 200 l 1,3,-1
 600 200 l 1,0,-1
800 800 m 1,0,-1
 800 600 l 1,1,-1
 1000 600 l 1,2,-1
 1000 800 l 1,3,-1
 800 800 l 1,0,-1
1000 1000 m 1,0,-1
 1000 800 l 1,1,-1
 1200 800 l 1,2,-1
 1200 1000 l 1,3,-1
 1000 1000 l 1,0,-1
1000 800 m 1,0,-1
 1000 600 l 1,1,-1
 1200 600 l 1,2,-1
 1200 800 l 1,3,-1
 1000 800 l 1,0,-1
1000 600 m 1,0,-1
 1000 400 l 1,1,-1
 1200 400 l 1,2,-1
 1200 600 l 1,3,-1
 1000 600 l 1,0,-1
1200 800 m 1,0,-1
 1200 600 l 1,1,-1
 1400 600 l 1,2,-1
 1400 800 l 1,3,-1
 1200 800 l 1,0,-1
1200 600 m 1,0,-1
 1200 400 l 1,1,-1
 1400 400 l 1,2,-1
 1400 600 l 1,3,-1
 1200 600 l 1,0,-1
EndSplineSet
EndChar

StartChar: u00be
Encoding: 190 190 177
Width: 1600
VWidth: 1200
GlyphClass: 2
Flags: W
LayerCount: 2
Fore
SplineSet
200 1000 m 1,0,-1
 200 800 l 1,1,-1
 400 800 l 1,2,-1
 400 1000 l 1,3,-1
 200 1000 l 1,0,-1
200 800 m 1,0,-1
 200 600 l 1,1,-1
 400 600 l 1,2,-1
 400 800 l 1,3,-1
 200 800 l 1,0,-1
200 600 m 1,0,-1
 200 400 l 1,1,-1
 400 400 l 1,2,-1
 400 600 l 1,3,-1
 200 600 l 1,0,-1
400 800 m 1,0,-1
 400 600 l 1,1,-1
 600 600 l 1,2,-1
 600 800 l 1,3,-1
 400 800 l 1,0,-1
600 1000 m 1,0,-1
 600 800 l 1,1,-1
 800 800 l 1,2,-1
 800 1000 l 1,3,-1
 600 1000 l 1,0,-1
600 200 m 1,0,-1
 600 0 l 1,1,-1
 800 0 l 1,2,-1
 800 200 l 1,3,-1
 600 200 l 1,0,-1
800 1000 m 1,0,-1
 800 800 l 1,1,-1
 1000 800 l 1,2,-1
 1000 1000 l 1,3,-1
 800 1000 l 1,0,-1
800 800 m 1,0,-1
 800 600 l 1,1,-1
 1000 600 l 1,2,-1
 1000 800 l 1,3,-1
 800 800 l 1,0,-1
800 600 m 1,0,-1
 800 400 l 1,1,-1
 1000 400 l 1,2,-1
 1000 600 l 1,3,-1
 800 600 l 1,0,-1
800 400 m 1,0,-1
 800 200 l 1,1,-1
 1000 200 l 1,2,-1
 1000 400 l 1,3,-1
 800 400 l 1,0,-1
1000 1000 m 1,0,-1
 1000 800 l 1,1,-1
 1200 800 l 1,2,-1
 1200 1000 l 1,3,-1
 1000 1000 l 1,0,-1
1000 400 m 1,0,-1
 1000 200 l 1,1,-1
 1200 200 l 1,2,-1
 1200 400 l 1,3,-1
 1000 400 l 1,0,-1
1200 800 m 1,0,-1
 1200 600 l 1,1,-1
 1400 600 l 1,2,-1
 1400 800 l 1,3,-1
 1200 800 l 1,0,-1
1200 600 m 1,0,-1
 1200 400 l 1,1,-1
 1400 400 l 1,2,-1
 1400 600 l 1,3,-1
 1200 600 l 1,0,-1
EndSplineSet
EndChar

StartChar: u00bf
Encoding: 191 191 178
Width: 1600
VWidth: 1200
GlyphClass: 2
Flags: W
LayerCount: 2
Fore
SplineSet
200 400 m 1,0,-1
 200 200 l 1,1,-1
 400 200 l 1,2,-1
 400 400 l 1,3,-1
 200 400 l 1,0,-1
200 200 m 1,0,-1
 200 0 l 1,1,-1
 400 0 l 1,2,-1
 400 200 l 1,3,-1
 200 200 l 1,0,-1
400 400 m 1,0,-1
 400 200 l 1,1,-1
 600 200 l 1,2,-1
 600 400 l 1,3,-1
 400 400 l 1,0,-1
400 200 m 1,0,-1
 400 0 l 1,1,-1
 600 0 l 1,2,-1
 600 200 l 1,3,-1
 400 200 l 1,0,-1
600 1000 m 1,0,-1
 600 800 l 1,1,-1
 800 800 l 1,2,-1
 800 1000 l 1,3,-1
 600 1000 l 1,0,-1
600 800 m 1,0,-1
 600 600 l 1,1,-1
 800 600 l 1,2,-1
 800 800 l 1,3,-1
 600 800 l 1,0,-1
600 600 m 1,0,-1
 600 400 l 1,1,-1
 800 400 l 1,2,-1
 800 600 l 1,3,-1
 600 600 l 1,0,-1
600 400 m 1,0,-1
 600 200 l 1,1,-1
 800 200 l 1,2,-1
 800 400 l 1,3,-1
 600 400 l 1,0,-1
800 800 m 1,0,-1
 800 600 l 1,1,-1
 1000 600 l 1,2,-1
 1000 800 l 1,3,-1
 800 800 l 1,0,-1
800 400 m 1,0,-1
 800 200 l 1,1,-1
 1000 200 l 1,2,-1
 1000 400 l 1,3,-1
 800 400 l 1,0,-1
1000 800 m 1,0,-1
 1000 600 l 1,1,-1
 1200 600 l 1,2,-1
 1200 800 l 1,3,-1
 1000 800 l 1,0,-1
1000 200 m 1,0,-1
 1000 0 l 1,1,-1
 1200 0 l 1,2,-1
 1200 200 l 1,3,-1
 1000 200 l 1,0,-1
EndSplineSet
EndChar

StartChar: u00c0
Encoding: 192 192 179
Width: 1600
VWidth: 1200
GlyphClass: 2
Flags: W
LayerCount: 2
Fore
SplineSet
200 800 m 1,0,-1
 200 600 l 1,1,-1
 400 600 l 1,2,-1
 400 800 l 1,3,-1
 200 800 l 1,0,-1
200 600 m 1,0,-1
 200 400 l 1,1,-1
 400 400 l 1,2,-1
 400 600 l 1,3,-1
 200 600 l 1,0,-1
400 600 m 1,0,-1
 400 400 l 1,1,-1
 600 400 l 1,2,-1
 600 600 l 1,3,-1
 400 600 l 1,0,-1
400 200 m 1,0,-1
 400 0 l 1,1,-1
 600 0 l 1,2,-1
 600 200 l 1,3,-1
 400 200 l 1,0,-1
600 1000 m 1,0,-1
 600 800 l 1,1,-1
 800 800 l 1,2,-1
 800 1000 l 1,3,-1
 600 1000 l 1,0,-1
600 600 m 1,0,-1
 600 400 l 1,1,-1
 800 400 l 1,2,-1
 800 600 l 1,3,-1
 600 600 l 1,0,-1
600 200 m 1,0,-1
 600 0 l 1,1,-1
 800 0 l 1,2,-1
 800 200 l 1,3,-1
 600 200 l 1,0,-1
800 600 m 1,0,-1
 800 400 l 1,1,-1
 1000 400 l 1,2,-1
 1000 600 l 1,3,-1
 800 600 l 1,0,-1
800 200 m 1,0,-1
 800 0 l 1,1,-1
 1000 0 l 1,2,-1
 1000 200 l 1,3,-1
 800 200 l 1,0,-1
1000 600 m 1,0,-1
 1000 400 l 1,1,-1
 1200 400 l 1,2,-1
 1200 600 l 1,3,-1
 1000 600 l 1,0,-1
1000 400 m 1,0,-1
 1000 200 l 1,1,-1
 1200 200 l 1,2,-1
 1200 400 l 1,3,-1
 1000 400 l 1,0,-1
EndSplineSet
EndChar

StartChar: u00c1
Encoding: 193 193 180
Width: 1600
VWidth: 1200
GlyphClass: 2
Flags: W
LayerCount: 2
Fore
SplineSet
200 1000 m 1,0,-1
 200 800 l 1,1,-1
 400 800 l 1,2,-1
 400 1000 l 1,3,-1
 200 1000 l 1,0,-1
200 800 m 1,0,-1
 200 600 l 1,1,-1
 400 600 l 1,2,-1
 400 800 l 1,3,-1
 200 800 l 1,0,-1
200 600 m 1,0,-1
 200 400 l 1,1,-1
 400 400 l 1,2,-1
 400 600 l 1,3,-1
 200 600 l 1,0,-1
400 400 m 1,0,-1
 400 200 l 1,1,-1
 600 200 l 1,2,-1
 600 400 l 1,3,-1
 400 400 l 1,0,-1
800 200 m 1,0,-1
 800 0 l 1,1,-1
 1000 0 l 1,2,-1
 1000 200 l 1,3,-1
 800 200 l 1,0,-1
1000 800 m 1,0,-1
 1000 600 l 1,1,-1
 1200 600 l 1,2,-1
 1200 800 l 1,3,-1
 1000 800 l 1,0,-1
1000 600 m 1,0,-1
 1000 400 l 1,1,-1
 1200 400 l 1,2,-1
 1200 600 l 1,3,-1
 1000 600 l 1,0,-1
1000 400 m 1,0,-1
 1000 200 l 1,1,-1
 1200 200 l 1,2,-1
 1200 400 l 1,3,-1
 1000 400 l 1,0,-1
EndSplineSet
EndChar

StartChar: u00c2
Encoding: 194 194 181
Width: 1600
VWidth: 1200
GlyphClass: 2
Flags: W
LayerCount: 2
Fore
SplineSet
200 400 m 1,0,-1
 200 200 l 1,1,-1
 400 200 l 1,2,-1
 400 400 l 1,3,-1
 200 400 l 1,0,-1
400 1000 m 1,0,-1
 400 800 l 1,1,-1
 600 800 l 1,2,-1
 600 1000 l 1,3,-1
 400 1000 l 1,0,-1
400 600 m 1,0,-1
 400 400 l 1,1,-1
 600 400 l 1,2,-1
 600 600 l 1,3,-1
 400 600 l 1,0,-1
600 1000 m 1,0,-1
 600 800 l 1,1,-1
 800 800 l 1,2,-1
 800 1000 l 1,3,-1
 600 1000 l 1,0,-1
600 600 m 1,0,-1
 600 400 l 1,1,-1
 800 400 l 1,2,-1
 800 600 l 1,3,-1
 600 600 l 1,0,-1
800 1000 m 1,0,-1
 800 800 l 1,1,-1
 1000 800 l 1,2,-1
 1000 1000 l 1,3,-1
 800 1000 l 1,0,-1
800 800 m 1,0,-1
 800 600 l 1,1,-1
 1000 600 l 1,2,-1
 1000 800 l 1,3,-1
 800 800 l 1,0,-1
800 600 m 1,0,-1
 800 400 l 1,1,-1
 1000 400 l 1,2,-1
 1000 600 l 1,3,-1
 800 600 l 1,0,-1
800 400 m 1,0,-1
 800 200 l 1,1,-1
 1000 200 l 1,2,-1
 1000 400 l 1,3,-1
 800 400 l 1,0,-1
800 200 m 1,0,-1
 800 0 l 1,1,-1
 1000 0 l 1,2,-1
 1000 200 l 1,3,-1
 800 200 l 1,0,-1
1000 1000 m 1,0,-1
 1000 800 l 1,1,-1
 1200 800 l 1,2,-1
 1200 1000 l 1,3,-1
 1000 1000 l 1,0,-1
1000 600 m 1,0,-1
 1000 400 l 1,1,-1
 1200 400 l 1,2,-1
 1200 600 l 1,3,-1
 1000 600 l 1,0,-1
1000 400 m 1,0,-1
 1000 200 l 1,1,-1
 1200 200 l 1,2,-1
 1200 400 l 1,3,-1
 1000 400 l 1,0,-1
1000 200 m 1,0,-1
 1000 0 l 1,1,-1
 1200 0 l 1,2,-1
 1200 200 l 1,3,-1
 1000 200 l 1,0,-1
1200 600 m 1,0,-1
 1200 400 l 1,1,-1
 1400 400 l 1,2,-1
 1400 600 l 1,3,-1
 1200 600 l 1,0,-1
1200 400 m 1,0,-1
 1200 200 l 1,1,-1
 1400 200 l 1,2,-1
 1400 400 l 1,3,-1
 1200 400 l 1,0,-1
EndSplineSet
EndChar

StartChar: u00c3
Encoding: 195 195 182
Width: 1600
VWidth: 1200
GlyphClass: 2
Flags: W
LayerCount: 2
Fore
SplineSet
200 800 m 1,0,-1
 200 600 l 1,1,-1
 400 600 l 1,2,-1
 400 800 l 1,3,-1
 200 800 l 1,0,-1
200 400 m 1,0,-1
 200 200 l 1,1,-1
 400 200 l 1,2,-1
 400 400 l 1,3,-1
 200 400 l 1,0,-1
400 1000 m 1,0,-1
 400 800 l 1,1,-1
 600 800 l 1,2,-1
 600 1000 l 1,3,-1
 400 1000 l 1,0,-1
400 800 m 1,0,-1
 400 600 l 1,1,-1
 600 600 l 1,2,-1
 600 800 l 1,3,-1
 400 800 l 1,0,-1
400 600 m 1,0,-1
 400 400 l 1,1,-1
 600 400 l 1,2,-1
 600 600 l 1,3,-1
 400 600 l 1,0,-1
400 400 m 1,0,-1
 400 200 l 1,1,-1
 600 200 l 1,2,-1
 600 400 l 1,3,-1
 400 400 l 1,0,-1
400 200 m 1,0,-1
 400 0 l 1,1,-1
 600 0 l 1,2,-1
 600 200 l 1,3,-1
 400 200 l 1,0,-1
600 600 m 1,0,-1
 600 400 l 1,1,-1
 800 400 l 1,2,-1
 800 600 l 1,3,-1
 600 600 l 1,0,-1
800 800 m 1,0,-1
 800 600 l 1,1,-1
 1000 600 l 1,2,-1
 1000 800 l 1,3,-1
 800 800 l 1,0,-1
1000 800 m 1,0,-1
 1000 600 l 1,1,-1
 1200 600 l 1,2,-1
 1200 800 l 1,3,-1
 1000 800 l 1,0,-1
1000 600 m 1,0,-1
 1000 400 l 1,1,-1
 1200 400 l 1,2,-1
 1200 600 l 1,3,-1
 1000 600 l 1,0,-1
1000 400 m 1,0,-1
 1000 200 l 1,1,-1
 1200 200 l 1,2,-1
 1200 400 l 1,3,-1
 1000 400 l 1,0,-1
1000 200 m 1,0,-1
 1000 0 l 1,1,-1
 1200 0 l 1,2,-1
 1200 200 l 1,3,-1
 1000 200 l 1,0,-1
1200 200 m 1,0,-1
 1200 0 l 1,1,-1
 1400 0 l 1,2,-1
 1400 200 l 1,3,-1
 1200 200 l 1,0,-1
EndSplineSet
EndChar

StartChar: u00c4
Encoding: 196 196 183
Width: 1600
VWidth: 1200
GlyphClass: 2
Flags: W
LayerCount: 2
Fore
SplineSet
200 400 m 1,0,-1
 200 200 l 1,1,-1
 400 200 l 1,2,-1
 400 400 l 1,3,-1
 200 400 l 1,0,-1
400 1000 m 1,0,-1
 400 800 l 1,1,-1
 600 800 l 1,2,-1
 600 1000 l 1,3,-1
 400 1000 l 1,0,-1
400 600 m 1,0,-1
 400 400 l 1,1,-1
 600 400 l 1,2,-1
 600 600 l 1,3,-1
 400 600 l 1,0,-1
600 1000 m 1,0,-1
 600 800 l 1,1,-1
 800 800 l 1,2,-1
 800 1000 l 1,3,-1
 600 1000 l 1,0,-1
600 600 m 1,0,-1
 600 400 l 1,1,-1
 800 400 l 1,2,-1
 800 600 l 1,3,-1
 600 600 l 1,0,-1
800 1000 m 1,0,-1
 800 800 l 1,1,-1
 1000 800 l 1,2,-1
 1000 1000 l 1,3,-1
 800 1000 l 1,0,-1
800 800 m 1,0,-1
 800 600 l 1,1,-1
 1000 600 l 1,2,-1
 1000 800 l 1,3,-1
 800 800 l 1,0,-1
800 600 m 1,0,-1
 800 400 l 1,1,-1
 1000 400 l 1,2,-1
 1000 600 l 1,3,-1
 800 600 l 1,0,-1
800 200 m 1,0,-1
 800 0 l 1,1,-1
 1000 0 l 1,2,-1
 1000 200 l 1,3,-1
 800 200 l 1,0,-1
1000 1000 m 1,0,-1
 1000 800 l 1,1,-1
 1200 800 l 1,2,-1
 1200 1000 l 1,3,-1
 1000 1000 l 1,0,-1
1000 600 m 1,0,-1
 1000 400 l 1,1,-1
 1200 400 l 1,2,-1
 1200 600 l 1,3,-1
 1000 600 l 1,0,-1
1000 200 m 1,0,-1
 1000 0 l 1,1,-1
 1200 0 l 1,2,-1
 1200 200 l 1,3,-1
 1000 200 l 1,0,-1
1200 600 m 1,0,-1
 1200 400 l 1,1,-1
 1400 400 l 1,2,-1
 1400 600 l 1,3,-1
 1200 600 l 1,0,-1
1200 400 m 1,0,-1
 1200 200 l 1,1,-1
 1400 200 l 1,2,-1
 1400 400 l 1,3,-1
 1200 400 l 1,0,-1
EndSplineSet
EndChar

StartChar: u00c5
Encoding: 197 197 184
Width: 1600
VWidth: 1200
GlyphClass: 2
Flags: W
LayerCount: 2
Fore
SplineSet
0 800 m 1,0,-1
 0 600 l 1,1,-1
 200 600 l 1,2,-1
 200 800 l 1,3,-1
 0 800 l 1,0,-1
0 400 m 1,0,-1
 0 200 l 1,1,-1
 200 200 l 1,2,-1
 200 400 l 1,3,-1
 0 400 l 1,0,-1
200 1000 m 1,0,-1
 200 800 l 1,1,-1
 400 800 l 1,2,-1
 400 1000 l 1,3,-1
 200 1000 l 1,0,-1
200 800 m 1,0,-1
 200 600 l 1,1,-1
 400 600 l 1,2,-1
 400 800 l 1,3,-1
 200 800 l 1,0,-1
200 600 m 1,0,-1
 200 400 l 1,1,-1
 400 400 l 1,2,-1
 400 600 l 1,3,-1
 200 600 l 1,0,-1
200 400 m 1,0,-1
 200 200 l 1,1,-1
 400 200 l 1,2,-1
 400 400 l 1,3,-1
 200 400 l 1,0,-1
200 200 m 1,0,-1
 200 0 l 1,1,-1
 400 0 l 1,2,-1
 400 200 l 1,3,-1
 200 200 l 1,0,-1
400 600 m 1,0,-1
 400 400 l 1,1,-1
 600 400 l 1,2,-1
 600 600 l 1,3,-1
 400 600 l 1,0,-1
600 800 m 1,0,-1
 600 600 l 1,1,-1
 800 600 l 1,2,-1
 800 800 l 1,3,-1
 600 800 l 1,0,-1
800 1000 m 1,0,-1
 800 800 l 1,1,-1
 1000 800 l 1,2,-1
 1000 1000 l 1,3,-1
 800 1000 l 1,0,-1
800 200 m 1,0,-1
 800 0 l 1,1,-1
 1000 0 l 1,2,-1
 1000 200 l 1,3,-1
 800 200 l 1,0,-1
1000 1000 m 1,0,-1
 1000 800 l 1,1,-1
 1200 800 l 1,2,-1
 1200 1000 l 1,3,-1
 1000 1000 l 1,0,-1
1000 400 m 1,0,-1
 1000 200 l 1,1,-1
 1200 200 l 1,2,-1
 1200 400 l 1,3,-1
 1000 400 l 1,0,-1
1200 800 m 1,0,-1
 1200 600 l 1,1,-1
 1400 600 l 1,2,-1
 1400 800 l 1,3,-1
 1200 800 l 1,0,-1
1200 600 m 1,0,-1
 1200 400 l 1,1,-1
 1400 400 l 1,2,-1
 1400 600 l 1,3,-1
 1200 600 l 1,0,-1
EndSplineSet
EndChar

StartChar: u00c6
Encoding: 198 198 185
Width: 1600
VWidth: 1200
GlyphClass: 2
Flags: W
LayerCount: 2
Fore
SplineSet
200 1000 m 1,0,-1
 200 800 l 1,1,-1
 400 800 l 1,2,-1
 400 1000 l 1,3,-1
 200 1000 l 1,0,-1
400 1000 m 1,0,-1
 400 800 l 1,1,-1
 600 800 l 1,2,-1
 600 1000 l 1,3,-1
 400 1000 l 1,0,-1
400 800 m 1,0,-1
 400 600 l 1,1,-1
 600 600 l 1,2,-1
 600 800 l 1,3,-1
 400 800 l 1,0,-1
400 600 m 1,0,-1
 400 400 l 1,1,-1
 600 400 l 1,2,-1
 600 600 l 1,3,-1
 400 600 l 1,0,-1
600 1000 m 1,0,-1
 600 800 l 1,1,-1
 800 800 l 1,2,-1
 800 1000 l 1,3,-1
 600 1000 l 1,0,-1
600 600 m 1,0,-1
 600 400 l 1,1,-1
 800 400 l 1,2,-1
 800 600 l 1,3,-1
 600 600 l 1,0,-1
600 400 m 1,0,-1
 600 200 l 1,1,-1
 800 200 l 1,2,-1
 800 400 l 1,3,-1
 600 400 l 1,0,-1
600 200 m 1,0,-1
 600 0 l 1,1,-1
 800 0 l 1,2,-1
 800 200 l 1,3,-1
 600 200 l 1,0,-1
800 600 m 1,0,-1
 800 400 l 1,1,-1
 1000 400 l 1,2,-1
 1000 600 l 1,3,-1
 800 600 l 1,0,-1
800 200 m 1,0,-1
 800 0 l 1,1,-1
 1000 0 l 1,2,-1
 1000 200 l 1,3,-1
 800 200 l 1,0,-1
1000 800 m 1,0,-1
 1000 600 l 1,1,-1
 1200 600 l 1,2,-1
 1200 800 l 1,3,-1
 1000 800 l 1,0,-1
1000 400 m 1,0,-1
 1000 200 l 1,1,-1
 1200 200 l 1,2,-1
 1200 400 l 1,3,-1
 1000 400 l 1,0,-1
1000 200 m 1,0,-1
 1000 0 l 1,1,-1
 1200 0 l 1,2,-1
 1200 200 l 1,3,-1
 1000 200 l 1,0,-1
1200 800 m 1,0,-1
 1200 600 l 1,1,-1
 1400 600 l 1,2,-1
 1400 800 l 1,3,-1
 1200 800 l 1,0,-1
1200 200 m 1,0,-1
 1200 0 l 1,1,-1
 1400 0 l 1,2,-1
 1400 200 l 1,3,-1
 1200 200 l 1,0,-1
EndSplineSet
EndChar

StartChar: u00c7
Encoding: 199 199 186
Width: 1600
VWidth: 1200
GlyphClass: 2
Flags: W
LayerCount: 2
Fore
SplineSet
0 400 m 1,0,-1
 0 200 l 1,1,-1
 200 200 l 1,2,-1
 200 400 l 1,3,-1
 0 400 l 1,0,-1
0 200 m 1,0,-1
 0 0 l 1,1,-1
 200 0 l 1,2,-1
 200 200 l 1,3,-1
 0 200 l 1,0,-1
200 1000 m 1,0,-1
 200 800 l 1,1,-1
 400 800 l 1,2,-1
 400 1000 l 1,3,-1
 200 1000 l 1,0,-1
200 800 m 1,0,-1
 200 600 l 1,1,-1
 400 600 l 1,2,-1
 400 800 l 1,3,-1
 200 800 l 1,0,-1
200 600 m 1,0,-1
 200 400 l 1,1,-1
 400 400 l 1,2,-1
 400 600 l 1,3,-1
 200 600 l 1,0,-1
400 800 m 1,0,-1
 400 600 l 1,1,-1
 600 600 l 1,2,-1
 600 800 l 1,3,-1
 400 800 l 1,0,-1
600 800 m 1,0,-1
 600 600 l 1,1,-1
 800 600 l 1,2,-1
 800 800 l 1,3,-1
 600 800 l 1,0,-1
800 600 m 1,0,-1
 800 400 l 1,1,-1
 1000 400 l 1,2,-1
 1000 600 l 1,3,-1
 800 600 l 1,0,-1
800 400 m 1,0,-1
 800 200 l 1,1,-1
 1000 200 l 1,2,-1
 1000 400 l 1,3,-1
 800 400 l 1,0,-1
800 200 m 1,0,-1
 800 0 l 1,1,-1
 1000 0 l 1,2,-1
 1000 200 l 1,3,-1
 800 200 l 1,0,-1
1000 200 m 1,0,-1
 1000 0 l 1,1,-1
 1200 0 l 1,2,-1
 1200 200 l 1,3,-1
 1000 200 l 1,0,-1
1200 400 m 1,0,-1
 1200 200 l 1,1,-1
 1400 200 l 1,2,-1
 1400 400 l 1,3,-1
 1200 400 l 1,0,-1
EndSplineSet
EndChar

StartChar: u00c8
Encoding: 200 200 187
Width: 1600
VWidth: 1200
GlyphClass: 2
Flags: W
LayerCount: 2
Fore
SplineSet
200 600 m 1,0,-1
 200 400 l 1,1,-1
 400 400 l 1,2,-1
 400 600 l 1,3,-1
 200 600 l 1,0,-1
400 600 m 1,0,-1
 400 400 l 1,1,-1
 600 400 l 1,2,-1
 600 600 l 1,3,-1
 400 600 l 1,0,-1
600 600 m 1,0,-1
 600 400 l 1,1,-1
 800 400 l 1,2,-1
 800 600 l 1,3,-1
 600 600 l 1,0,-1
600 200 m 1,0,-1
 600 0 l 1,1,-1
 800 0 l 1,2,-1
 800 200 l 1,3,-1
 600 200 l 1,0,-1
800 400 m 1,0,-1
 800 200 l 1,1,-1
 1000 200 l 1,2,-1
 1000 400 l 1,3,-1
 800 400 l 1,0,-1
EndSplineSet
EndChar

